<?xml version="1.0" standalone="no"?>
<!DOCTYPE svg PUBLIC "-//W3C//DTD SVG 1.1//EN" "http://www.w3.org/Graphics/SVG/1.1/DTD/svg11.dtd" >
<svg xmlns="http://www.w3.org/2000/svg" xmlns:xlink="http://www.w3.org/1999/xlink" version="1.1">
<metadata>
Created by FontForge 20190801 at Wed Feb  3 18:22:50 2016
 By Jimmy Wärting
Copyright (c) 2011, Jonas Hecksher, Playtypes, e-types AS (lasse@e-types.com), with Reserved Font Name 'Play', 'Playtype', 'Playtype Sans'.
</metadata>
<defs>
<font id="Play-Regular" horiz-adv-x="580" >
  <font-face 
    font-family="Play"
    font-weight="400"
    font-stretch="normal"
    units-per-em="1000"
    panose-1="2 11 0 0 0 0 0 0 0 0"
    ascent="800"
    descent="-200"
    x-height="484"
    cap-height="649"
    bbox="-186 -220 1259 937"
    underline-thickness="50"
    underline-position="-100"
    unicode-range="U+0020-FB04"
  />
<missing-glyph horiz-adv-x="260" 
 />
    <glyph glyph-name="f_f" unicode="ff" horiz-adv-x="729" 
d="M709 425h-171v-425h-90v425h-237v-425h-90v425h-111v59h111v78q0 84 37 116t123 32q59 0 101 -5v-58q-35 5 -68 5q-62 0 -82.5 -16.5t-20.5 -67.5v-84h237v78q0 84 37 116t123 32q59 0 101 -5v-58q-35 5 -68 5q-62 0 -82.5 -16.5t-20.5 -67.5v-84h171v-59z" />
    <glyph glyph-name="f_i" unicode="fi" horiz-adv-x="616" 
d="M538 602h-90v98h90v-98zM538 0h-90v484h90v-484zM382 425h-171v-425h-90v425h-111v59h111v78q0 84 37 116t123 32q59 0 101 -5v-58q-35 5 -68 5q-62 0 -82.5 -16.5t-20.5 -67.5v-84h171v-59z" />
    <glyph glyph-name="f_l" unicode="fl" horiz-adv-x="616" 
d="M538 0h-90v700h90v-700zM382 425h-171v-425h-90v425h-111v59h111v78q0 84 37 116t123 32q59 0 101 -5v-58q-35 5 -68 5q-62 0 -82.5 -16.5t-20.5 -67.5v-84h171v-59z" />
    <glyph glyph-name="f_b" unicode="fb" horiz-adv-x="949" 
d="M382 428h-171v-428h-90v428h-111v56h111v78q0 84 37 116t123 32q59 0 101 -5v-58q-35 5 -68 5q-62 0 -82.5 -16.5t-20.5 -67.5v-84h171v-56zM889 357v-199q0 -44 -13 -76t-32.5 -49.5t-51.5 -27.5t-60 -12.5t-68 -2.5q-52 0 -85 5t-66 21t-49 51.5t-16 90.5v542h90v-145
q0 -19 -0.5 -57.5t-0.5 -57.5q4 23 41.5 38.5t110.5 15.5q200 0 200 -137zM797 145v190q0 62 -29 78.5t-103 16.5q-72 0 -102 -19t-30 -76v-190q0 -61 29.5 -78.5t103.5 -17.5t102.5 17.5t28.5 78.5z" />
    <glyph glyph-name="f_h" unicode="fh" horiz-adv-x="943" 
d="M382 428h-171v-428h-90v428h-111v56h111v78q0 84 37 116t123 32q59 0 101 -5v-58q-35 5 -68 5q-62 0 -82.5 -16.5t-20.5 -67.5v-84h171v-56zM865 0h-90v349q0 18 -3 30t-12.5 24.5t-32 19t-56.5 6.5q-83 0 -108 -18t-25 -62v-349h-90v700h90v-275q14 69 159 69
q96 0 132 -34.5t36 -104.5v-355z" />
    <glyph glyph-name="f_j" unicode="fj" horiz-adv-x="616" 
d="M382 428h-171v-428h-90v428h-111v56h111v78q0 84 37 116t123 32q59 0 101 -5v-58q-35 5 -68 5q-62 0 -82.5 -16.5t-20.5 -67.5v-84h171v-56zM538 605h-90v95h90v-95zM538 484v-545q0 -83 -39 -115t-122 -32q-25 0 -51 4v59q24 -4 38 -4q42 0 63 16.5t21 64.5v552h90z" />
    <glyph glyph-name="f_k" unicode="fk" horiz-adv-x="884" 
d="M382 428h-171v-428h-90v428h-111v56h111v78q0 84 37 116t123 32q59 0 101 -5v-58q-35 5 -68 5q-62 0 -82.5 -16.5t-20.5 -67.5v-84h171v-56zM882 0h-112l-221 265l204 219h110l-210 -219zM538 0h-90v700h90v-700z" />
    <glyph glyph-name="f_f_i" unicode="ffi" horiz-adv-x="943" 
d="M709 425h-171v-425h-90v425h-237v-425h-90v425h-111v59h111v78q0 84 37 116t123 32q59 0 101 -5v-58q-35 5 -68 5q-62 0 -82.5 -16.5t-20.5 -67.5v-84h237v78q0 84 37 116t123 32q59 0 101 -5v-58q-35 5 -68 5q-62 0 -82.5 -16.5t-20.5 -67.5v-84h171v-59zM865 605h-90
v95h90v-95zM865 0h-90v484h90v-484z" />
    <glyph glyph-name="f_f_l" unicode="ffl" horiz-adv-x="943" 
d="M709 425h-171v-425h-90v425h-237v-425h-90v425h-111v59h111v78q0 84 37 116t123 32q59 0 101 -5v-58q-35 5 -68 5q-62 0 -82.5 -16.5t-20.5 -67.5v-84h237v78q0 84 37 116t123 32q59 0 101 -5v-58q-35 5 -68 5q-62 0 -82.5 -16.5t-20.5 -67.5v-84h171v-59zM865 0h-90v700
h90v-700z" />
    <glyph glyph-name="f_f_b" unicode="ffb" horiz-adv-x="1276" 
d="M709 425h-171v-425h-90v425h-237v-425h-90v425h-111v59h111v78q0 84 37 116t123 32q59 0 101 -5v-58q-35 5 -68 5q-62 0 -82.5 -16.5t-20.5 -67.5v-84h237v78q0 84 37 116t123 32q59 0 101 -5v-58q-35 5 -68 5q-62 0 -82.5 -16.5t-20.5 -67.5v-84h171v-59zM1216 357v-199
q0 -44 -13 -76t-32.5 -49.5t-51.5 -27.5t-60 -12.5t-68 -2.5q-52 0 -85 5t-66 21t-49 51.5t-16 90.5v542h90v-145q0 -19 -0.5 -57.5t-0.5 -57.5q4 23 41.5 38.5t110.5 15.5q200 0 200 -137zM1124 145v190q0 62 -29 78.5t-103 16.5q-72 0 -102 -19t-30 -76v-190
q0 -61 29.5 -78.5t103.5 -17.5t102.5 17.5t28.5 78.5z" />
    <glyph glyph-name="f_f_h" unicode="ffh" horiz-adv-x="1270" 
d="M709 425h-171v-425h-90v425h-237v-425h-90v425h-111v59h111v78q0 84 37 116t123 32q59 0 101 -5v-58q-35 5 -68 5q-62 0 -82.5 -16.5t-20.5 -67.5v-84h237v78q0 84 37 116t123 32q59 0 101 -5v-58q-35 5 -68 5q-62 0 -82.5 -16.5t-20.5 -67.5v-84h171v-59zM1192 0h-90
v349q0 18 -3 30t-12.5 24.5t-32 19t-56.5 6.5q-83 0 -108 -18t-25 -62v-349h-90v700h90v-275q14 69 159 69q96 0 132 -34.5t36 -104.5v-355z" />
    <glyph glyph-name="f_f_j" unicode="ffj" horiz-adv-x="943" 
d="M709 425h-171v-425h-90v425h-237v-425h-90v425h-111v59h111v78q0 84 37 116t123 32q59 0 101 -5v-58q-35 5 -68 5q-62 0 -82.5 -16.5t-20.5 -67.5v-84h237v78q0 84 37 116t123 32q59 0 101 -5v-58q-35 5 -68 5q-62 0 -82.5 -16.5t-20.5 -67.5v-84h171v-59zM865 605h-90
v95h90v-95zM865 484v-545q0 -83 -39 -115t-122 -32q-25 0 -51 4v59q24 -4 38 -4q42 0 63 16.5t21 64.5v552h90z" />
    <glyph glyph-name="f_f_k" unicode="ffk" horiz-adv-x="1211" 
d="M709 425h-171v-425h-90v425h-237v-425h-90v425h-111v59h111v78q0 84 37 116t123 32q59 0 101 -5v-58q-35 5 -68 5q-62 0 -82.5 -16.5t-20.5 -67.5v-84h237v78q0 84 37 116t123 32q59 0 101 -5v-58q-35 5 -68 5q-62 0 -82.5 -16.5t-20.5 -67.5v-84h171v-59zM1209 0h-112
l-221 265l204 219h110l-210 -219zM865 0h-90v700h90v-700z" />
    <glyph glyph-name="f_t" unicode="ft" horiz-adv-x="732" 
d="M712 -2q-48 -8 -101 -8q-86 0 -124.5 28.5t-38.5 122.5v284h-237v-425h-90v425h-111v59h111v78q0 84 37 116t123 32q59 0 101 -5v-58q-35 5 -68 5q-62 0 -82.5 -16.5t-20.5 -67.5v-84h237v150h91v-150h173v-59h-173v-289q0 -52 20 -69.5t81 -17.5q16 0 72 8v-59z" />
    <glyph glyph-name="f_f_f" unicode="fff" horiz-adv-x="1162" 
d="M382 428h-171v-428h-90v428h-111v56h111v77q0 84 37 116t123 32q59 0 101 -5v-58q-35 5 -68 5q-62 0 -82.5 -16.5t-20.5 -67.5v-83h171v-56zM762 428h-171v-428h-90v428h-111v56h111v77q0 84 37 116t123 32q59 0 101 -5v-58q-35 5 -68 5q-62 0 -82.5 -16.5t-20.5 -67.5
v-83h171v-56zM1142 428h-171v-428h-90v428h-111v56h111v77q0 84 37 116t123 32q59 0 101 -5v-58q-35 5 -68 5q-62 0 -82.5 -16.5t-20.5 -67.5v-83h171v-56z" />
    <glyph glyph-name=".notdef" horiz-adv-x="260" 
 />
    <glyph glyph-name=".null" horiz-adv-x="0" 
 />
    <glyph glyph-name="nonmarkingreturn" horiz-adv-x="333" 
 />
    <glyph glyph-name="space" unicode=" " horiz-adv-x="230" 
 />
    <glyph glyph-name="exclam" unicode="!" horiz-adv-x="280" 
d="M200 649l-35 -470h-50l-35 470h120zM198 0h-116v108h116v-108z" />
    <glyph glyph-name="quotedbl" unicode="&#x22;" horiz-adv-x="443" 
d="M171 429h-86v220h86v-220zM358 429h-86v220h86v-220z" />
    <glyph glyph-name="numbersign" unicode="#" 
d="M236 261h84l26 127h-85zM520 199h-146l-39 -199h-66l39 199h-84l-39 -199h-66l39 199h-98v62h110l26 127h-136v62h148l37 189h66l-37 -189h84l37 189h66l-37 -189h96v-62h-109l-25 -127h134v-62z" />
    <glyph glyph-name="dollar" unicode="$" 
d="M321 290v-226q52 3 80 20t28 56v74q0 41 -23.5 58.5t-84.5 17.5zM264 362v209q-66 -4 -88 -22.5t-22 -57.5v-64q0 -34 24.5 -49.5t85.5 -15.5zM321 -140h-57v130q-73 0 -191 16v79q1 0 36 -7t48.5 -8.5t45 -4.5t61.5 -3v228h-29q-98 0 -136.5 39.5t-38.5 116.5v42
q0 70 44.5 107t159.5 43v71h57v-70q66 0 161 -11v-71q-123 14 -161 15v-210h30q101 0 137 -36.5t36 -115.5v-37q0 -93 -50.5 -134t-152.5 -47v-132z" />
    <glyph glyph-name="percent" unicode="%" horiz-adv-x="855" 
d="M361 537v-125q0 -33 -12.5 -54t-37 -30t-48 -12t-59.5 -3t-59.5 3t-48.5 12t-37.5 30t-12.5 54v125q0 67 42.5 89.5t115.5 22.5t115 -22.5t42 -89.5zM283 416v125q0 36 -18.5 46t-60.5 10q-43 0 -61.5 -10t-18.5 -46v-125q0 -32 19 -41.5t61 -9.5t60.5 9.5t18.5 41.5z
M632 660l-324 -670h-77l324 670h77zM809 214v-125q0 -33 -12.5 -54t-37 -30t-48 -12t-59.5 -3t-59.5 3t-48.5 12t-37.5 30t-12.5 54v125q0 67 42.5 89.5t115.5 22.5t115 -22.5t42 -89.5zM731 93v125q0 36 -18.5 46t-60.5 10q-43 0 -61.5 -10t-18.5 -46v-125q0 -32 19 -41.5
t61 -9.5t60.5 9.5t18.5 41.5z" />
    <glyph glyph-name="ampersand" unicode="&#x26;" horiz-adv-x="636" 
d="M235 310l-35 -15q-21 -10 -33.5 -30.5t-12.5 -41.5v-122q0 -49 131 -49h11q97 0 132 28zM545 209q0 -68 -21 -112q40 -38 60 -38h26v-59h-64q-34 0 -73 34q-63 -44 -195 -44q-218 0 -218 115v109q0 76 92 117l47 22l-39 46q-31 36 -31 69v97q0 95 166 95q67 0 136 -15
v-73q-75 25 -138 25q-43 0 -61 -9t-18 -31v-74q0 -15 10 -27l242 -293q3 18 3 42v96h76v-92z" />
    <glyph glyph-name="quotesingle" unicode="'" horiz-adv-x="256" 
d="M171 429h-86v220h86v-220z" />
    <glyph glyph-name="parenleft" unicode="(" horiz-adv-x="331" 
d="M305 -127h-81q-145 216 -145 403q0 106 37.5 200.5t107.5 202.5h81q-66 -115 -102.5 -210t-36.5 -193q0 -99 37 -196t102 -207z" />
    <glyph glyph-name="parenright" unicode=")" horiz-adv-x="331" 
d="M252 276q0 -187 -145 -403h-81q65 110 102 207t37 196q0 97 -36.5 191t-102.5 212h81q70 -108 107.5 -202.5t37.5 -200.5z" />
    <glyph glyph-name="asterisk" unicode="*" horiz-adv-x="398" 
d="M372 496l-134 -29l91 -106l-61 -41l-69 119l-70 -119l-60 41l94 106l-137 29l23 69l129 -54l-13 138h73l-13 -138l125 54z" />
    <glyph glyph-name="plus" unicode="+" horiz-adv-x="500" 
d="M283 515v-166h157v-67h-157v-167h-67v167h-156v67h156v166h67z" />
    <glyph glyph-name="comma" unicode="," horiz-adv-x="256" 
d="M191 108l-94 -220h-58l46 220h106z" />
    <glyph glyph-name="hyphen" unicode="-" horiz-adv-x="358" 
d="M318 250h-278v72h278v-72z" />
    <glyph glyph-name="period" unicode="." horiz-adv-x="256" 
d="M186 0h-116v108h116v-108z" />
    <glyph glyph-name="slash" unicode="/" horiz-adv-x="421" 
d="M411 660l-324 -670h-77l324 670h77z" />
    <glyph glyph-name="zero" unicode="0" 
d="M519 485v-329q0 -43 -13.5 -74.5t-34 -49t-52.5 -27.5t-61 -12.5t-69 -2.5q-41 0 -69.5 2.5t-61 12t-52 27t-32.5 49t-13 75.5v328q0 47 13.5 80.5t33.5 52t53 28.5t60.5 12.5t67.5 2.5q41 0 69 -2.5t61 -12.5t53 -28t33.5 -51.5t13.5 -80.5zM428 151v340
q0 71 -31.5 90.5t-106.5 19.5q-77 0 -107.5 -19.5t-30.5 -90.5v-340q0 -65 32 -83.5t107 -18.5t106 18.5t31 83.5z" />
    <glyph glyph-name="one" unicode="1" 
d="M406 0h-87v559l-197 -129v82l198 137h86v-649z" />
    <glyph glyph-name="two" unicode="2" 
d="M508 0h-436v116q0 29 10 53.5t23.5 40.5t39.5 32.5t43.5 25.5t50.5 23l108 48q64 29 64 87v89q0 47 -29.5 62t-96.5 15q-69 0 -190 -21v70q104 19 209 19q107 0 155.5 -32t48.5 -109v-106q0 -54 -28 -82t-100 -61l-150 -69q-66 -30 -66 -88v-43h344v-70z" />
    <glyph glyph-name="three" unicode="3" 
d="M503 259v-130q0 -36 -15.5 -62.5t-37.5 -41t-56 -23t-62.5 -10.5t-65.5 -2q-81 0 -189 19v72q121 -25 199 -25q133 0 133 75v111q0 21 -11.5 34.5t-33 19t-38.5 7t-41 1.5h-125v62h108q24 0 40.5 1.5t38.5 7t34 19.5t12 36v116q0 51 -120 51q-77 0 -183 -16v69
q86 9 182 9q108 0 160 -23.5t52 -84.5v-125q0 -33 -26 -52.5t-63 -25.5v-4q23 -4 39 -8.5t33.5 -13.5t26.5 -25t9 -38z" />
    <glyph glyph-name="four" unicode="4" 
d="M528 142h-70v-142h-83v142h-323v79l294 428h112v-438h70v-69zM375 211v359l-243 -359h243z" />
    <glyph glyph-name="five" unicode="5" 
d="M493 277v-148q0 -36 -13 -62.5t-33 -41t-50.5 -23t-57 -10.5t-61.5 -2q-81 0 -191 18v72q116 -24 194 -24q59 0 88.5 17t29.5 58v129q0 21 -9 34.5t-27 19t-32.5 7t-36.5 1.5h-192v327h374v-68h-284v-197h150q37 0 68.5 -8.5t57 -33.5t25.5 -65z" />
    <glyph glyph-name="six" unicode="6" 
d="M509 251v-95q0 -54 -17 -89t-51 -51t-68 -21t-84 -5q-41 0 -68.5 2.5t-58.5 12t-49 27t-30 49t-12 75.5v328q0 47 15 80.5t37 52t57.5 28.5t64.5 12.5t69 2.5q61 0 164 -9v-68q-106 13 -177 13q-78 0 -109.5 -19.5t-31.5 -90.5v-102h147q47 0 73 -1.5t55 -8.5t42.5 -21
t22.5 -39t9 -63zM420 151v97q0 48 -24.5 63t-105.5 15h-130v-175q0 -65 28.5 -83.5t102.5 -18.5t101.5 18t27.5 84z" />
    <glyph glyph-name="seven" unicode="7" 
d="M518 584l-248 -584h-96l260 584h-372v65h456v-65z" />
    <glyph glyph-name="eight" unicode="8" 
d="M520 119q0 -71 -54.5 -100t-176.5 -29q-121 0 -175.5 29t-54.5 98v121q0 41 32 67t80 37v4q-44 10 -67 31.5t-23 61.5v101q0 28 8.5 48t30.5 37.5t64 26t105 8.5t105 -8.5t64 -26t30.5 -37.5t8.5 -48v-101q0 -40 -22.5 -61.5t-66.5 -31.5v-4q48 -11 80 -37t32 -67v-119z
M406 430v105q0 37 -27 52t-90 15t-90 -15t-27 -52v-105q0 -39 26 -52.5t91 -13.5t91 13.5t26 52.5zM422 114v121q0 25 -10.5 41t-33 22.5t-40.5 8t-49 1.5t-49 -1.5t-40.5 -8t-33 -22.5t-10.5 -41v-121q0 -36 30 -51t103 -15t103 15t30 51z" />
    <glyph glyph-name="nine" unicode="9" 
d="M509 494v-328q0 -96 -56.5 -136t-181.5 -40q-85 0 -169 11v67q93 -17 166 -17q86 0 119 27.5t33 101.5v85h-147q-47 0 -73 1.5t-55 8.5t-42.5 21t-22.5 39t-9 63v96q0 54 17 89t51 51t68 21t84 5q41 0 68.5 -2.5t58.5 -12t49 -27t30 -49t12 -75.5zM420 499
q0 65 -28.5 83.5t-102.5 18.5t-101.5 -18t-27.5 -84v-98q0 -48 24.5 -63t105.5 -15h130v176z" />
    <glyph glyph-name="colon" unicode=":" horiz-adv-x="256" 
d="M186 376h-116v108h116v-108zM186 0h-116v108h116v-108z" />
    <glyph glyph-name="semicolon" unicode=";" horiz-adv-x="256" 
d="M186 376h-116v108h116v-108zM191 108l-94 -220h-58l46 220h106z" />
    <glyph glyph-name="less" unicode="&#x3c;" horiz-adv-x="500" 
d="M440 143v-81l-380 213v72l380 213v-81l-302 -171z" />
    <glyph glyph-name="equal" unicode="=" horiz-adv-x="500" 
d="M440 362h-380v67h380v-67zM440 202h-380v67h380v-67z" />
    <glyph glyph-name="greater" unicode="&#x3e;" horiz-adv-x="500" 
d="M60 62v81l302 165l-302 171v81l380 -213v-72z" />
    <glyph glyph-name="question" unicode="?" horiz-adv-x="533" 
d="M207 171v24q0 54 17.5 90.5t42.5 55.5t50 35.5t42.5 42t17.5 62.5v30q0 47 -30 62t-96 15q-70 0 -191 -21v73q105 19 210 19q107 0 155 -32t48 -109v-50q0 -38 -13.5 -67.5t-33.5 -47t-44 -34.5t-44 -29.5t-33.5 -32t-13.5 -43.5v-43h-84zM306 0h-116v108h116v-108z" />
    <glyph glyph-name="at" unicode="@" horiz-adv-x="737" 
d="M677 394v-249q0 -49 -25 -69t-74 -20h-31q-34 0 -56.5 10.5t-27.5 26.5q-10 -22 -31 -29.5t-83 -7.5q-81 0 -115 27.5t-34 114.5v110q0 74 36 102.5t133 28.5q98 0 128.5 -28.5t30.5 -102.5v-179q0 -14 9 -19t30 -5t29 4.5t8 19.5v277q0 36 -24.5 61.5t-64 37t-76.5 16.5
t-76 5t-74 -5t-71.5 -16.5t-58 -37t-21.5 -61.5v-327q0 -33 22 -56.5t59 -35t72 -16t73 -4.5q57 0 133 9.5t103 16.5v-58q-25 -8 -97 -16.5t-141 -8.5q-41 0 -78 3.5t-79.5 15t-73 30t-51 51.5t-20.5 76v307q0 57 30 96.5t80.5 57.5t96 25t95.5 7q53 0 100 -6.5t99.5 -24.5
t84 -57.5t31.5 -96.5zM455 184v120q0 57 -14.5 70t-74.5 13q-58 0 -73 -13.5t-15 -69.5v-120q0 -51 15.5 -64t72.5 -13t73 14t16 63z" />
    <glyph glyph-name="A" unicode="A" horiz-adv-x="652" 
d="M637 0h-101l-74 197h-278l-73 -197h-96l258 649h112zM438 264l-110 293h-9l-110 -293h229z" />
    <glyph glyph-name="B" unicode="B" horiz-adv-x="613" 
d="M553 238v-109q0 -71 -54 -100t-176 -29h-239v649h232q84 0 131.5 -17t62 -42t14.5 -64v-87q0 -40 -22.5 -61t-66.5 -31v-4q52 -9 85 -36t33 -69zM433 442v76q0 37 -27 52t-90 15h-135v-220h138q62 0 88 18.5t26 58.5zM456 133v98q0 26 -10.5 41.5t-33 22t-40 8t-49.5 1.5
h-142v-237h142q73 0 103 15t30 51z" />
    <glyph glyph-name="C" unicode="C" horiz-adv-x="564" 
d="M519 9q-87 -19 -182 -19q-273 0 -273 176v308q0 186 273 186q91 0 178 -19v-72q-96 24 -176 24q-38 0 -67 -4.5t-57 -16t-43 -36t-15 -61.5v-304q0 -112 186 -112q80 0 176 24v-74z" />
    <glyph glyph-name="D" unicode="D" horiz-adv-x="679" 
d="M615 463v-287q0 -176 -272 -176h-259v649h258q273 0 273 -186zM522 178v286q0 37 -15 61.5t-42.5 36t-56.5 16t-67 4.5h-160v-516h155q186 0 186 112z" />
    <glyph glyph-name="E" unicode="E" 
d="M530 0h-446v649h436v-68h-339v-212h306v-68h-306v-233h349v-68z" />
    <glyph glyph-name="F" unicode="F" horiz-adv-x="560" 
d="M530 581h-349v-212h316v-68h-316v-301h-97v649h446v-68z" />
    <glyph glyph-name="G" unicode="G" horiz-adv-x="666" 
d="M602 20q-130 -30 -239 -30q-41 0 -77.5 3.5t-78.5 15t-72.5 30t-50.5 51.5t-20 76v307q0 57 29.5 96.5t79.5 57.5t95 25t95 7q120 0 224 -16v-75q-38 9 -109 16.5t-113 7.5q-205 0 -205 -118v-306q0 -33 19.5 -56.5t53 -35t66 -16t70.5 -4.5q67 0 143 18v227h-152v68h242
v-349z" />
    <glyph glyph-name="H" unicode="H" horiz-adv-x="707" 
d="M623 0h-97v301h-345v-301h-97v649h97v-280h345v280h97v-649z" />
    <glyph glyph-name="I" unicode="I" horiz-adv-x="265" 
d="M181 0h-97v649h97v-649z" />
    <glyph glyph-name="J" unicode="J" horiz-adv-x="403" 
d="M319 649v-506q0 -93 -41.5 -123t-138.5 -30q-82 0 -119 11v65q61 -16 107 -16q56 0 75.5 16.5t19.5 72.5v510h97z" />
    <glyph glyph-name="K" unicode="K" horiz-adv-x="609" 
d="M619 0h-126l-310 345l290 304h117l-292 -300zM181 0h-97v649h97v-649z" />
    <glyph glyph-name="L" unicode="L" horiz-adv-x="520" 
d="M500 0h-416v649h97v-581h319v-68z" />
    <glyph glyph-name="M" unicode="M" horiz-adv-x="861" 
d="M777 0h-85v549h-5l-209 -549h-87l-215 549h-5v-549h-87v649h145l208 -540l3 -1l197 541h140v-649z" />
    <glyph glyph-name="N" unicode="N" horiz-adv-x="723" 
d="M639 0h-117l-353 545v-545h-85v649h117l353 -536v536h85v-649z" />
    <glyph glyph-name="O" unicode="O" horiz-adv-x="679" 
d="M613 474v-308q0 -53 -25.5 -90t-69.5 -54.5t-87 -24.5t-93 -7q-272 0 -272 176v307q0 186 272 186q275 0 275 -185zM519 167v309q0 120 -180 120q-38 0 -67 -4.5t-56 -17t-42 -37t-15 -61.5v-309q0 -112 181 -112q179 0 179 112z" />
    <glyph glyph-name="P" unicode="P" horiz-adv-x="570" 
d="M525 521v-135q0 -83 -64.5 -117.5t-182.5 -34.5h-97v-234h-97v649h212q40 0 69 -2t61.5 -9.5t52 -21t33 -37.5t13.5 -58zM430 391v118q0 27 -14 44.5t-40 24.5t-43.5 8.5t-43.5 1.5h-109v-293h111q58 0 98.5 21.5t40.5 74.5z" />
    <glyph glyph-name="Q" unicode="Q" horiz-adv-x="676" 
d="M682 0h-345q-273 0 -273 176v297q0 186 273 186q274 0 274 -185v-268q0 -93 -89 -151h160v-55zM518 177v299q0 120 -180 120q-38 0 -67.5 -4.5t-56.5 -17t-42 -37t-15 -61.5v-299q0 -112 182 -112q179 0 179 112z" />
    <glyph glyph-name="R" unicode="R" horiz-adv-x="612" 
d="M580 0h-119l-186 277h-94v-277h-97v649h228q122 0 175 -24.5t53 -102.5v-112q0 -60 -49 -90.5t-119 -30.5zM443 422v90q0 73 -126 73h-136v-244h127q69 0 102 17t33 64z" />
    <glyph glyph-name="S" unicode="S" horiz-adv-x="569" 
d="M514 220v-47q0 -104 -59 -143.5t-184 -39.5q-80 0 -198 16v81q118 -25 204 -25q69 0 105.5 15.5t36.5 62.5v84q0 41 -23.5 58.5t-84.5 17.5h-76q-98 0 -136.5 39.5t-38.5 116.5v52q0 77 54.5 114t200.5 37q70 0 167 -11v-73q-111 17 -174 17q-93 0 -123.5 -18.5
t-30.5 -62.5v-74q0 -34 24 -49.5t85 -15.5h78q101 0 137 -36.5t36 -115.5z" />
    <glyph glyph-name="T" unicode="T" horiz-adv-x="585" 
d="M561 581h-219v-581h-98v581h-220v68h537v-68z" />
    <glyph glyph-name="U" unicode="U" horiz-adv-x="676" 
d="M591 649v-483q0 -176 -254 -176q-51 0 -91 6.5t-79 24t-61 54.5t-22 91v483h93v-482q0 -64 43 -88t119 -24t117.5 24t41.5 88v482h93z" />
    <glyph glyph-name="V" unicode="V" horiz-adv-x="652" 
d="M637 649l-258 -649h-112l-252 649h101l208 -557h9l208 557h96z" />
    <glyph glyph-name="W" unicode="W" horiz-adv-x="968" 
d="M960 649l-209 -649h-113l-155 540l-159 -540h-113l-203 649h103l161 -557h2l161 557h103l161 -557h2l161 557h98z" />
    <glyph glyph-name="X" unicode="X" horiz-adv-x="604" 
d="M596 0h-111l-183 264l-183 -264h-111l239 331l-229 318h111l173 -251l173 251h111l-229 -318z" />
    <glyph glyph-name="Y" unicode="Y" horiz-adv-x="584" 
d="M576 649l-236 -384v-265h-97v262l-235 387h111l173 -305l173 305h111z" />
    <glyph glyph-name="Z" unicode="Z" 
d="M540 0h-500v68l382 513h-372v68h484v-68l-382 -513h388v-68z" />
    <glyph glyph-name="bracketleft" unicode="[" horiz-adv-x="330" 
d="M310 -190h-226v926h226v-48h-139v-830h139v-48z" />
    <glyph glyph-name="backslash" unicode="\" horiz-adv-x="421" 
d="M411 -10h-77l-324 669h77z" />
    <glyph glyph-name="bracketright" unicode="]" horiz-adv-x="330" 
d="M246 -190h-226v48h139v830h-139v48h226v-926z" />
    <glyph glyph-name="asciicircum" unicode="^" horiz-adv-x="321" 
d="M223 680l78 -227h-68l-73 187l-72 -187h-68l76 227h127z" />
    <glyph glyph-name="underscore" unicode="_" 
d="M509 -141h-438v71h438v-71z" />
    <glyph glyph-name="grave" unicode="`" horiz-adv-x="239" 
d="M219 553h-74l-125 127h109z" />
    <glyph glyph-name="a" unicode="a" horiz-adv-x="538" 
d="M460 0h-87v46q-11 -56 -146 -56q-100 0 -138.5 30.5t-38.5 123.5q0 81 36 111.5t139 30.5h145v77q0 40 -24.5 54t-92.5 14q-74 0 -166 -12v66q99 9 179 9q122 0 158 -29.5t36 -122.5v-342zM370 98v132h-139q-62 0 -77.5 -16t-15.5 -73q0 -51 16.5 -71.5t69.5 -20.5h18
q26 0 43.5 1t39.5 5.5t33.5 15t11.5 27.5z" />
    <glyph glyph-name="b" unicode="b" horiz-adv-x="579" 
d="M519 357v-199q0 -44 -13 -76t-32.5 -49.5t-51.5 -27.5t-60 -12.5t-68 -2.5q-52 0 -85 5t-66 21t-49 51.5t-16 90.5v542h90v-145q0 -19 -0.5 -57.5t-0.5 -57.5q4 23 41.5 38.5t110.5 15.5q200 0 200 -137zM427 145v190q0 62 -29 78.5t-103 16.5q-71 0 -99 -19t-28 -76
v-190q0 -61 27.5 -78.5t100.5 -17.5q74 0 102.5 17.5t28.5 78.5z" />
    <glyph glyph-name="c" unicode="c" horiz-adv-x="464" 
d="M428 4q-66 -14 -155 -14q-44 0 -68.5 1.5t-56 10t-48 24.5t-28.5 46.5t-12 75.5v178q0 40 7.5 69t23.5 47t33 29t46.5 15.5t52 6t60.5 1.5q69 0 138 -15v-66q-78 20 -149 20q-75 0 -97.5 -18t-22.5 -76v-198q0 -53 25.5 -70.5t104.5 -17.5q71 0 146 19v-68z" />
    <glyph glyph-name="d" unicode="d" horiz-adv-x="571" 
d="M501 0h-88v57q0 -26 -43.5 -46.5t-118.5 -20.5q-105 0 -148 33t-43 121v213q0 73 45 105t151 32q57 0 105.5 -15t49.5 -47h2q-2 82 -2 123v145h90v-700zM411 127v239q0 65 -133 65q-80 0 -104.5 -12t-24.5 -53v-239q0 -41 27.5 -58t93.5 -17q74 0 107.5 17t33.5 58z" />
    <glyph glyph-name="e" unicode="e" horiz-adv-x="535" 
d="M476 222h-325v-73q0 -51 36 -72.5t107 -21.5q69 0 163 24v-69q-90 -20 -175 -20q-222 0 -222 148v191q0 89 51 127t163 38q105 0 153.5 -36.5t48.5 -128.5v-107zM386 281v76q0 44 -27 60.5t-90 16.5q-60 0 -89 -16t-29 -61v-76h235z" />
    <glyph glyph-name="f" unicode="f" horiz-adv-x="380" 
d="M372 425h-161v-425h-90v425h-111v59h111v78q0 82 46 115t134 33q39 0 81 -5v-59q-35 5 -78 5q-49 0 -71 -17t-22 -66v-84h161v-59z" />
    <glyph glyph-name="g" unicode="g" horiz-adv-x="569" 
d="M491 484v-530q0 -103 -57.5 -138.5t-172.5 -35.5q-103 0 -167 11v64q115 -14 175 -14q69 0 100.5 22t31.5 73v116q-2 -34 -46.5 -48t-101.5 -14q-112 0 -152.5 33t-40.5 114v197q0 86 46.5 123t152.5 37q126 0 148 -57v47h84zM401 131v219q0 47 -25.5 64.5t-105.5 17.5
q-75 0 -98 -17t-23 -65v-219q0 -50 24.5 -65.5t98.5 -15.5q68 0 98.5 16.5t30.5 64.5z" />
    <glyph glyph-name="h" unicode="h" horiz-adv-x="573" 
d="M495 0h-90v349q0 18 -3 30t-12.5 24.5t-32 19t-56.5 6.5q-83 0 -108 -18t-25 -62v-349h-90v700h90v-275q14 69 159 69q96 0 132 -34.5t36 -104.5v-355z" />
    <glyph glyph-name="i" unicode="i" horiz-adv-x="246" 
d="M168 565h-90v94h90v-94zM168 0h-90v484h90v-484z" />
    <glyph glyph-name="j" unicode="j" horiz-adv-x="247" 
d="M169 565h-90v94h90v-94zM169 484v-557q0 -83 -39 -115t-122 -32q-25 0 -51 4v59q24 -4 38 -4q42 0 63 16.5t21 64.5v564h90z" />
    <glyph glyph-name="k" unicode="k" horiz-adv-x="514" 
d="M512 0h-112l-221 265l204 219h110l-210 -219zM168 0h-90v700h90v-700z" />
    <glyph glyph-name="l" unicode="l" horiz-adv-x="246" 
d="M168 0h-90v700h90v-700z" />
    <glyph glyph-name="m" unicode="m" horiz-adv-x="890" 
d="M812 0h-90v349q0 18 -3 30t-12.5 24.5t-32 19t-56.5 6.5q-79 0 -101.5 -17t-22.5 -63v-349h-90v349q0 18 -3 30t-12.5 24.5t-31.5 19t-56 6.5q-80 0 -106.5 -16.5t-26.5 -63.5v-349h-90v484h90v-59q14 69 163 69q121 0 151 -66q10 34 56.5 50t109.5 16q93 0 128.5 -34.5
t35.5 -104.5v-355z" />
    <glyph glyph-name="n" unicode="n" horiz-adv-x="573" 
d="M495 0h-90v350q0 18 -3 30t-12.5 24.5t-32 19t-56.5 6.5q-79 0 -106 -17t-27 -63v-350h-90v484h90v-59q14 69 159 69q96 0 132 -34.5t36 -104.5v-355z" />
    <glyph glyph-name="o" unicode="o" horiz-adv-x="568" 
d="M506 321v-168q0 -45 -11 -76t-28 -48t-48.5 -26t-60 -11t-75.5 -2q-60 0 -93.5 4t-67 19.5t-48 49.5t-14.5 90v168q0 48 11.5 81t28 51t48.5 27.5t59.5 11.5t75.5 2t75.5 -2t59.5 -11.5t48.5 -27.5t28 -51t11.5 -81zM414 140v196q0 67 -27 83t-104 16t-104 -16t-27 -83
v-196q0 -32 7 -51t26 -27.5t39 -10.5t59 -2t59 2t39 10.5t26 27.5t7 51z" />
    <glyph glyph-name="p" unicode="p" horiz-adv-x="579" 
d="M519 158q0 -44 -13 -76t-32.5 -49.5t-51.5 -27.5t-60 -12.5t-68 -2.5t-78 10t-48 31v-239h-90v692h89v-52h1q11 62 165 62q97 0 141.5 -40.5t44.5 -96.5v-199zM427 147v178q0 67 -29 85.5t-103 18.5t-100.5 -18t-26.5 -86v-178q0 -61 27.5 -78.5t100.5 -17.5
q74 0 102.5 17.5t28.5 78.5z" />
    <glyph glyph-name="q" unicode="q" horiz-adv-x="579" 
d="M519 -208h-90v239q-20 -41 -146 -41q-43 0 -70.5 2.5t-55.5 12.5t-43.5 28t-25.5 49t-10 76v179q0 83 52 120t175 37q117 0 165.5 -36.5t48.5 -120.5v-545zM429 148v177q0 68 -26.5 86t-100.5 18q-89 0 -110.5 -18t-21.5 -86v-177q0 -61 28.5 -78.5t102.5 -17.5
q76 0 102 18.5t26 77.5z" />
    <glyph glyph-name="r" unicode="r" horiz-adv-x="351" 
d="M339 417h-50q-62 0 -91.5 -16t-29.5 -60v-341h-90v484h85v-79q0 35 43.5 62t88.5 27h44v-77z" />
    <glyph glyph-name="s" unicode="s" horiz-adv-x="483" 
d="M437 170v-42q0 -78 -54.5 -108t-156.5 -30q-78 0 -166 12v69q120 -19 168 -19q60 0 90 11.5t30 47.5v49q0 31 -21 44t-68 13h-55q-76 0 -115 31.5t-39 86.5v45q0 114 216 114q24 0 147 -8v-65q-86 14 -151 14q-72 0 -97.5 -14t-25.5 -47v-41q0 -49 89 -49h56
q153 0 153 -114z" />
    <glyph glyph-name="t" unicode="t" horiz-adv-x="402" 
d="M382 -2q-48 -8 -101 -8q-91 0 -127 31.5t-36 119.5v284h-108v59h108v150h91v-150h173v-59h-173v-289q0 -52 20 -69.5t81 -17.5q16 0 72 8v-59z" />
    <glyph glyph-name="u" unicode="u" horiz-adv-x="573" 
d="M495 0h-90v59q-14 -69 -159 -69q-96 0 -132 34.5t-36 104.5v355h90v-350q0 -18 3 -30t12.5 -24.5t32 -19t56.5 -6.5q75 0 104 14t29 51v365h90v-484z" />
    <glyph glyph-name="v" unicode="v" horiz-adv-x="463" 
d="M457 484l-169 -484h-108l-174 484h95l134 -406h5l130 406h87z" />
    <glyph glyph-name="w" unicode="w" horiz-adv-x="792" 
d="M780 484l-159 -484h-107l-117 391l-115 -391h-107l-163 484h99l118 -398h6l114 398h101l118 -398h6l114 398h92z" />
    <glyph glyph-name="x" unicode="x" horiz-adv-x="479" 
d="M469 0h-99l-131 191l-130 -191h-99l180 249l-170 235h99l120 -177l121 177h99l-170 -235z" />
    <glyph glyph-name="y" unicode="y" horiz-adv-x="460" 
d="M454 484l-243 -692h-94l76 201l-187 491h98l135 -395h2l122 395h91z" />
    <glyph glyph-name="z" unicode="z" horiz-adv-x="454" 
d="M420 0h-380v61l272 362h-262v61h364v-61l-272 -362h278v-61z" />
    <glyph glyph-name="braceleft" unicode="{" horiz-adv-x="330" 
d="M286 -190h-19q-21 0 -31.5 0.5t-28 3.5t-27 8.5t-21.5 16.5t-18 27t-10.5 40t-4.5 56v230q0 56 -9 68.5t-53 12.5v52q44 0 53 12.5t9 68.5v178q0 32 4.5 56t10.5 40t18 27t21.5 16.5t27 8.5t28 3.5t31.5 0.5h19v-48h-10q-25 0 -43 -17t-18 -48v-182q0 -61 -16.5 -92.5
t-62.5 -47.5v-4q46 -15 62.5 -46.5t16.5 -93.5v-234q0 -31 18 -48t43 -17h10v-48z" />
    <glyph glyph-name="bar" unicode="|" horiz-adv-x="335" 
d="M195 -10h-55v669h55v-669z" />
    <glyph glyph-name="braceright" unicode="}" horiz-adv-x="330" 
d="M63 -190h-19v48h10q25 0 43 17t18 48v234q0 62 16.5 93.5t62.5 46.5v4q-46 16 -62.5 47.5t-16.5 92.5v182q0 31 -18 48t-43 17h-10v48h19q21 0 31.5 -0.5t28 -3.5t27 -8.5t21.5 -16.5t18 -27t10.5 -40t4.5 -56v-178q0 -56 9 -68.5t53 -12.5v-52q-44 0 -53 -12.5t-9 -68.5
v-230q0 -32 -4.5 -56t-10.5 -40t-18 -27t-21.5 -16.5t-27 -8.5t-28 -3.5t-31.5 -0.5z" />
    <glyph glyph-name="asciitilde" unicode="~" 
d="M190 361q38 0 108.5 -29.5t94.5 -29.5q81 0 119 62v-81q-36 -46 -123 -46q-32 0 -102.5 29.5t-100.5 29.5q-42 0 -69.5 -14.5t-48.5 -46.5v81q37 45 122 45z" />
    <glyph glyph-name="exclamdown" unicode="&#xa1;" horiz-adv-x="280" 
d="M80 -165l35 470h50l35 -470h-120zM82 484h116v-108h-116v108z" />
    <glyph glyph-name="cent" unicode="&#xa2;" 
d="M352 -10h-57v83q-44 0 -73 5.5t-56.5 21t-41 48t-13.5 83.5v178q0 52 13 86t40.5 50.5t56.5 23t74 7.5v83h57v-83q64 -3 120 -14v-66q-85 20 -149 20q-76 0 -98 -16.5t-22 -77.5v-200q0 -54 25 -70t105 -16q71 0 146 19v-68q-49 -12 -127 -14v-83z" />
    <glyph glyph-name="sterling" unicode="&#xa3;" 
d="M536 0h-460v65h111v252h-111v62h111v92q0 60 12 97.5t39 57.5t61 26.5t88 6.5q59 0 101 -5v-60q-35 5 -68 5h-9q-83 0 -108.5 -22.5t-25.5 -99.5v-98h171v-62h-171v-252h259v-65z" />
    <glyph glyph-name="currency" unicode="&#xa4;" 
d="M539 339q0 -86 -62 -163l54 -54l-26 -26l-54 54q-78 -61 -163 -61q-82 0 -158 59l-54 -54l-26 26l54 54q-62 77 -62 163t62 163l-54 54l26 26l54 -54q76 59 158 59q90 0 163 -57l54 54l26 -26l-54 -54q62 -77 62 -163zM499 339q0 84 -60.5 145t-145.5 61
q-88 0 -149.5 -59.5t-61.5 -148.5q0 -87 61.5 -147.5t148.5 -60.5q86 0 146.5 62t60.5 148z" />
    <glyph glyph-name="yen" unicode="&#xa5;" 
d="M509 113h-169v-113h-97v113h-172v71h172v78l-8 13h-164v71h121l-184 303h111l172 -303h2l172 303h111l-186 -303h119v-71h-163l-6 -10v-81h169v-71z" />
    <glyph glyph-name="brokenbar" unicode="&#xa6;" horiz-adv-x="265" 
d="M160 298h-55v351h55v-351zM160 -190h-55v351h55v-351z" />
    <glyph glyph-name="section" unicode="&#xa7;" 
d="M155 307v-79q0 -49 110 -49h77q42 0 62.5 13t20.5 46v67q0 57 -99 57h-85q-47 0 -66.5 -12t-19.5 -43zM494 74v-51q0 -78 -59 -108t-163 -30q-86 0 -176 12v69q92 -17 178 -17q62 0 96.5 11.5t34.5 47.5v47q0 31 -21 44t-68 13h-87q-77 0 -120 31.5t-43 86.5v75
q0 58 66 85q-46 25 -46 80v55q0 114 226 114q86 0 157 -13v-64q-78 16 -161 16q-73 0 -103 -14.5t-30 -46.5v-39q0 -49 90 -49h95q154 0 154 -114v-62q0 -38 -19 -64.5t-47 -34.5q46 -32 46 -80z" />
    <glyph glyph-name="dieresis" unicode="&#xa8;" horiz-adv-x="320" 
d="M120 565h-90v94h90v-94zM290 565h-90v94h90v-94z" />
    <glyph glyph-name="copyright" unicode="&#xa9;" horiz-adv-x="717" 
d="M213 263v136q0 61 37.5 91t121.5 30t116.5 -26.5t32.5 -84.5v-27h-73v19q0 40 -14.5 51.5t-64.5 11.5q-47 0 -62.5 -14t-15.5 -59v-120q0 -47 15 -60t63 -13q55 0 67 10.5t12 52.5v20h73v-28q0 -57 -31 -84t-118 -27q-89 0 -124 25.5t-35 95.5zM677 474v-308
q0 -53 -30 -90t-80 -54.5t-97 -24.5t-98 -7q-41 0 -79 3.5t-82 15t-76 30t-53.5 51.5t-21.5 76v307q0 57 31.5 96.5t84 57.5t99 25t97.5 7q40 0 77 -3.5t80.5 -15.5t74.5 -31t52 -54t21 -81zM598 164v317q0 36 -22 61.5t-58.5 37t-71.5 16.5t-73 5q-39 0 -75.5 -5t-75 -16.5
t-61.5 -37t-23 -61.5v-317q0 -33 23.5 -56.5t62.5 -35t75.5 -16t74.5 -4.5q35 0 68 4t71 14.5t61.5 34.5t23.5 59z" />
    <glyph glyph-name="ordfeminine" unicode="&#xaa;" horiz-adv-x="318" 
d="M283 376h-65v27q-20 -32 -75 -32q-60 0 -84 17.5t-24 71.5q0 47 22.5 65.5t84.5 18.5h74v38q0 19 -12.5 26.5t-45.5 7.5q-50 0 -102 -6v45q62 5 109 5q74 0 96 -17.5t22 -72.5v-194zM216 433v72h-71q-27 0 -34.5 -9t-7.5 -38q0 -26 7.5 -36.5t30.5 -10.5h11q64 0 64 22z
M35 273v56h248v-56h-248z" />
    <glyph glyph-name="guillemotleft" unicode="&#xab;" horiz-adv-x="426" 
d="M216 70h-76l-100 192l100 192h76l-92 -192zM386 70h-76l-100 192l100 192h76l-92 -192z" />
    <glyph glyph-name="logicalnot" unicode="&#xac;" horiz-adv-x="500" 
d="M60 349h380v-234h-67v167h-313v67z" />
    <glyph glyph-name="uni00AD" unicode="&#xad;" horiz-adv-x="240" 
d="M241 233h-241v63h241v-63z" />
    <glyph glyph-name="registered" unicode="&#xae;" horiz-adv-x="717" 
d="M677 474v-308q0 -53 -30 -90t-80 -54.5t-97 -24.5t-98 -7q-41 0 -79 3.5t-82 15t-76 30t-53.5 51.5t-21.5 76v307q0 57 31.5 96.5t84 57.5t99 25t97.5 7q40 0 77 -3.5t80.5 -15.5t74.5 -31t52 -54t21 -81zM598 164v317q0 36 -22 61.5t-58.5 37t-71.5 16.5t-73 5
q-39 0 -75.5 -5t-75 -16.5t-61.5 -37t-23 -61.5v-317q0 -33 23.5 -56.5t62.5 -35t75.5 -16t74.5 -4.5q35 0 68 4t71 14.5t61.5 34.5t23.5 59zM539 130h-82l-101 156h-47v-156h-68v389h137q76 0 106.5 -15t30.5 -61v-75q0 -37 -25.5 -56t-65.5 -19zM446 373v64q0 21 -13 27.5
t-52 6.5h-72v-137h67q43 0 56.5 6.5t13.5 32.5z" />
    <glyph glyph-name="macron" unicode="&#xaf;" horiz-adv-x="298" 
d="M258 590h-218v59h218v-59z" />
    <glyph glyph-name="degree" unicode="&#xb0;" horiz-adv-x="407" 
d="M347 549v-79q0 -27 -7.5 -45.5t-19 -28.5t-32 -15.5t-38 -6.5t-46.5 -1t-46.5 1t-38.5 6.5t-32 15.5t-19 28.5t-8 45.5v79q0 68 36.5 89t107.5 21t107 -21t36 -89zM277 470v87q0 36 -15.5 45t-57.5 9t-58 -9t-16 -45v-87q0 -23 9.5 -34t23 -13t41.5 -2t41 2t22.5 13
t9.5 34z" />
    <glyph glyph-name="plusminus" unicode="&#xb1;" horiz-adv-x="500" 
d="M283 515v-166h157v-67h-157v-167h-67v167h-156v67h156v166h67zM440 0h-380v67h380v-67z" />
    <glyph glyph-name="twosuperior" unicode="&#xb2;" horiz-adv-x="378" 
d="M338 273h-297v81q0 35 23 58.5t55 35.5t64.5 21.5t55.5 23.5t23 34v44q0 32 -93 32q-46 0 -117 -13v57q68 11 127 11q84 0 120.5 -18t36.5 -64v-60q0 -35 -35 -60t-77.5 -36t-77.5 -26.5t-35 -33.5v-29h227v-58z" />
    <glyph glyph-name="threesuperior" unicode="&#xb3;" horiz-adv-x="378" 
d="M189 448h-77v49h77q37 0 55.5 6.5t18.5 25.5v40q0 20 -19.5 27.5t-63.5 7.5q-39 0 -119 -6v56q70 5 128 5q148 0 148 -73v-59q0 -39 -54 -51l1 -1q66 -13 66 -64v-53q0 -48 -39.5 -67.5t-121.5 -19.5q-68 0 -142 8v60q70 -14 142 -14q86 0 86 40v43q0 22 -20.5 31
t-65.5 9z" />
    <glyph glyph-name="acute" unicode="&#xb4;" horiz-adv-x="239" 
d="M219 680l-125 -127h-74l90 127h109z" />
    <glyph glyph-name="mu" unicode="&#xb5;" horiz-adv-x="573" 
d="M495 0h-88v59q-17 -69 -161 -69q-44 0 -78 8v-207h-90v693h90v-350q0 -18 3 -30t12.5 -24.5t32 -19t56.5 -6.5q75 0 104 14t29 51v365h90v-484z" />
    <glyph glyph-name="paragraph" unicode="&#xb6;" horiz-adv-x="573" 
d="M499 633l-23 -17q-21 -16 -21 -37v-765h-53v792h-150v-792h-53v538q-100 0 -129.5 27.5t-29.5 121.5q0 86 22.5 117t84.5 31h352v-16z" />
    <glyph glyph-name="periodcentered" unicode="&#xb7;" horiz-adv-x="256" 
d="M186 280h-116v108h116v-108z" />
    <glyph glyph-name="cedilla" unicode="&#xb8;" horiz-adv-x="237" 
d="M91 0h63l-26 -52q37 -1 65 -20.5t28 -57.5q0 -44 -34 -67t-79 -23q-49 0 -81 19l21 45q30 -17 58 -17q47 0 47 40q0 19 -22 30t-56 11h-33q23 39 49 92z" />
    <glyph glyph-name="onesuperior" unicode="&#xb9;" horiz-adv-x="378" 
d="M257 273h-71v298l-111 -71v68l120 81h62v-376z" />
    <glyph glyph-name="ordmasculine" unicode="&#xba;" horiz-adv-x="336" 
d="M302 558v-93q0 -32 -9 -52t-29.5 -28.5t-40.5 -11t-55 -2.5q-28 0 -45 1t-36 6.5t-29 15t-17 27.5t-7 44v93q0 35 9 56.5t29.5 31t40.5 12t55 2.5t55 -2.5t40.5 -12t29.5 -31t9 -56.5zM232 458v109q0 35 -13.5 43.5t-50.5 8.5q-39 0 -52.5 -8.5t-13.5 -43.5v-109
q0 -31 14 -38.5t52 -7.5q37 0 50.5 7.5t13.5 38.5zM35 273v56h267v-56h-267z" />
    <glyph glyph-name="guillemotright" unicode="&#xbb;" horiz-adv-x="426" 
d="M216 262l-100 -192h-76l92 192l-92 192h76zM386 262l-100 -192h-76l92 192l-92 192h76z" />
    <glyph glyph-name="onequarter" unicode="&#xbc;" horiz-adv-x="956" 
d="M329 273h-71v298l-111 -71v68l120 81h62v-376zM232 0l412 649h81l-412 -649h-81zM908 85h-48v-85h-72v85h-220v50l209 241h83v-240h48v-51zM788 136l-1 169l-145 -169h146z" />
    <glyph glyph-name="onehalf" unicode="&#xbd;" horiz-adv-x="956" 
d="M329 273h-71v298l-111 -71v68l120 81h62v-376zM232 0l412 649h81l-412 -649h-81zM892 0h-297v81q0 35 23 58.5t55.5 35.5t64.5 21.5t55 23.5t23 34v44q0 32 -93 32q-46 0 -117 -13v57q68 11 127 11q84 0 120.5 -18t36.5 -64v-60q0 -35 -35 -60t-77.5 -36t-77.5 -26.5
t-35 -33.5v-29h227v-58z" />
    <glyph glyph-name="threequarters" unicode="&#xbe;" horiz-adv-x="956" 
d="M189 448h-77v49h77q37 0 55.5 6.5t18.5 25.5v40q0 20 -19.5 27.5t-63.5 7.5q-39 0 -119 -6v56q70 5 128 5q148 0 148 -73v-59q0 -39 -54 -51l1 -1q66 -13 66 -64v-53q0 -48 -39.5 -67.5t-121.5 -19.5q-68 0 -142 8v60q70 -14 142 -14q86 0 86 40v43q0 22 -20.5 31
t-65.5 9zM908 85h-48v-85h-72v85h-220v50l209 241h83v-240h48v-51zM788 136l-1 169l-145 -169h146zM232 0l412 649h81l-412 -649h-81z" />
    <glyph glyph-name="questiondown" unicode="&#xbf;" horiz-adv-x="533" 
d="M334 313v-24q0 -54 -18.5 -90.5t-44.5 -55.5t-52 -35.5t-44.5 -42t-18.5 -62.5v-30q0 -47 30 -62t96 -15q70 0 191 21v-73q-105 -19 -210 -19q-107 0 -155 32t-48 109v50q0 45 19 78t46 52.5t54 36t46 38t19 49.5v43h90zM232 484h116v-108h-116v108z" />
    <glyph glyph-name="Agrave" unicode="&#xc0;" horiz-adv-x="652" 
d="M637 0h-101l-74 197h-278l-73 -197h-96l258 649h112zM438 264l-110 293h-9l-110 -293h229zM359 693h-74l-125 127h109z" />
    <glyph glyph-name="Aacute" unicode="&#xc1;" horiz-adv-x="652" 
d="M637 0h-101l-74 197h-278l-73 -197h-96l258 649h112zM438 264l-110 293h-9l-110 -293h229zM469 830l-125 -127h-74l90 127h109z" />
    <glyph glyph-name="Acircumflex" unicode="&#xc2;" horiz-adv-x="652" 
d="M637 0h-101l-74 197h-278l-73 -197h-96l258 649h112zM438 264l-110 293h-9l-110 -293h229zM210 703l68 127h107l66 -127h-58l-62 87l-63 -87h-58z" />
    <glyph glyph-name="Atilde" unicode="&#xc3;" horiz-adv-x="652" 
d="M637 0h-101l-74 197h-278l-73 -197h-96l258 649h112zM438 264l-110 293h-9l-110 -293h229zM255 793q24 0 65 -17t60 -17q22 0 36 10.5t29 32.5v-69q-23 -39 -65 -39q-26 0 -66 18t-59 18q-40 0 -65 -39v73q24 29 65 29z" />
    <glyph glyph-name="Adieresis" unicode="&#xc4;" horiz-adv-x="652" 
d="M637 0h-101l-74 197h-278l-73 -197h-96l258 649h112zM438 264l-110 293h-9l-110 -293h229zM280 715h-90v94h90v-94zM450 715h-90v94h90v-94z" />
    <glyph glyph-name="Aring" unicode="&#xc5;" horiz-adv-x="652" 
d="M637 0h-101l-74 198h-277l-74 -198h-96l227 560q-57 17 -57 86v13q0 29 7.5 48.5t18.5 30.5t31.5 16.5t37.5 6.5t46 1t46 -1t37.5 -6.5t31.5 -16.5t18.5 -30.5t7.5 -48.5v-13q0 -64 -52 -85zM400 643v14q0 34 -16.5 43t-57.5 9t-57.5 -9t-16.5 -43v-14q0 -31 17 -39
t57 -8q27 0 40.5 2t23.5 12.5t10 32.5zM438 264l-106 281h-17l-106 -281h229z" />
    <glyph glyph-name="AE" unicode="&#xc6;" horiz-adv-x="923" 
d="M873 0h-416v197h-246l-102 -197h-109l358 649h505v-68h-309v-212h276v-68h-276v-233h319v-68zM457 264v317h-48l-164 -317h212z" />
    <glyph glyph-name="Ccedilla" unicode="&#xc7;" horiz-adv-x="564" 
d="M519 9q-78 -17 -160 -19l-21 -42q37 -1 65 -20.5t28 -57.5q0 -44 -34 -67t-79 -23q-49 0 -81 19l21 45q30 -17 58 -17q47 0 47 40q0 19 -22 30t-56 11h-33q22 38 45 83q-233 13 -233 175v308q0 186 273 186q91 0 178 -19v-72q-96 24 -176 24q-38 0 -67 -4.5t-57 -16
t-43 -36t-15 -61.5v-304q0 -112 186 -112q80 0 176 24v-74z" />
    <glyph glyph-name="Egrave" unicode="&#xc8;" 
d="M530 0h-446v649h436v-68h-339v-212h306v-68h-306v-233h349v-68zM349 703h-74l-125 127h109z" />
    <glyph glyph-name="Eacute" unicode="&#xc9;" 
d="M530 0h-446v649h436v-68h-339v-212h306v-68h-306v-233h349v-68zM419 830l-125 -127h-74l90 127h109z" />
    <glyph glyph-name="Ecircumflex" unicode="&#xca;" 
d="M530 0h-446v649h436v-68h-339v-212h306v-68h-306v-233h349v-68zM180 703l68 127h107l66 -127h-58l-62 87l-63 -87h-58z" />
    <glyph glyph-name="Edieresis" unicode="&#xcb;" 
d="M530 0h-446v649h436v-68h-339v-212h306v-68h-306v-233h349v-68zM266 715h-90v94h90v-94zM436 715h-90v94h90v-94z" />
    <glyph glyph-name="Igrave" unicode="&#xcc;" horiz-adv-x="265" 
d="M181 0h-97v649h97v-649zM173 703h-74l-125 127h109z" />
    <glyph glyph-name="Iacute" unicode="&#xcd;" horiz-adv-x="265" 
d="M181 0h-97v649h97v-649zM283 830l-125 -127h-74l90 127h109z" />
    <glyph glyph-name="Icircumflex" unicode="&#xce;" horiz-adv-x="265" 
d="M181 0h-97v649h97v-649zM11 703l68 127h107l66 -127h-58l-62 87l-63 -87h-58z" />
    <glyph glyph-name="Idieresis" unicode="&#xcf;" horiz-adv-x="265" 
d="M181 0h-97v649h97v-649zM94 715h-90v94h90v-94zM264 715h-90v94h90v-94z" />
    <glyph glyph-name="Eth" unicode="&#xd0;" horiz-adv-x="679" 
d="M84 301h-64v68h64v280h258q273 0 273 -186v-287q0 -176 -272 -176h-259v301zM287 301h-106v-235h155q186 0 186 112v286q0 37 -15 61.5t-42.5 36t-56.5 16t-67 4.5h-160v-213h106v-68z" />
    <glyph glyph-name="Ntilde" unicode="&#xd1;" horiz-adv-x="723" 
d="M639 0h-117l-353 545v-545h-85v649h117l353 -536v536h85v-649zM299 793q24 0 65 -17t60 -17q22 0 36 10.5t29 32.5v-69q-23 -39 -65 -39q-26 0 -66 18t-59 18q-40 0 -65 -39v73q24 29 65 29z" />
    <glyph glyph-name="Ograve" unicode="&#xd2;" horiz-adv-x="679" 
d="M613 474v-308q0 -53 -25.5 -90t-69.5 -54.5t-87 -24.5t-93 -7q-272 0 -272 176v307q0 186 272 186q275 0 275 -185zM519 167v309q0 120 -180 120q-38 0 -67 -4.5t-56 -17t-42 -37t-15 -61.5v-309q0 -112 181 -112q179 0 179 112zM369 703h-74l-125 127h109z" />
    <glyph glyph-name="Oacute" unicode="&#xd3;" horiz-adv-x="679" 
d="M613 474v-308q0 -53 -25.5 -90t-69.5 -54.5t-87 -24.5t-93 -7q-272 0 -272 176v307q0 186 272 186q275 0 275 -185zM519 167v309q0 120 -180 120q-38 0 -67 -4.5t-56 -17t-42 -37t-15 -61.5v-309q0 -112 181 -112q179 0 179 112zM469 830l-125 -127h-74l90 127h109z" />
    <glyph glyph-name="Ocircumflex" unicode="&#xd4;" horiz-adv-x="679" 
d="M613 474v-308q0 -53 -25.5 -90t-69.5 -54.5t-87 -24.5t-93 -7q-272 0 -272 176v307q0 186 272 186q275 0 275 -185zM519 167v309q0 120 -180 120q-38 0 -67 -4.5t-56 -17t-42 -37t-15 -61.5v-309q0 -112 181 -112q179 0 179 112zM220 703l68 127h107l66 -127h-58l-62 87
l-63 -87h-58z" />
    <glyph glyph-name="Otilde" unicode="&#xd5;" horiz-adv-x="679" 
d="M613 474v-308q0 -53 -25.5 -90t-69.5 -54.5t-87 -24.5t-93 -7q-272 0 -272 176v307q0 186 272 186q275 0 275 -185zM519 167v309q0 120 -180 120q-38 0 -67 -4.5t-56 -17t-42 -37t-15 -61.5v-309q0 -112 181 -112q179 0 179 112zM245 793q24 0 65 -17t60 -17
q22 0 36 10.5t29 32.5v-69q-23 -39 -65 -39q-26 0 -66 18t-59 18q-40 0 -65 -39v73q24 29 65 29z" />
    <glyph glyph-name="Odieresis" unicode="&#xd6;" horiz-adv-x="679" 
d="M613 474v-308q0 -53 -25.5 -90t-69.5 -54.5t-87 -24.5t-93 -7q-272 0 -272 176v307q0 186 272 186q275 0 275 -185zM519 167v309q0 120 -180 120q-38 0 -67 -4.5t-56 -17t-42 -37t-15 -61.5v-309q0 -112 181 -112q179 0 179 112zM290 715h-90v94h90v-94zM460 715h-90v94
h90v-94z" />
    <glyph glyph-name="multiply" unicode="&#xd7;" horiz-adv-x="500" 
d="M118 494l131 -132l133 133l47 -48l-132 -132l132 -132l-47 -48l-133 132l-131 -131l-48 47l132 132l-132 132z" />
    <glyph glyph-name="Oslash" unicode="&#xd8;" horiz-adv-x="679" 
d="M613 474v-308q0 -53 -25.5 -90t-69.5 -54.5t-87 -24.5t-93 -7q-272 0 -272 176v307q0 186 272 186q275 0 275 -185zM159 167q0 -19 2 -27l314 426q-44 30 -136 30q-38 0 -67 -4.5t-56 -17t-42 -37t-15 -61.5v-309zM519 167v309q0 16 -3 31l-313 -424q43 -28 137 -28
q179 0 179 112z" />
    <glyph glyph-name="Ugrave" unicode="&#xd9;" horiz-adv-x="676" 
d="M591 649v-483q0 -176 -254 -176q-51 0 -91 6.5t-79 24t-61 54.5t-22 91v483h93v-482q0 -64 43 -88t119 -24t117.5 24t41.5 88v482h93zM400 703h-74l-125 127h109z" />
    <glyph glyph-name="Uacute" unicode="&#xda;" horiz-adv-x="676" 
d="M591 649v-483q0 -176 -254 -176q-51 0 -91 6.5t-79 24t-61 54.5t-22 91v483h93v-482q0 -64 43 -88t119 -24t117.5 24t41.5 88v482h93zM460 830l-125 -127h-74l90 127h109z" />
    <glyph glyph-name="Ucircumflex" unicode="&#xdb;" horiz-adv-x="676" 
d="M591 649v-483q0 -176 -254 -176q-51 0 -91 6.5t-79 24t-61 54.5t-22 91v483h93v-482q0 -64 43 -88t119 -24t117.5 24t41.5 88v482h93zM211 703l68 127h107l66 -127h-58l-62 87l-63 -87h-58z" />
    <glyph glyph-name="Udieresis" unicode="&#xdc;" horiz-adv-x="676" 
d="M591 649v-483q0 -176 -254 -176q-51 0 -91 6.5t-79 24t-61 54.5t-22 91v483h93v-482q0 -64 43 -88t119 -24t117.5 24t41.5 88v482h93zM291 715h-90v94h90v-94zM461 715h-90v94h90v-94z" />
    <glyph glyph-name="Yacute" unicode="&#xdd;" horiz-adv-x="584" 
d="M576 649l-236 -384v-265h-97v262l-235 387h111l173 -305l173 305h111zM419 830l-125 -127h-74l90 127h109z" />
    <glyph glyph-name="Thorn" unicode="&#xde;" horiz-adv-x="570" 
d="M181 473v-293h110q58 0 98.5 21.5t40.5 74.5v118q0 27 -14 44.5t-40 24.5t-43.5 8.5t-43.5 1.5h-108zM181 0h-97v649h97v-115h115q40 0 69 -2t61.5 -9.5t52 -21t33 -37.5t13.5 -58v-135q0 -83 -64.5 -117.5t-182.5 -34.5h-97v-119z" />
    <glyph glyph-name="germandbls" unicode="&#xdf;" horiz-adv-x="602" 
d="M542 238v-109q0 -71 -54 -100t-176 -29h-60v64h65q73 0 103 15t30 51v101q0 26 -10.5 41.5t-33 22t-40 8t-49.5 1.5h-65v61h61q62 0 88 18.5t26 58.5v86q0 36 -29 51.5t-93 15.5q-84 0 -109.5 -18t-25.5 -83v-494h-92v474q0 108 48 146.5t179 38.5q84 0 131.5 -17t62 -42
t14.5 -64v-97q0 -41 -21.5 -61.5t-64.5 -30.5v-4q52 -9 83.5 -35.5t31.5 -69.5z" />
    <glyph glyph-name="agrave" unicode="&#xe0;" horiz-adv-x="538" 
d="M460 0h-87v46q-11 -56 -146 -56q-100 0 -138.5 30.5t-38.5 123.5q0 81 36 111.5t139 30.5h145v77q0 40 -24.5 54t-92.5 14q-74 0 -166 -12v66q99 9 179 9q122 0 158 -29.5t36 -122.5v-342zM370 98v132h-139q-62 0 -77.5 -16t-15.5 -73q0 -51 16.5 -71.5t69.5 -20.5h18
q26 0 43.5 1t39.5 5.5t33.5 15t11.5 27.5zM319 553h-74l-125 127h109z" />
    <glyph glyph-name="aacute" unicode="&#xe1;" horiz-adv-x="538" 
d="M460 0h-87v46q-11 -56 -146 -56q-100 0 -138.5 30.5t-38.5 123.5q0 81 36 111.5t139 30.5h145v77q0 40 -24.5 54t-92.5 14q-74 0 -166 -12v66q99 9 179 9q122 0 158 -29.5t36 -122.5v-342zM370 98v132h-139q-62 0 -77.5 -16t-15.5 -73q0 -51 16.5 -71.5t69.5 -20.5h18
q26 0 43.5 1t39.5 5.5t33.5 15t11.5 27.5zM389 680l-125 -127h-74l90 127h109z" />
    <glyph glyph-name="acircumflex" unicode="&#xe2;" horiz-adv-x="538" 
d="M460 0h-87v46q-11 -56 -146 -56q-100 0 -138.5 30.5t-38.5 123.5q0 81 36 111.5t139 30.5h145v77q0 40 -24.5 54t-92.5 14q-74 0 -166 -12v66q99 9 179 9q122 0 158 -29.5t36 -122.5v-342zM370 98v132h-139q-62 0 -77.5 -16t-15.5 -73q0 -51 16.5 -71.5t69.5 -20.5h18
q26 0 43.5 1t39.5 5.5t33.5 15t11.5 27.5zM140 553l68 127h107l66 -127h-58l-62 87l-63 -87h-58z" />
    <glyph glyph-name="atilde" unicode="&#xe3;" horiz-adv-x="538" 
d="M460 0h-87v46q-11 -56 -146 -56q-100 0 -138.5 30.5t-38.5 123.5q0 81 36 111.5t139 30.5h145v77q0 40 -24.5 54t-92.5 14q-74 0 -166 -12v66q99 9 179 9q122 0 158 -29.5t36 -122.5v-342zM370 98v132h-139q-62 0 -77.5 -16t-15.5 -73q0 -51 16.5 -71.5t69.5 -20.5h18
q26 0 43.5 1t39.5 5.5t33.5 15t11.5 27.5zM207 643q24 0 65 -17t60 -17q22 0 36 10.5t29 32.5v-69q-23 -39 -65 -39q-26 0 -66 18t-59 18q-40 0 -65 -39v73q24 29 65 29z" />
    <glyph glyph-name="adieresis" unicode="&#xe4;" horiz-adv-x="538" 
d="M460 0h-87v46q-11 -56 -146 -56q-100 0 -138.5 30.5t-38.5 123.5q0 81 36 111.5t139 30.5h145v77q0 40 -24.5 54t-92.5 14q-74 0 -166 -12v66q99 9 179 9q122 0 158 -29.5t36 -122.5v-342zM370 98v132h-139q-62 0 -77.5 -16t-15.5 -73q0 -51 16.5 -71.5t69.5 -20.5h18
q26 0 43.5 1t39.5 5.5t33.5 15t11.5 27.5zM220 565h-90v94h90v-94zM390 565h-90v94h90v-94z" />
    <glyph glyph-name="aring" unicode="&#xe5;" horiz-adv-x="538" 
d="M460 0h-87v46q-11 -56 -146 -56q-100 0 -138.5 30.5t-38.5 123.5q0 81 36 111.5t139 30.5h145v77q0 40 -24.5 54t-92.5 14q-74 0 -166 -12v66q99 9 179 9q122 0 158 -29.5t36 -122.5v-342zM370 98v132h-139q-62 0 -77.5 -16t-15.5 -73q0 -51 16.5 -71.5t69.5 -20.5h18
q26 0 43.5 1t39.5 5.5t33.5 15t11.5 27.5zM402 663v-12q0 -34 -8.5 -54.5t-29 -29.5t-40.5 -11.5t-56 -2.5t-55.5 2.5t-40 11.5t-29 29.5t-8.5 54.5v12q0 36 8.5 58t29 31.5t40 12t55.5 2.5q28 0 45 -1.5t36 -7t29 -16t17 -30.5t7 -49zM339 644v27q0 36 -15 45t-56 9
t-55.5 -9t-14.5 -45v-27q0 -33 14.5 -41t55.5 -8t56 8t15 41z" />
    <glyph glyph-name="ae" unicode="&#xe6;" horiz-adv-x="840" 
d="M781 222h-315v-73q0 -51 33.5 -72.5t104.5 -21.5q64 0 158 24v-69q-91 -20 -173 -20q-127 0 -181 57q-14 -57 -178 -57q-105 0 -142.5 29.5t-37.5 120.5q0 84 35.5 115t139.5 31h150v75q0 38 -25.5 54t-88.5 16q-110 0 -174 -17v66q75 14 186 14q119 0 158 -35
q49 35 153 35t150.5 -36t46.5 -129v-107zM691 281v76q0 45 -24.5 61t-86.5 16q-59 0 -86.5 -16t-27.5 -61v-76h225zM375 109v121h-144q-62 0 -77.5 -16t-15.5 -73q0 -54 16.5 -74t79.5 -20q28 0 43 0.5t37 4t33 9.5t19.5 18t8.5 30z" />
    <glyph glyph-name="ccedilla" unicode="&#xe7;" horiz-adv-x="464" 
d="M428 4q-58 -11 -124 -13l-21 -43q37 -1 65 -20.5t28 -57.5q0 -44 -34 -67t-79 -23q-49 0 -81 19l21 45q30 -17 58 -17q47 0 47 40q0 19 -22 30t-56 11h-33q24 41 44 82q-35 1 -58.5 4t-48.5 12.5t-40 26t-24.5 45.5t-9.5 70v178q0 40 7.5 69t23.5 47t33 29t46.5 15.5
t52 6t60.5 1.5q69 0 138 -15v-66q-78 20 -149 20q-77 0 -98.5 -16t-21.5 -78v-200q0 -53 25 -69.5t105 -16.5q71 0 146 19v-68z" />
    <glyph glyph-name="egrave" unicode="&#xe8;" horiz-adv-x="535" 
d="M476 222h-325v-73q0 -51 36 -72.5t107 -21.5q69 0 163 24v-69q-90 -20 -175 -20q-222 0 -222 148v191q0 89 51 127t163 38q105 0 153.5 -36.5t48.5 -128.5v-107zM386 281v76q0 44 -27 60.5t-90 16.5q-60 0 -89 -16t-29 -61v-76h235zM319 553h-74l-125 127h109z" />
    <glyph glyph-name="eacute" unicode="&#xe9;" horiz-adv-x="535" 
d="M476 222h-325v-73q0 -51 36 -72.5t107 -21.5q69 0 163 24v-69q-90 -20 -175 -20q-222 0 -222 148v191q0 89 51 127t163 38q105 0 153.5 -36.5t48.5 -128.5v-107zM386 281v76q0 44 -27 60.5t-90 16.5q-60 0 -89 -16t-29 -61v-76h235zM399 680l-125 -127h-74l90 127h109z
" />
    <glyph glyph-name="ecircumflex" unicode="&#xea;" horiz-adv-x="535" 
d="M476 222h-325v-73q0 -51 36 -72.5t107 -21.5q69 0 163 24v-69q-90 -20 -175 -20q-222 0 -222 148v191q0 89 51 127t163 38q105 0 153.5 -36.5t48.5 -128.5v-107zM386 281v76q0 44 -27 60.5t-90 16.5q-60 0 -89 -16t-29 -61v-76h235zM140 553l68 127h107l66 -127h-58
l-62 87l-63 -87h-58z" />
    <glyph glyph-name="edieresis" unicode="&#xeb;" horiz-adv-x="535" 
d="M476 222h-325v-73q0 -51 36 -72.5t107 -21.5q69 0 163 24v-69q-90 -20 -175 -20q-222 0 -222 148v191q0 89 51 127t163 38q105 0 153.5 -36.5t48.5 -128.5v-107zM386 281v76q0 44 -27 60.5t-90 16.5q-60 0 -89 -16t-29 -61v-76h235zM220 565h-90v94h90v-94zM390 565h-90
v94h90v-94z" />
    <glyph glyph-name="igrave" unicode="&#xec;" horiz-adv-x="246" 
d="M169 0h-90v484h90v-484zM225 553h-74l-125 127h109z" />
    <glyph glyph-name="iacute" unicode="&#xed;" horiz-adv-x="246" 
d="M169 0h-90v484h90v-484zM278 680l-125 -127h-74l90 127h109z" />
    <glyph glyph-name="icircumflex" unicode="&#xee;" horiz-adv-x="246" 
d="M169 0h-90v484h90v-484zM7 553l68 127h107l66 -127h-58l-62 87l-63 -87h-58z" />
    <glyph glyph-name="idieresis" unicode="&#xef;" horiz-adv-x="246" 
d="M169 0h-90v484h90v-484zM85 565h-90v94h90v-94zM255 565h-90v94h90v-94z" />
    <glyph glyph-name="eth" unicode="&#xf0;" horiz-adv-x="568" 
d="M189 565v57l76 23q-17 19 -53 55h106l31 -30l101 30v-57l-61 -18q115 -140 115 -304v-168q0 -46 -10 -76.5t-25.5 -47.5t-46.5 -26t-60 -11t-79 -2q-51 0 -80 2t-60 11t-46 26t-25 47.5t-10 76.5v168q0 47 10 79t26 50.5t46 28t60.5 12.5t78.5 3q57 0 93 -4
q-31 60 -71 109zM414 140v196q0 67 -27 83.5t-104 16.5t-104 -16.5t-27 -83.5v-196q0 -61 28 -76.5t103 -15.5t103 15.5t28 76.5z" />
    <glyph glyph-name="ntilde" unicode="&#xf1;" horiz-adv-x="573" 
d="M495 0h-90v350q0 18 -3 30t-12.5 24.5t-32 19t-56.5 6.5q-79 0 -106 -17t-27 -63v-350h-90v484h90v-59q14 69 159 69q96 0 132 -34.5t36 -104.5v-355zM215 643q24 0 65 -17t60 -17q22 0 36 10.5t29 32.5v-69q-23 -39 -65 -39q-26 0 -66 18t-59 18q-40 0 -65 -39v73
q24 29 65 29z" />
    <glyph glyph-name="ograve" unicode="&#xf2;" horiz-adv-x="568" 
d="M506 321v-168q0 -45 -11 -76t-28 -48t-48.5 -26t-60 -11t-75.5 -2q-60 0 -93.5 4t-67 19.5t-48 49.5t-14.5 90v168q0 48 11.5 81t28 51t48.5 27.5t59.5 11.5t75.5 2t75.5 -2t59.5 -11.5t48.5 -27.5t28 -51t11.5 -81zM414 140v196q0 67 -27 83t-104 16t-104 -16t-27 -83
v-196q0 -32 7 -51t26 -27.5t39 -10.5t59 -2t59 2t39 10.5t26 27.5t7 51zM329 553h-74l-125 127h109z" />
    <glyph glyph-name="oacute" unicode="&#xf3;" horiz-adv-x="568" 
d="M506 321v-168q0 -45 -11 -76t-28 -48t-48.5 -26t-60 -11t-75.5 -2q-60 0 -93.5 4t-67 19.5t-48 49.5t-14.5 90v168q0 48 11.5 81t28 51t48.5 27.5t59.5 11.5t75.5 2t75.5 -2t59.5 -11.5t48.5 -27.5t28 -51t11.5 -81zM414 140v196q0 67 -27 83t-104 16t-104 -16t-27 -83
v-196q0 -32 7 -51t26 -27.5t39 -10.5t59 -2t59 2t39 10.5t26 27.5t7 51zM409 680l-125 -127h-74l90 127h109z" />
    <glyph glyph-name="ocircumflex" unicode="&#xf4;" horiz-adv-x="568" 
d="M506 321v-168q0 -45 -11 -76t-28 -48t-48.5 -26t-60 -11t-75.5 -2q-60 0 -93.5 4t-67 19.5t-48 49.5t-14.5 90v168q0 48 11.5 81t28 51t48.5 27.5t59.5 11.5t75.5 2t75.5 -2t59.5 -11.5t48.5 -27.5t28 -51t11.5 -81zM414 140v196q0 67 -27 83t-104 16t-104 -16t-27 -83
v-196q0 -32 7 -51t26 -27.5t39 -10.5t59 -2t59 2t39 10.5t26 27.5t7 51zM164 553l68 127h107l66 -127h-58l-62 87l-63 -87h-58z" />
    <glyph glyph-name="otilde" unicode="&#xf5;" horiz-adv-x="568" 
d="M506 321v-168q0 -45 -11 -76t-28 -48t-48.5 -26t-60 -11t-75.5 -2q-60 0 -93.5 4t-67 19.5t-48 49.5t-14.5 90v168q0 48 11.5 81t28 51t48.5 27.5t59.5 11.5t75.5 2t75.5 -2t59.5 -11.5t48.5 -27.5t28 -51t11.5 -81zM414 140v196q0 67 -27 83t-104 16t-104 -16t-27 -83
v-196q0 -32 7 -51t26 -27.5t39 -10.5t59 -2t59 2t39 10.5t26 27.5t7 51zM222 643q24 0 65 -17t60 -17q22 0 36 10.5t29 32.5v-69q-23 -39 -65 -39q-26 0 -66 18t-59 18q-40 0 -65 -39v73q24 29 65 29z" />
    <glyph glyph-name="odieresis" unicode="&#xf6;" horiz-adv-x="568" 
d="M506 321v-168q0 -45 -11 -76t-28 -48t-48.5 -26t-60 -11t-75.5 -2q-60 0 -93.5 4t-67 19.5t-48 49.5t-14.5 90v168q0 48 11.5 81t28 51t48.5 27.5t59.5 11.5t75.5 2t75.5 -2t59.5 -11.5t48.5 -27.5t28 -51t11.5 -81zM414 140v196q0 67 -27 83t-104 16t-104 -16t-27 -83
v-196q0 -32 7 -51t26 -27.5t39 -10.5t59 -2t59 2t39 10.5t26 27.5t7 51zM244 565h-90v94h90v-94zM414 565h-90v94h90v-94z" />
    <glyph glyph-name="divide" unicode="&#xf7;" horiz-adv-x="500" 
d="M440 282h-380v67h380v-67zM308 447h-116v108h116v-108zM308 71h-116v108h116v-108z" />
    <glyph glyph-name="oslash" unicode="&#xf8;" horiz-adv-x="568" 
d="M506 321v-168q0 -45 -11 -76t-28 -48t-48.5 -26t-60 -11t-75.5 -2q-60 0 -93.5 4t-67 19.5t-48 49.5t-14.5 90v168q0 48 11.5 81t28 51t48.5 27.5t59.5 11.5t75.5 2t75.5 -2t59.5 -11.5t48.5 -27.5t28 -51t11.5 -81zM373 426q-24 9 -90 9q-77 0 -104 -16t-27 -83v-196
q0 -31 7 -48zM414 140v196q0 30 -7 53l-213 -332q24 -8 89 -8q39 0 59 2t39 10.5t26 27.5t7 51z" />
    <glyph glyph-name="ugrave" unicode="&#xf9;" horiz-adv-x="573" 
d="M495 0h-90v59q-14 -69 -159 -69q-96 0 -132 34.5t-36 104.5v355h90v-350q0 -18 3 -30t12.5 -24.5t32 -19t56.5 -6.5q75 0 104 14t29 51v365h90v-484zM339 553h-74l-125 127h109z" />
    <glyph glyph-name="uacute" unicode="&#xfa;" horiz-adv-x="573" 
d="M495 0h-90v59q-14 -69 -159 -69q-96 0 -132 34.5t-36 104.5v355h90v-350q0 -18 3 -30t12.5 -24.5t32 -19t56.5 -6.5q75 0 104 14t29 51v365h90v-484zM419 680l-125 -127h-74l90 127h109z" />
    <glyph glyph-name="ucircumflex" unicode="&#xfb;" horiz-adv-x="573" 
d="M495 0h-90v59q-14 -69 -159 -69q-96 0 -132 34.5t-36 104.5v355h90v-350q0 -18 3 -30t12.5 -24.5t32 -19t56.5 -6.5q75 0 104 14t29 51v365h90v-484zM160 553l68 127h107l66 -127h-58l-62 87l-63 -87h-58z" />
    <glyph glyph-name="udieresis" unicode="&#xfc;" horiz-adv-x="573" 
d="M495 0h-90v59q-14 -69 -159 -69q-96 0 -132 34.5t-36 104.5v355h90v-350q0 -18 3 -30t12.5 -24.5t32 -19t56.5 -6.5q75 0 104 14t29 51v365h90v-484zM240 565h-90v94h90v-94zM410 565h-90v94h90v-94z" />
    <glyph glyph-name="yacute" unicode="&#xfd;" horiz-adv-x="460" 
d="M454 484l-243 -692h-94l76 201l-187 491h98l135 -395h2l122 395h91zM359 680l-125 -127h-74l90 127h109z" />
    <glyph glyph-name="thorn" unicode="&#xfe;" horiz-adv-x="579" 
d="M427 147v178q0 67 -29 85.5t-103 18.5q-75 0 -103.5 -18.5t-28.5 -85.5v-178q0 -61 29.5 -78.5t103.5 -17.5t102.5 17.5t28.5 78.5zM78 700h90v-268q11 62 165 62q97 0 141.5 -40.5t44.5 -96.5v-199q0 -44 -13 -76t-32.5 -49.5t-51.5 -27.5t-60 -12.5t-68 -2.5t-78 10
t-48 31v-239h-90v908z" />
    <glyph glyph-name="ydieresis" unicode="&#xff;" horiz-adv-x="460" 
d="M454 484l-243 -692h-94l76 201l-187 491h98l135 -395h2l122 395h91zM180 565h-90v94h90v-94zM350 565h-90v94h90v-94z" />
    <glyph glyph-name="Amacron" unicode="&#x100;" horiz-adv-x="652" 
d="M637 0h-101l-74 197h-278l-73 -197h-96l258 649h112zM438 264l-110 293h-9l-110 -293h229zM433 739h-218v59h218v-59z" />
    <glyph glyph-name="amacron" unicode="&#x101;" horiz-adv-x="538" 
d="M460 0h-87v46q-11 -56 -146 -56q-100 0 -138.5 30.5t-38.5 123.5q0 81 36 111.5t139 30.5h145v77q0 40 -24.5 54t-92.5 14q-74 0 -166 -12v66q99 9 179 9q122 0 158 -29.5t36 -122.5v-342zM370 98v132h-139q-62 0 -77.5 -16t-15.5 -73q0 -51 16.5 -71.5t69.5 -20.5h18
q26 0 43.5 1t39.5 5.5t33.5 15t11.5 27.5zM378 590h-218v59h218v-59z" />
    <glyph glyph-name="Abreve" unicode="&#x102;" horiz-adv-x="652" 
d="M637 0h-101l-74 197h-278l-73 -197h-96l258 649h112zM438 264l-110 293h-9l-110 -293h229zM441 830q-4 -58 -34.5 -92.5t-83.5 -34.5q-54 0 -84.5 34.5t-33.5 92.5h36q13 -37 30.5 -52.5t51.5 -15.5q33 0 51.5 16t29.5 52h37z" />
    <glyph glyph-name="abreve" unicode="&#x103;" horiz-adv-x="538" 
d="M460 0h-87v46q-11 -56 -146 -56q-100 0 -138.5 30.5t-38.5 123.5q0 81 36 111.5t139 30.5h145v77q0 40 -24.5 54t-92.5 14q-74 0 -166 -12v66q99 9 179 9q122 0 158 -29.5t36 -122.5v-342zM370 98v132h-139q-62 0 -77.5 -16t-15.5 -73q0 -51 16.5 -71.5t69.5 -20.5h18
q26 0 43.5 1t39.5 5.5t33.5 15t11.5 27.5zM265 553q-54 0 -85 34.5t-33 92.5h54q6 -68 64 -68t64 68h54q-2 -58 -33 -92.5t-85 -34.5z" />
    <glyph glyph-name="Aogonek" unicode="&#x104;" horiz-adv-x="652" 
d="M614 -186q-50 0 -74.5 18.5t-24.5 61.5q0 41 21 106l-74 197h-278l-73 -197h-96l258 649h112l252 -649q-43 -52 -43 -97q0 -33 39 -33q8 0 31 7v-53q-21 -10 -50 -10zM438 264l-110 293h-9l-110 -293h229z" />
    <glyph glyph-name="aogonek" unicode="&#x105;" horiz-adv-x="538" 
d="M460 342v-342q-44 -48 -44 -97q0 -33 39 -33q8 0 31 7v-53q-21 -10 -50 -10q-50 0 -74.5 18.5t-24.5 61.5q0 50 36 106v46q-11 -56 -146 -56q-100 0 -138.5 30.5t-38.5 123.5q0 81 36 111.5t139 30.5h145v77q0 40 -24.5 54t-92.5 14q-74 0 -166 -12v66q99 9 179 9
q122 0 158 -29.5t36 -122.5zM370 96v134h-139q-62 0 -77.5 -16t-15.5 -73q0 -52 16.5 -73t69.5 -21h18q26 0 43.5 1t39.5 5.5t33.5 15t11.5 27.5z" />
    <glyph glyph-name="Cacute" unicode="&#x106;" horiz-adv-x="564" 
d="M519 9q-87 -19 -182 -19q-273 0 -273 176v308q0 186 273 186q91 0 178 -19v-72q-96 24 -176 24q-38 0 -67 -4.5t-57 -16t-43 -36t-15 -61.5v-304q0 -112 186 -112q80 0 176 24v-74zM464 830l-125 -127h-74l90 127h109z" />
    <glyph glyph-name="cacute" unicode="&#x107;" horiz-adv-x="464" 
d="M428 4q-66 -14 -155 -14q-44 0 -68.5 1.5t-56 10t-48 24.5t-28.5 46.5t-12 75.5v178q0 40 7.5 69t23.5 47t33 29t46.5 15.5t52 6t60.5 1.5q69 0 138 -15v-66q-78 20 -149 20q-75 0 -97.5 -18t-22.5 -76v-198q0 -53 25.5 -70.5t104.5 -17.5q71 0 146 19v-68zM408 680
l-125 -127h-74l90 127h109z" />
    <glyph glyph-name="Ccircumflex" unicode="&#x108;" horiz-adv-x="564" 
d="M519 9q-87 -19 -182 -19q-273 0 -273 176v308q0 186 273 186q91 0 178 -19v-72q-96 24 -176 24q-38 0 -67 -4.5t-57 -16t-43 -36t-15 -61.5v-304q0 -112 186 -112q80 0 176 24v-74zM211 703l68 127h107l66 -127h-58l-62 87l-63 -87h-58z" />
    <glyph glyph-name="ccircumflex" unicode="&#x109;" horiz-adv-x="464" 
d="M428 4q-66 -14 -155 -14q-44 0 -68.5 1.5t-56 10t-48 24.5t-28.5 46.5t-12 75.5v178q0 40 7.5 69t23.5 47t33 29t46.5 15.5t52 6t60.5 1.5q69 0 138 -15v-66q-78 20 -149 20q-75 0 -97.5 -18t-22.5 -76v-198q0 -53 25.5 -70.5t104.5 -17.5q71 0 146 19v-68zM152 553
l68 127h107l66 -127h-58l-62 87l-63 -87h-58z" />
    <glyph glyph-name="Cdotaccent" unicode="&#x10a;" horiz-adv-x="564" 
d="M519 9q-87 -19 -182 -19q-273 0 -273 176v308q0 186 273 186q91 0 178 -19v-72q-96 24 -176 24q-38 0 -67 -4.5t-57 -16t-43 -36t-15 -61.5v-304q0 -112 186 -112q80 0 176 24v-74zM380 732h-90v98h90v-98z" />
    <glyph glyph-name="cdotaccent" unicode="&#x10b;" horiz-adv-x="464" 
d="M428 4q-66 -14 -155 -14q-44 0 -68.5 1.5t-56 10t-48 24.5t-28.5 46.5t-12 75.5v178q0 40 7.5 69t23.5 47t33 29t46.5 15.5t52 6t60.5 1.5q69 0 138 -15v-66q-78 20 -149 20q-75 0 -97.5 -18t-22.5 -76v-198q0 -53 25.5 -70.5t104.5 -17.5q71 0 146 19v-68zM316 568h-90
v98h90v-98z" />
    <glyph glyph-name="Ccaron" unicode="&#x10c;" horiz-adv-x="564" 
d="M519 9q-87 -19 -182 -19q-273 0 -273 176v308q0 186 273 186q91 0 178 -19v-72q-96 24 -176 24q-38 0 -67 -4.5t-57 -16t-43 -36t-15 -61.5v-304q0 -112 186 -112q80 0 176 24v-74zM251 703l-68 127h58l63 -87l62 87h58l-66 -127h-107z" />
    <glyph glyph-name="ccaron" unicode="&#x10d;" horiz-adv-x="464" 
d="M428 4q-66 -14 -155 -14q-44 0 -68.5 1.5t-56 10t-48 24.5t-28.5 46.5t-12 75.5v178q0 40 7.5 69t23.5 47t33 29t46.5 15.5t52 6t60.5 1.5q69 0 138 -15v-66q-78 20 -149 20q-75 0 -97.5 -18t-22.5 -76v-198q0 -53 25.5 -70.5t104.5 -17.5q71 0 146 19v-68zM213 553
l-68 127h58l63 -87l62 87h58l-66 -127h-107z" />
    <glyph glyph-name="Dcaron" unicode="&#x10e;" horiz-adv-x="679" 
d="M615 463v-287q0 -176 -272 -176h-259v649h258q273 0 273 -186zM522 178v286q0 37 -15 61.5t-42.5 36t-56.5 16t-67 4.5h-160v-516h155q186 0 186 112zM287 718l-68 127h58l63 -87l62 87h58l-66 -127h-107z" />
    <glyph glyph-name="dcaron" unicode="&#x10f;" horiz-adv-x="605" 
d="M501 0h-88v57q0 -26 -43.5 -46.5t-118.5 -20.5q-105 0 -148 33t-43 121v213q0 73 45 105t151 32q57 0 105.5 -15t49.5 -47h2q-2 82 -2 123v138h90v-693zM411 127v239q0 65 -133 65q-80 0 -104.5 -12t-24.5 -53v-239q0 -41 27.5 -58t93.5 -17q74 0 107.5 17t33.5 58z
M703 679l-83 -150h-57l46 150h94z" />
    <glyph glyph-name="Dcroat" unicode="&#x110;" horiz-adv-x="679" 
d="M84 301h-64v68h64v280h258q273 0 273 -186v-287q0 -176 -272 -176h-259v301zM287 301h-106v-235h155q186 0 186 112v286q0 37 -15 61.5t-42.5 36t-56.5 16t-67 4.5h-160v-213h106v-68z" />
    <glyph glyph-name="dcroat" unicode="&#x111;" horiz-adv-x="571" 
d="M501 0h-88v54q-2 -25 -45.5 -44.5t-116.5 -19.5q-105 0 -148 33t-43 121v213q0 73 45 105t151 32q57 0 105.5 -15t49.5 -47h2q-2 80 -2 121h-104v52h104v95h90v-95h65v-52h-65v-553zM411 127v239q0 65 -133 65q-80 0 -104.5 -12t-24.5 -53v-239q0 -41 27.5 -58t93.5 -17
q74 0 107.5 17t33.5 58z" />
    <glyph glyph-name="Emacron" unicode="&#x112;" 
d="M530 0h-446v649h436v-68h-339v-212h306v-68h-306v-233h349v-68zM411 739h-218v59h218v-59z" />
    <glyph glyph-name="emacron" unicode="&#x113;" horiz-adv-x="535" 
d="M476 222h-325v-73q0 -51 36 -72.5t107 -21.5q69 0 163 24v-69q-90 -20 -175 -20q-222 0 -222 148v191q0 89 51 127t163 38q105 0 153.5 -36.5t48.5 -128.5v-107zM386 281v76q0 44 -27 60.5t-90 16.5q-60 0 -89 -16t-29 -61v-76h235zM395 584h-241v63h241v-63z" />
    <glyph glyph-name="Ebreve" unicode="&#x114;" 
d="M530 0h-446v649h436v-68h-339v-212h306v-68h-306v-233h349v-68zM423 830q-4 -58 -34.5 -92.5t-83.5 -34.5q-54 0 -84.5 34.5t-33.5 92.5h36q13 -37 30.5 -52.5t51.5 -15.5q33 0 51.5 16t29.5 52h37z" />
    <glyph glyph-name="ebreve" unicode="&#x115;" horiz-adv-x="535" 
d="M476 222h-325v-73q0 -51 36 -72.5t107 -21.5q69 0 163 24v-69q-90 -20 -175 -20q-222 0 -222 148v191q0 89 51 127t163 38q105 0 153.5 -36.5t48.5 -128.5v-107zM386 281v76q0 44 -27 60.5t-90 16.5q-60 0 -89 -16t-29 -61v-76h235zM278 553q-54 0 -85 34.5t-33 92.5h54
q6 -68 64 -68t64 68h54q-2 -58 -33 -92.5t-85 -34.5z" />
    <glyph glyph-name="Edotaccent" unicode="&#x116;" 
d="M530 0h-446v649h436v-68h-339v-212h306v-68h-306v-233h349v-68zM346 732h-90v98h90v-98z" />
    <glyph glyph-name="edotaccent" unicode="&#x117;" horiz-adv-x="535" 
d="M476 222h-325v-73q0 -51 36 -72.5t107 -21.5q69 0 163 24v-69q-90 -20 -175 -20q-222 0 -222 148v191q0 89 51 127t163 38q105 0 153.5 -36.5t48.5 -128.5v-107zM386 281v76q0 44 -27 60.5t-90 16.5q-60 0 -89 -16t-29 -61v-76h235zM316 568h-90v98h90v-98z" />
    <glyph glyph-name="Eogonek" unicode="&#x118;" 
d="M437 -186q-49 0 -74 18.5t-25 61.5q0 50 36 106h-290v649h436v-68h-339v-212h306v-68h-306v-233h349v-68h-81q-32 -50 -32 -97q0 -33 39 -33q8 0 31 7v-53q-21 -10 -50 -10z" />
    <glyph glyph-name="eogonek" unicode="&#x119;" horiz-adv-x="535" 
d="M353 -186q-49 0 -74 18.5t-25 61.5q0 48 29 96h-13q-93 0 -151.5 35.5t-58.5 112.5v191q0 89 51 127t163 38q105 0 153.5 -36.5t48.5 -128.5v-107h-325v-73q0 -51 36.5 -72.5t110.5 -21.5q65 0 159 24v-69q-54 -12 -96 -16q-28 -47 -28 -91q0 -33 39 -33q8 0 31 7v-53
q-21 -10 -50 -10zM386 281v76q0 44 -26.5 60.5t-87.5 16.5q-62 0 -91.5 -15.5t-29.5 -61.5v-76h235z" />
    <glyph glyph-name="Ecaron" unicode="&#x11a;" 
d="M530 0h-446v649h436v-68h-339v-212h306v-68h-306v-233h349v-68zM249 703l-68 127h58l63 -87l62 87h58l-66 -127h-107z" />
    <glyph glyph-name="ecaron" unicode="&#x11b;" horiz-adv-x="535" 
d="M476 222h-325v-73q0 -51 36 -72.5t107 -21.5q69 0 163 24v-69q-90 -20 -175 -20q-222 0 -222 148v191q0 89 51 127t163 38q105 0 153.5 -36.5t48.5 -128.5v-107zM386 281v76q0 44 -27 60.5t-90 16.5q-60 0 -89 -16t-29 -61v-76h235zM218 553l-68 127h58l63 -87l62 87h58
l-66 -127h-107z" />
    <glyph glyph-name="Gcircumflex" unicode="&#x11c;" horiz-adv-x="666" 
d="M602 20q-130 -30 -239 -30q-41 0 -77.5 3.5t-78.5 15t-72.5 30t-50.5 51.5t-20 76v307q0 57 29.5 96.5t79.5 57.5t95 25t95 7q120 0 224 -16v-75q-38 9 -109 16.5t-113 7.5q-205 0 -205 -118v-306q0 -33 19.5 -56.5t53 -35t66 -16t70.5 -4.5q67 0 143 18v227h-152v68h242
v-349zM212 718l68 127h107l66 -127h-58l-62 87l-63 -87h-58z" />
    <glyph glyph-name="gcircumflex" unicode="&#x11d;" horiz-adv-x="569" 
d="M491 484v-530q0 -103 -57.5 -138.5t-172.5 -35.5q-103 0 -167 11v64q115 -14 175 -14q69 0 100.5 22t31.5 73v116q-2 -34 -46.5 -48t-101.5 -14q-112 0 -152.5 33t-40.5 114v197q0 86 46.5 123t152.5 37q126 0 148 -57v47h84zM401 131v219q0 47 -25.5 64.5t-105.5 17.5
q-75 0 -98 -17t-23 -65v-219q0 -50 24.5 -65.5t98.5 -15.5q68 0 98.5 16.5t30.5 64.5zM158 553l68 127h107l66 -127h-58l-62 87l-63 -87h-58z" />
    <glyph glyph-name="Gbreve" unicode="&#x11e;" horiz-adv-x="666" 
d="M602 20q-130 -30 -239 -30q-41 0 -77.5 3.5t-78.5 15t-72.5 30t-50.5 51.5t-20 76v307q0 57 29.5 96.5t79.5 57.5t95 25t95 7q120 0 224 -16v-75q-38 9 -109 16.5t-113 7.5q-205 0 -205 -118v-306q0 -33 19.5 -56.5t53 -35t66 -16t70.5 -4.5q67 0 143 18v227h-152v68h242
v-349zM333 718q-54 0 -85 34.5t-33 92.5h54q6 -68 64 -68t64 68h54q-2 -58 -33 -92.5t-85 -34.5z" />
    <glyph glyph-name="gbreve" unicode="&#x11f;" horiz-adv-x="569" 
d="M491 484v-530q0 -103 -57.5 -138.5t-172.5 -35.5q-103 0 -167 11v64q115 -14 175 -14q69 0 100.5 22t31.5 73v116q-2 -34 -46.5 -48t-101.5 -14q-112 0 -152.5 33t-40.5 114v197q0 86 46.5 123t152.5 37q126 0 148 -57v47h84zM401 131v219q0 47 -25.5 64.5t-105.5 17.5
q-75 0 -98 -17t-23 -65v-219q0 -50 24.5 -65.5t98.5 -15.5q68 0 98.5 16.5t30.5 64.5zM265 553q-54 0 -85 34.5t-33 92.5h54q6 -68 64 -68t64 68h54q-2 -58 -33 -92.5t-85 -34.5z" />
    <glyph glyph-name="Gdotaccent" unicode="&#x120;" horiz-adv-x="666" 
d="M602 20q-130 -30 -239 -30q-41 0 -77.5 3.5t-78.5 15t-72.5 30t-50.5 51.5t-20 76v307q0 57 29.5 96.5t79.5 57.5t95 25t95 7q120 0 224 -16v-75q-38 9 -109 16.5t-113 7.5q-205 0 -205 -118v-306q0 -33 19.5 -56.5t53 -35t66 -16t70.5 -4.5q67 0 143 18v227h-152v68h242
v-349zM378 733h-90v98h90v-98z" />
    <glyph glyph-name="gdotaccent" unicode="&#x121;" horiz-adv-x="569" 
d="M491 484v-530q0 -103 -57.5 -138.5t-172.5 -35.5q-103 0 -167 11v64q115 -14 175 -14q69 0 100.5 22t31.5 73v116q-2 -34 -46.5 -48t-101.5 -14q-112 0 -152.5 33t-40.5 114v197q0 86 46.5 123t152.5 37q126 0 148 -57v47h84zM401 131v219q0 47 -25.5 64.5t-105.5 17.5
q-75 0 -98 -17t-23 -65v-219q0 -50 24.5 -65.5t98.5 -15.5q68 0 98.5 16.5t30.5 64.5zM322 568h-90v98h90v-98z" />
    <glyph glyph-name="Gcommaaccent" unicode="&#x122;" horiz-adv-x="666" 
d="M602 20q-130 -30 -239 -30q-41 0 -77.5 3.5t-78.5 15t-72.5 30t-50.5 51.5t-20 76v307q0 57 29.5 96.5t79.5 57.5t95 25t95 7q120 0 224 -16v-75q-38 9 -109 16.5t-113 7.5q-205 0 -205 -118v-306q0 -33 19.5 -56.5t53 -35t66 -16t70.5 -4.5q67 0 143 18v227h-152v68h242
v-349zM403 -40l-83 -150h-57l46 150h94z" />
    <glyph glyph-name="gcommaaccent" unicode="&#x123;" horiz-adv-x="569" 
d="M491 484v-500q0 -103 -57.5 -138.5t-172.5 -35.5q-103 0 -167 11v64q115 -14 175 -14q70 0 104 22.5t34 72.5v86q-2 -34 -49 -48t-105 -14q-112 0 -152.5 33t-40.5 114v197q0 86 46.5 123t152.5 37q126 0 148 -57v47h84zM401 131v219q0 47 -25.5 64.5t-105.5 17.5
q-75 0 -98 -17t-23 -65v-219q0 -50 24.5 -65.5t98.5 -15.5q68 0 98.5 16.5t30.5 64.5zM382 689l-83 -150h-57l46 150h94z" />
    <glyph glyph-name="Hcircumflex" unicode="&#x124;" horiz-adv-x="707" 
d="M623 0h-97v301h-345v-301h-97v649h97v-280h345v280h97v-649zM230 703l68 127h107l66 -127h-58l-62 87l-63 -87h-58z" />
    <glyph glyph-name="hcircumflex" unicode="&#x125;" horiz-adv-x="573" 
d="M495 0h-90v349q0 18 -3 30t-12.5 24.5t-32 19t-56.5 6.5q-83 0 -108 -18t-25 -62v-349h-90v700h90v-275q14 69 159 69q96 0 132 -34.5t36 -104.5v-355zM10 733l68 127h107l66 -127h-58l-62 87l-63 -87h-58z" />
    <glyph glyph-name="Hbar" unicode="&#x126;" horiz-adv-x="707" 
d="M623 0h-97v241h-345v-241h-97v649h97v-180h345v180h97v-649zM181 309h345v92h-345v-92z" />
    <glyph glyph-name="hbar" unicode="&#x127;" horiz-adv-x="573" 
d="M19 553v52h59v95h90v-95h110v-52h-110v-128q14 69 159 69q96 0 132 -34.5t36 -104.5v-355h-90v349q0 18 -3 30t-12.5 24.5t-32 19t-56.5 6.5q-83 0 -108 -18t-25 -62v-349h-90v553h-59z" />
    <glyph glyph-name="Itilde" unicode="&#x128;" horiz-adv-x="265" 
d="M181 0h-97v649h97v-649zM70 808q24 0 65 -17t60 -17q22 0 36 10.5t29 32.5v-69q-23 -39 -65 -39q-26 0 -66 18t-59 18q-40 0 -65 -39v73q24 29 65 29z" />
    <glyph glyph-name="itilde" unicode="&#x129;" horiz-adv-x="246" 
d="M169 0h-90v484h90v-484zM49 643q24 0 65 -17t60 -17q22 0 36 10.5t29 32.5v-69q-23 -39 -65 -39q-26 0 -66 18t-59 18q-40 0 -65 -39v73q24 29 65 29z" />
    <glyph glyph-name="Imacron" unicode="&#x12a;" horiz-adv-x="265" 
d="M181 0h-97v649h97v-649zM242 739h-218v59h218v-59z" />
    <glyph glyph-name="imacron" unicode="&#x12b;" horiz-adv-x="246" 
d="M169 0h-90v484h90v-484zM244 591h-241v63h241v-63z" />
    <glyph glyph-name="Ibreve" unicode="&#x12c;" horiz-adv-x="265" 
d="M181 0h-97v649h97v-649zM133 718q-54 0 -85 34.5t-33 92.5h54q6 -68 64 -68t64 68h54q-2 -58 -33 -92.5t-85 -34.5z" />
    <glyph glyph-name="ibreve" unicode="&#x12d;" horiz-adv-x="246" 
d="M169 0h-90v484h90v-484zM124 553q-54 0 -85 34.5t-33 92.5h54q6 -68 64 -68t64 68h54q-2 -58 -33 -92.5t-85 -34.5z" />
    <glyph glyph-name="Iogonek" unicode="&#x12e;" horiz-adv-x="265" 
d="M181 0q-43 -47 -43 -97q0 -33 39 -33q8 0 31 7v-53q-21 -10 -50 -10q-50 0 -74.5 18.5t-24.5 61.5q0 46 25 106v649h97v-649z" />
    <glyph glyph-name="iogonek" unicode="&#x12f;" horiz-adv-x="246" 
d="M169 0q-47 -45 -47 -97q0 -33 39 -33q8 0 31 7v-53q-21 -10 -50 -10q-50 0 -74.5 18.5t-24.5 61.5q0 50 36 106v484h90v-484z" />
    <glyph glyph-name="Idotaccent" unicode="&#x130;" horiz-adv-x="265" 
d="M181 0h-97v649h97v-649zM177 713h-90v98h90v-98z" />
    <glyph glyph-name="dotlessi" unicode="&#x131;" horiz-adv-x="246" 
d="M169 0h-90v484h90v-484z" />
    <glyph glyph-name="IJ" unicode="&#x132;" horiz-adv-x="601" 
d="M181 0h-97v649h97v-649zM517 143q0 -92 -41 -120t-139 -28q-17 0 -119 6v65q4 0 26.5 -3.5t43.5 -5.5t37 -2q57 0 76 14.5t19 69.5v510h97v-506z" />
    <glyph glyph-name="ij" unicode="&#x133;" horiz-adv-x="477" 
d="M168 565h-90v95h90v-95zM168 0h-90v484h90v-484zM399 565h-90v95h90v-95zM399 -40q0 -90 -35.5 -118.5t-125.5 -28.5q-34 0 -51 1v56q6 -1 18 -1q58 0 81 15t23 69v531h90v-524z" />
    <glyph glyph-name="Jcircumflex" unicode="&#x134;" horiz-adv-x="403" 
d="M319 649v-506q0 -93 -41.5 -123t-138.5 -30q-82 0 -119 11v65q61 -16 107 -16q56 0 75.5 16.5t19.5 72.5v510h97zM149 712l68 127h107l66 -127h-58l-62 87l-63 -87h-58z" />
    <glyph glyph-name="jcircumflex" unicode="&#x135;" horiz-adv-x="247" 
d="M169 484v-557q0 -90 -35.5 -118.5t-125.5 -28.5q-34 0 -51 1v56q6 -1 18 -1q58 0 81 15t23 69v564h90zM7 553l68 127h107l66 -127h-58l-62 87l-63 -87h-58z" />
    <glyph glyph-name="Kcommaaccent" unicode="&#x136;" horiz-adv-x="609" 
d="M619 0h-126l-310 345l290 304h117l-292 -300zM181 0h-97v649h97v-649zM391 -40l-83 -150h-64l46 150h101z" />
    <glyph glyph-name="kcommaaccent" unicode="&#x137;" horiz-adv-x="514" 
d="M512 0h-112l-221 265l204 219h110l-210 -219zM168 0h-90v693h90v-693zM322 -40l-83 -150h-57l46 150h94z" />
    <glyph glyph-name="kgreenlandic" unicode="&#x138;" 
d="M572 0h-126l-270 250l250 234h117l-252 -230zM174 0h-90v484h90v-484z" />
    <glyph glyph-name="Lacute" unicode="&#x139;" horiz-adv-x="520" 
d="M500 0h-416v649h97v-581h319v-68zM293 830l-125 -127h-74l90 127h109z" />
    <glyph glyph-name="lacute" unicode="&#x13a;" horiz-adv-x="246" 
d="M168 0h-90v700h90v-700zM277 868l-125 -127h-74l90 127h109z" />
    <glyph glyph-name="Lcommaaccent" unicode="&#x13b;" horiz-adv-x="520" 
d="M500 0h-416v649h97v-581h319v-68zM361 -40l-83 -150h-64l46 150h101z" />
    <glyph glyph-name="lcommaaccent" unicode="&#x13c;" horiz-adv-x="246" 
d="M168 0h-90v693h90v-693zM182 -40l-83 -150h-57l46 150h94z" />
    <glyph glyph-name="Lcaron" unicode="&#x13d;" horiz-adv-x="520" 
d="M500 0h-416v649h97v-581h319v-68zM389 649l-83 -150h-64l46 150h101z" />
    <glyph glyph-name="lcaron" unicode="&#x13e;" horiz-adv-x="292" 
d="M168 0h-90v693h90v-693zM362 679l-83 -150h-57l46 150h94z" />
    <glyph glyph-name="Ldot" unicode="&#x13f;" horiz-adv-x="520" 
d="M500 0h-416v649h97v-581h319v-68zM330 283h-90v98h90v-98z" />
    <glyph glyph-name="ldot" unicode="&#x140;" horiz-adv-x="300" 
d="M168 0h-90v693h90v-693zM318 370h-90v98h90v-98z" />
    <glyph glyph-name="Lslash" unicode="&#x141;" horiz-adv-x="540" 
d="M312 343l-111 -32v-243h319v-68h-416v283l-84 -24v71l84 24v295h97v-267l111 32v-71z" />
    <glyph glyph-name="lslash" unicode="&#x142;" horiz-adv-x="246" 
d="M246 423l-78 -32v-391h-90v355l-78 -32v71l78 32v274h90v-238l78 32v-71z" />
    <glyph glyph-name="Nacute" unicode="&#x143;" horiz-adv-x="723" 
d="M639 0h-117l-353 545v-545h-85v649h117l353 -536v536h85v-649zM479 830l-125 -127h-74l90 127h109z" />
    <glyph glyph-name="nacute" unicode="&#x144;" horiz-adv-x="573" 
d="M495 0h-90v350q0 18 -3 30t-12.5 24.5t-32 19t-56.5 6.5q-79 0 -106 -17t-27 -63v-350h-90v484h90v-59q14 69 159 69q96 0 132 -34.5t36 -104.5v-355zM419 680l-125 -127h-74l90 127h109z" />
    <glyph glyph-name="Ncommaaccent" unicode="&#x145;" horiz-adv-x="723" 
d="M639 0h-117l-353 545v-545h-85v649h117l353 -536v536h85v-649zM434 -40l-83 -150h-64l46 150h101z" />
    <glyph glyph-name="ncommaaccent" unicode="&#x146;" horiz-adv-x="573" 
d="M495 0h-90v350q0 18 -3 30t-12.5 24.5t-32 19t-56.5 6.5q-79 0 -106 -17t-27 -63v-350h-90v484h90v-59q14 69 159 69q96 0 132 -34.5t36 -104.5v-355zM344 -40l-83 -150h-57l46 150h94z" />
    <glyph glyph-name="Ncaron" unicode="&#x147;" horiz-adv-x="723" 
d="M639 0h-117l-353 545v-545h-85v649h117l353 -536v536h85v-649zM326 703l-68 127h58l63 -87l62 87h58l-66 -127h-107z" />
    <glyph glyph-name="ncaron" unicode="&#x148;" horiz-adv-x="573" 
d="M495 0h-90v350q0 18 -3 30t-12.5 24.5t-32 19t-56.5 6.5q-79 0 -106 -17t-27 -63v-350h-90v484h90v-59q14 69 159 69q96 0 132 -34.5t36 -104.5v-355zM218 553l-68 127h58l63 -87l62 87h58l-66 -127h-107z" />
    <glyph glyph-name="napostrophe" unicode="&#x149;" horiz-adv-x="573" 
d="M495 0h-90v350q0 18 -3 30t-12.5 24.5t-32 19t-56.5 6.5q-79 0 -106 -17t-27 -63v-350h-90v484h90v-59q14 69 159 69q96 0 132 -34.5t36 -104.5v-355zM221 679l-75 -140h-58l36 140h97z" />
    <glyph glyph-name="Eng" unicode="&#x14a;" horiz-adv-x="723" 
d="M550 -36l-381 581v-545h-85v649h117l353 -536v536h85v-690q0 -74 -32 -111.5t-126 -37.5h-26v64q57 0 76 25.5t19 64.5z" />
    <glyph glyph-name="eng" unicode="&#x14b;" horiz-adv-x="573" 
d="M310 -220v64q58 0 76.5 21.5t18.5 58.5v426q0 18 -3 30t-12.5 24.5t-32 19t-56.5 6.5q-79 0 -106 -17t-27 -63v-350h-90v484h90v-59q14 69 159 69q96 0 132 -34.5t36 -104.5v-436q0 -72 -32 -105.5t-127 -33.5h-26z" />
    <glyph glyph-name="Omacron" unicode="&#x14c;" horiz-adv-x="679" 
d="M613 474v-308q0 -53 -25.5 -90t-69.5 -54.5t-87 -24.5t-93 -7q-272 0 -272 176v307q0 186 272 186q275 0 275 -185zM519 167v309q0 120 -180 120q-38 0 -67 -4.5t-56 -17t-42 -37t-15 -61.5v-309q0 -112 181 -112q179 0 179 112zM441 739h-218v59h218v-59z" />
    <glyph glyph-name="omacron" unicode="&#x14d;" horiz-adv-x="568" 
d="M506 321v-168q0 -45 -11 -76t-28 -48t-48.5 -26t-60 -11t-75.5 -2q-60 0 -93.5 4t-67 19.5t-48 49.5t-14.5 90v168q0 48 11.5 81t28 51t48.5 27.5t59.5 11.5t75.5 2t75.5 -2t59.5 -11.5t48.5 -27.5t28 -51t11.5 -81zM414 140v196q0 67 -27 83t-104 16t-104 -16t-27 -83
v-196q0 -32 7 -51t26 -27.5t39 -10.5t59 -2t59 2t39 10.5t26 27.5t7 51zM405 589h-241v63h241v-63z" />
    <glyph glyph-name="Obreve" unicode="&#x14e;" horiz-adv-x="679" 
d="M613 474v-308q0 -53 -25.5 -90t-69.5 -54.5t-87 -24.5t-93 -7q-272 0 -272 176v307q0 186 272 186q275 0 275 -185zM519 167v309q0 120 -180 120q-38 0 -67 -4.5t-56 -17t-42 -37t-15 -61.5v-309q0 -112 181 -112q179 0 179 112zM339 718q-54 0 -85 34.5t-33 92.5h54
q6 -68 64 -68t64 68h54q-2 -58 -33 -92.5t-85 -34.5z" />
    <glyph glyph-name="obreve" unicode="&#x14f;" horiz-adv-x="568" 
d="M506 321v-168q0 -45 -11 -76t-28 -48t-48.5 -26t-60 -11t-75.5 -2q-60 0 -93.5 4t-67 19.5t-48 49.5t-14.5 90v168q0 48 11.5 81t28 51t48.5 27.5t59.5 11.5t75.5 2t75.5 -2t59.5 -11.5t48.5 -27.5t28 -51t11.5 -81zM414 140v196q0 67 -27 83t-104 16t-104 -16t-27 -83
v-196q0 -32 7 -51t26 -27.5t39 -10.5t59 -2t59 2t39 10.5t26 27.5t7 51zM279 553q-54 0 -85 34.5t-33 92.5h54q6 -68 64 -68t64 68h54q-2 -58 -33 -92.5t-85 -34.5z" />
    <glyph glyph-name="Ohungarumlaut" unicode="&#x150;" horiz-adv-x="679" 
d="M613 474v-308q0 -53 -25.5 -90t-69.5 -54.5t-87 -24.5t-93 -7q-272 0 -272 176v307q0 186 272 186q275 0 275 -185zM519 167v309q0 120 -180 120q-38 0 -67 -4.5t-56 -17t-42 -37t-15 -61.5v-309q0 -112 181 -112q179 0 179 112zM284 703h-76l70 128h76zM411 703h-76
l70 128h76z" />
    <glyph glyph-name="ohungarumlaut" unicode="&#x151;" horiz-adv-x="568" 
d="M506 321v-168q0 -45 -11 -76t-28 -48t-48.5 -26t-60 -11t-75.5 -2q-60 0 -93.5 4t-67 19.5t-48 49.5t-14.5 90v168q0 48 11.5 81t28 51t48.5 27.5t59.5 11.5t75.5 2t75.5 -2t59.5 -11.5t48.5 -27.5t28 -51t11.5 -81zM414 140v196q0 67 -27 83t-104 16t-104 -16t-27 -83
v-196q0 -32 7 -51t26 -27.5t39 -10.5t59 -2t59 2t39 10.5t26 27.5t7 51zM246 552h-76l70 128h76zM373 552h-76l70 128h76z" />
    <glyph glyph-name="OE" unicode="&#x152;" horiz-adv-x="984" 
d="M488 66v516h-130q-38 0 -67 -4.5t-56.5 -16t-42.5 -36t-15 -61.5v-286q0 -112 185 -112h126zM934 0h-578q-272 0 -272 176v287q0 186 272 186h568v-68h-339v-212h306v-68h-306v-233h349v-68z" />
    <glyph glyph-name="oe" unicode="&#x153;" horiz-adv-x="890" 
d="M414 149v187q0 67 -27 83t-104 16t-104 -16t-27 -83v-196q0 -32 7 -51t26 -27.5t39 -10.5t59 -2q72 0 101.5 19t29.5 81zM831 222h-325v-73q0 -51 36.5 -72.5t110.5 -21.5q65 0 159 24v-69q-94 -20 -187 -20t-165 52q-53 -52 -177 -52q-60 0 -93.5 4t-67 19.5t-48 49.5
t-14.5 90v168q0 48 11.5 81t28 51t48.5 27.5t59.5 11.5t75.5 2q137 0 181 -50q39 50 165 50q105 0 153.5 -36.5t48.5 -128.5v-107zM741 281v76q0 44 -27 60.5t-88 16.5t-90.5 -15.5t-29.5 -61.5v-76h235z" />
    <glyph glyph-name="Racute" unicode="&#x154;" horiz-adv-x="612" 
d="M580 0h-119l-186 277h-94v-277h-97v649h228q122 0 175 -24.5t53 -102.5v-112q0 -60 -49 -90.5t-119 -30.5zM443 422v90q0 73 -126 73h-136v-244h127q69 0 102 17t33 64zM415 830l-125 -127h-74l90 127h109z" />
    <glyph glyph-name="racute" unicode="&#x155;" horiz-adv-x="351" 
d="M339 417h-50q-62 0 -91.5 -16t-29.5 -60v-341h-90v484h85v-79q0 35 43.5 62t88.5 27h44v-77zM315 680l-125 -127h-74l90 127h109z" />
    <glyph glyph-name="Rcommaaccent" unicode="&#x156;" horiz-adv-x="612" 
d="M580 0h-119l-186 277h-94v-277h-97v649h228q122 0 175 -24.5t53 -102.5v-112q0 -60 -49 -90.5t-119 -30.5zM443 422v90q0 73 -126 73h-136v-244h127q69 0 102 17t33 64zM389 -40l-83 -150h-64l46 150h101z" />
    <glyph glyph-name="rcommaaccent" unicode="&#x157;" horiz-adv-x="351" 
d="M339 413h-50q-64 0 -92.5 -14t-28.5 -58v-341h-90v484h85v-65q0 34 47 54t97 20h32v-80zM197 -40l-83 -150h-57l46 150h94z" />
    <glyph glyph-name="Rcaron" unicode="&#x158;" horiz-adv-x="612" 
d="M580 0h-119l-186 277h-94v-277h-97v649h228q122 0 175 -24.5t53 -102.5v-112q0 -60 -49 -90.5t-119 -30.5zM443 422v90q0 73 -126 73h-136v-244h127q69 0 102 17t33 64zM240 703l-68 127h58l63 -87l62 87h58l-66 -127h-107z" />
    <glyph glyph-name="rcaron" unicode="&#x159;" horiz-adv-x="351" 
d="M339 417h-50q-62 0 -91.5 -16t-29.5 -60v-341h-90v484h85v-79q0 35 43.5 62t88.5 27h44v-77zM131 553l-68 127h58l63 -87l62 87h58l-66 -127h-107z" />
    <glyph glyph-name="Sacute" unicode="&#x15a;" horiz-adv-x="569" 
d="M514 220v-47q0 -104 -59 -143.5t-184 -39.5q-80 0 -198 16v81q118 -25 204 -25q69 0 105.5 15.5t36.5 62.5v84q0 41 -23.5 58.5t-84.5 17.5h-76q-98 0 -136.5 39.5t-38.5 116.5v52q0 77 54.5 114t200.5 37q70 0 167 -11v-73q-111 17 -174 17q-93 0 -123.5 -18.5
t-30.5 -62.5v-74q0 -34 24 -49.5t85 -15.5h78q101 0 137 -36.5t36 -115.5zM431 830l-125 -127h-74l90 127h109z" />
    <glyph glyph-name="sacute" unicode="&#x15b;" horiz-adv-x="483" 
d="M437 170v-42q0 -78 -54.5 -108t-156.5 -30q-78 0 -166 12v69q120 -19 168 -19q60 0 90 11.5t30 47.5v49q0 31 -21 44t-68 13h-55q-76 0 -115 31.5t-39 86.5v45q0 114 216 114q24 0 147 -8v-65q-86 14 -151 14q-72 0 -97.5 -14t-25.5 -47v-41q0 -49 89 -49h56
q153 0 153 -114zM373 680l-125 -127h-74l90 127h109z" />
    <glyph glyph-name="Scircumflex" unicode="&#x15c;" horiz-adv-x="569" 
d="M514 220v-47q0 -104 -59 -143.5t-184 -39.5q-80 0 -198 16v81q118 -25 204 -25q69 0 105.5 15.5t36.5 62.5v84q0 41 -23.5 58.5t-84.5 17.5h-76q-98 0 -136.5 39.5t-38.5 116.5v52q0 77 54.5 114t200.5 37q70 0 167 -11v-73q-111 17 -174 17q-93 0 -123.5 -18.5
t-30.5 -62.5v-74q0 -34 24 -49.5t85 -15.5h78q101 0 137 -36.5t36 -115.5zM173 703l68 127h107l66 -127h-58l-62 87l-63 -87h-58z" />
    <glyph glyph-name="scircumflex" unicode="&#x15d;" horiz-adv-x="483" 
d="M437 170v-42q0 -78 -54.5 -108t-156.5 -30q-78 0 -166 12v69q120 -19 168 -19q60 0 90 11.5t30 47.5v49q0 31 -21 44t-68 13h-55q-76 0 -115 31.5t-39 86.5v45q0 114 216 114q24 0 147 -8v-65q-86 14 -151 14q-72 0 -97.5 -14t-25.5 -47v-41q0 -49 89 -49h56
q153 0 153 -114zM117 553l68 127h107l66 -127h-58l-62 87l-63 -87h-58z" />
    <glyph glyph-name="Scedilla" unicode="&#x15e;" horiz-adv-x="569" 
d="M514 220v-47q0 -96 -50 -136.5t-155 -45.5l-21 -43q37 -1 65 -20.5t28 -57.5q0 -44 -34 -67t-79 -23q-49 0 -81 19l21 45q30 -17 58 -17q47 0 47 40q0 19 -22 30t-56 11h-33q24 41 44 82q-71 2 -173 16v81q118 -25 204 -25q69 0 105.5 15.5t36.5 62.5v84q0 41 -23.5 58.5
t-84.5 17.5h-76q-98 0 -136.5 39.5t-38.5 116.5v52q0 77 54.5 114t200.5 37q70 0 167 -11v-73q-111 17 -174 17q-93 0 -123.5 -18.5t-30.5 -62.5v-74q0 -34 24 -49.5t85 -15.5h78q101 0 137 -36.5t36 -115.5z" />
    <glyph glyph-name="scedilla" unicode="&#x15f;" horiz-adv-x="483" 
d="M437 170v-42q0 -70 -44 -100.5t-127 -35.5l-21 -44q37 -1 65 -20.5t28 -57.5q0 -44 -34 -67t-79 -23q-49 0 -81 19l21 45q30 -17 58 -17q47 0 47 40q0 19 -22 30t-56 11h-33q25 43 44 83q-74 2 -143 11v69q120 -19 168 -19q60 0 90 11.5t30 47.5v49q0 31 -21 44t-68 13
h-55q-76 0 -115 31.5t-39 86.5v45q0 114 216 114q24 0 147 -8v-65q-86 14 -151 14q-72 0 -97.5 -14t-25.5 -47v-41q0 -49 89 -49h56q153 0 153 -114z" />
    <glyph glyph-name="Scaron" unicode="&#x160;" horiz-adv-x="569" 
d="M514 220v-47q0 -104 -59 -143.5t-184 -39.5q-80 0 -198 16v81q118 -25 204 -25q69 0 105.5 15.5t36.5 62.5v84q0 41 -23.5 58.5t-84.5 17.5h-76q-98 0 -136.5 39.5t-38.5 116.5v52q0 77 54.5 114t200.5 37q70 0 167 -11v-73q-111 17 -174 17q-93 0 -123.5 -18.5
t-30.5 -62.5v-74q0 -34 24 -49.5t85 -15.5h78q101 0 137 -36.5t36 -115.5zM218 703l-68 127h58l63 -87l62 87h58l-66 -127h-107z" />
    <glyph glyph-name="scaron" unicode="&#x161;" horiz-adv-x="483" 
d="M437 170v-42q0 -78 -54.5 -108t-156.5 -30q-78 0 -166 12v69q120 -19 168 -19q60 0 90 11.5t30 47.5v49q0 31 -21 44t-68 13h-55q-76 0 -115 31.5t-39 86.5v45q0 114 216 114q24 0 147 -8v-65q-86 14 -151 14q-72 0 -97.5 -14t-25.5 -47v-41q0 -49 89 -49h56
q153 0 153 -114zM191 553l-68 127h58l63 -87l62 87h58l-66 -127h-107z" />
    <glyph glyph-name="Tcommaaccent" unicode="&#x162;" horiz-adv-x="585" 
d="M561 581h-219v-581h-98v581h-220v68h537v-68zM350 -40l-83 -150h-64l46 150h101z" />
    <glyph glyph-name="tcommaaccent" unicode="&#x163;" horiz-adv-x="402" 
d="M382 -2q-48 -8 -101 -8q-86 0 -124.5 28.5t-38.5 122.5v286h-108v57h108v150h91v-150h173v-57h-173v-291q0 -52 20 -69.5t81 -17.5q16 0 72 8v-59zM265 -40l-83 -150h-57l46 150h94z" />
    <glyph glyph-name="Tcaron" unicode="&#x164;" horiz-adv-x="585" 
d="M561 581h-219v-581h-98v581h-220v68h537v-68zM241 703l-68 127h58l63 -87l62 87h58l-66 -127h-107z" />
    <glyph glyph-name="tcaron" unicode="&#x165;" horiz-adv-x="402" 
d="M382 -2q-48 -8 -101 -8q-86 0 -124.5 28.5t-38.5 122.5v286h-108v57h108v150h91v-150h173v-57h-173v-291q0 -52 20 -69.5t81 -17.5q16 0 72 8v-59zM414 703l-83 -150h-57l46 150h94z" />
    <glyph glyph-name="Tbar" unicode="&#x166;" horiz-adv-x="585" 
d="M561 581h-219v-212h100v-68h-100v-301h-98v301h-100v68h100v212h-220v68h537v-68z" />
    <glyph glyph-name="tbar" unicode="&#x167;" horiz-adv-x="402" 
d="M11 262v57h107v108h-108v57h108v150h91v-150h173v-57h-173v-108h173v-57h-173v-126q0 -51 20 -67.5t81 -16.5q37 0 72 5v-59q-42 -5 -101 -5q-43 0 -69 4.5t-49.5 19t-34 45t-10.5 79.5v121h-107z" />
    <glyph glyph-name="Utilde" unicode="&#x168;" horiz-adv-x="676" 
d="M591 649v-483q0 -176 -254 -176q-51 0 -91 6.5t-79 24t-61 54.5t-22 91v483h93v-482q0 -64 43 -88t119 -24t117.5 24t41.5 88v482h93zM275 808q24 0 65 -17t60 -17q22 0 36 10.5t29 32.5v-69q-23 -39 -65 -39q-26 0 -66 18t-59 18q-40 0 -65 -39v73q24 29 65 29z" />
    <glyph glyph-name="utilde" unicode="&#x169;" horiz-adv-x="573" 
d="M495 0h-90v59q-14 -69 -159 -69q-96 0 -132 34.5t-36 104.5v355h90v-350q0 -18 3 -30t12.5 -24.5t32 -19t56.5 -6.5q75 0 104 14t29 51v365h90v-484zM210 643q24 0 65 -17t60 -17q22 0 36 10.5t29 32.5v-69q-23 -39 -65 -39q-26 0 -66 18t-59 18q-40 0 -65 -39v73
q24 29 65 29z" />
    <glyph glyph-name="Umacron" unicode="&#x16a;" horiz-adv-x="676" 
d="M591 649v-483q0 -176 -254 -176q-51 0 -91 6.5t-79 24t-61 54.5t-22 91v483h93v-482q0 -64 43 -88t119 -24t117.5 24t41.5 88v482h93zM443 739h-218v59h218v-59z" />
    <glyph glyph-name="umacron" unicode="&#x16b;" horiz-adv-x="573" 
d="M495 0h-90v59q-14 -69 -159 -69q-96 0 -132 34.5t-36 104.5v355h90v-350q0 -18 3 -30t12.5 -24.5t32 -19t56.5 -6.5q75 0 104 14t29 51v365h90v-484zM407 588h-241v63h241v-63z" />
    <glyph glyph-name="Ubreve" unicode="&#x16c;" horiz-adv-x="676" 
d="M591 649v-483q0 -176 -254 -176q-51 0 -91 6.5t-79 24t-61 54.5t-22 91v483h93v-482q0 -64 43 -88t119 -24t117.5 24t41.5 88v482h93zM338 718q-54 0 -85 34.5t-33 92.5h54q6 -68 64 -68t64 68h54q-2 -58 -33 -92.5t-85 -34.5z" />
    <glyph glyph-name="ubreve" unicode="&#x16d;" horiz-adv-x="573" 
d="M495 0h-90v59q-14 -69 -159 -69q-96 0 -132 34.5t-36 104.5v355h90v-350q0 -18 3 -30t12.5 -24.5t32 -19t56.5 -6.5q75 0 104 14t29 51v365h90v-484zM281 553q-54 0 -85 34.5t-33 92.5h54q6 -68 64 -68t64 68h54q-2 -58 -33 -92.5t-85 -34.5z" />
    <glyph glyph-name="Uring" unicode="&#x16e;" horiz-adv-x="717" 
d="M591 649v-483q0 -176 -254 -176q-51 0 -91 6.5t-79 24t-61 54.5t-22 91v483h93v-482q0 -64 43 -88t119 -24t117.5 24t41.5 88v482h93zM478 813v-12q0 -34 -8.5 -54.5t-29 -29.5t-40.5 -11.5t-56 -2.5t-55.5 2.5t-40 11.5t-29 29.5t-8.5 54.5v12q0 36 8.5 58t29 31.5
t40 12t55.5 2.5q28 0 45 -1.5t36 -7t29 -16t17 -30.5t7 -49zM415 794v27q0 36 -15 45t-56 9t-55.5 -9t-14.5 -45v-27q0 -33 14.5 -41t55.5 -8t56 8t15 41z" />
    <glyph glyph-name="uring" unicode="&#x16f;" horiz-adv-x="573" 
d="M495 0h-90v59q-14 -69 -159 -69q-96 0 -132 34.5t-36 104.5v355h90v-350q0 -18 3 -30t12.5 -24.5t32 -19t56.5 -6.5q75 0 104 14t29 51v365h90v-484zM418 663v-12q0 -34 -8.5 -54.5t-29 -29.5t-40.5 -11.5t-56 -2.5t-55.5 2.5t-40 11.5t-29 29.5t-8.5 54.5v12
q0 36 8.5 58t29 31.5t40 12t55.5 2.5q28 0 45 -1.5t36 -7t29 -16t17 -30.5t7 -49zM355 644v27q0 36 -15 45t-56 9t-55.5 -9t-14.5 -45v-27q0 -33 14.5 -41t55.5 -8t56 8t15 41z" />
    <glyph glyph-name="Uhungarumlaut" unicode="&#x170;" horiz-adv-x="676" 
d="M591 649v-483q0 -176 -254 -176q-51 0 -91 6.5t-79 24t-61 54.5t-22 91v483h93v-482q0 -64 43 -88t119 -24t117.5 24t41.5 88v482h93zM285 703h-76l70 128h76zM412 703h-76l70 128h76z" />
    <glyph glyph-name="uhungarumlaut" unicode="&#x171;" horiz-adv-x="573" 
d="M495 0h-90v59q-14 -69 -159 -69q-96 0 -132 34.5t-36 104.5v355h90v-350q0 -18 3 -30t12.5 -24.5t32 -19t56.5 -6.5q75 0 104 14t29 51v365h90v-484zM234 552h-76l70 128h76zM361 552h-76l70 128h76z" />
    <glyph glyph-name="Uogonek" unicode="&#x172;" horiz-adv-x="676" 
d="M379 -186q-49 0 -74 18.5t-25 61.5q0 46 30 97q-226 8 -226 175v483h93v-482q0 -64 43 -88t119 -24t117.5 24t41.5 88v482h93v-483q0 -158 -206 -174q-26 -45 -26 -89q0 -33 39 -33q8 0 31 7v-53q-21 -10 -50 -10z" />
    <glyph glyph-name="uogonek" unicode="&#x173;" horiz-adv-x="573" 
d="M495 0q-19 -18 -33 -45.5t-14 -51.5q0 -33 39 -33q8 0 31 7v-53q-21 -10 -50 -10q-50 0 -74.5 18.5t-24.5 61.5q0 50 36 106v59q-14 -69 -159 -69q-96 0 -132 34.5t-36 104.5v355h90v-350q0 -18 3 -30t12.5 -24.5t32 -19t56.5 -6.5q75 0 104 14t29 51v365h90v-484z" />
    <glyph glyph-name="Wcircumflex" unicode="&#x174;" horiz-adv-x="968" 
d="M960 649l-209 -649h-113l-155 540l-159 -540h-113l-203 649h103l161 -557h2l161 557h103l161 -557h2l161 557h98zM365 703l68 127h107l66 -127h-58l-62 87l-63 -87h-58z" />
    <glyph glyph-name="wcircumflex" unicode="&#x175;" horiz-adv-x="792" 
d="M780 484l-159 -484h-107l-117 391l-115 -391h-107l-163 484h99l118 -398h6l114 398h101l118 -398h6l114 398h92zM277 553l68 127h107l66 -127h-58l-62 87l-63 -87h-58z" />
    <glyph glyph-name="Ycircumflex" unicode="&#x176;" horiz-adv-x="584" 
d="M576 649l-236 -384v-265h-97v262l-235 387h111l173 -305l173 305h111zM172 703l68 127h107l66 -127h-58l-62 87l-63 -87h-58z" />
    <glyph glyph-name="ycircumflex" unicode="&#x177;" horiz-adv-x="460" 
d="M454 484l-243 -692h-94l76 201l-187 491h98l135 -395h2l122 395h91zM112 553l68 127h107l66 -127h-58l-62 87l-63 -87h-58z" />
    <glyph glyph-name="Ydieresis" unicode="&#x178;" horiz-adv-x="584" 
d="M576 649l-236 -384v-265h-97v262l-235 387h111l173 -305l173 305h111zM250 715h-90v94h90v-94zM420 715h-90v94h90v-94z" />
    <glyph glyph-name="Zacute" unicode="&#x179;" 
d="M540 0h-500v68l382 513h-372v68h484v-68l-382 -513h388v-68zM412 830l-125 -127h-74l90 127h109z" />
    <glyph glyph-name="zacute" unicode="&#x17a;" horiz-adv-x="454" 
d="M420 0h-380v61l272 362h-262v61h364v-61l-272 -362h278v-61zM352 680l-125 -127h-74l90 127h109z" />
    <glyph glyph-name="Zdotaccent" unicode="&#x17b;" 
d="M540 0h-500v68l382 513h-372v68h484v-68l-382 -513h388v-68zM327 732h-90v98h90v-98z" />
    <glyph glyph-name="zdotaccent" unicode="&#x17c;" horiz-adv-x="454" 
d="M420 0h-380v61l272 362h-262v61h364v-61l-272 -362h278v-61zM272 568h-90v98h90v-98z" />
    <glyph glyph-name="Zcaron" unicode="&#x17d;" 
d="M540 0h-500v68l382 513h-372v68h484v-68l-382 -513h388v-68zM228 703l-68 127h58l63 -87l62 87h58l-66 -127h-107z" />
    <glyph glyph-name="zcaron" unicode="&#x17e;" horiz-adv-x="454" 
d="M420 0h-380v61l272 362h-262v61h364v-61l-272 -362h278v-61zM168 553l-68 127h58l63 -87l62 87h58l-66 -127h-107z" />
    <glyph glyph-name="longs" unicode="&#x17f;" horiz-adv-x="298" 
d="M211 568v-568h-90v425h-111v59h111v78q0 84 37 116t123 32q59 0 101 -5v-58q-35 5 -68 5q-62 0 -82.5 -16.5t-20.5 -67.5z" />
    <glyph glyph-name="florin" unicode="&#x192;" 
d="M330 304v-344q0 -83 -44.5 -115.5t-133.5 -32.5q-41 0 -83 5v58q35 -5 80 -5q49 0 70 17.5t21 66.5v350h-124v62h124v145q0 83 44.5 115.5t133.5 32.5q41 0 83 -5v-58q-35 5 -80 5q-49 0 -70 -17.5t-21 -66.5v-151h143v-62h-143z" />
    <glyph glyph-name="Scommaaccent" unicode="&#x218;" horiz-adv-x="569" 
d="M514 220v-47q0 -104 -59 -143.5t-184 -39.5q-80 0 -198 16v81q118 -25 204 -25q69 0 105.5 15.5t36.5 62.5v84q0 41 -23.5 58.5t-84.5 17.5h-76q-98 0 -136.5 39.5t-38.5 116.5v52q0 77 54.5 114t200.5 37q70 0 167 -11v-73q-111 17 -174 17q-93 0 -123.5 -18.5
t-30.5 -62.5v-74q0 -34 24 -49.5t85 -15.5h78q101 0 137 -36.5t36 -115.5zM356 -40l-83 -150h-64l46 150h101z" />
    <glyph glyph-name="scommaaccent" unicode="&#x219;" horiz-adv-x="483" 
d="M437 170v-42q0 -78 -54.5 -108t-156.5 -30q-78 0 -166 12v69q120 -19 168 -19q60 0 90 11.5t30 47.5v49q0 31 -21 44t-68 13h-55q-76 0 -115 31.5t-39 86.5v45q0 114 216 114q24 0 147 -8v-65q-86 14 -151 14q-72 0 -97.5 -14t-25.5 -47v-41q0 -49 89 -49h56
q153 0 153 -114zM319 -40l-83 -150h-57l46 150h94z" />
    <glyph glyph-name="uni021A" unicode="&#x21a;" horiz-adv-x="585" 
d="M561 581h-219v-581h-98v581h-220v68h537v-68zM346 -40l-83 -150h-57l46 150h94z" />
    <glyph glyph-name="uni021B" unicode="&#x21b;" horiz-adv-x="402" 
d="M382 -2q-48 -8 -101 -8q-86 0 -124.5 28.5t-38.5 122.5v286h-108v57h108v150h91v-150h173v-57h-173v-291q0 -52 20 -69.5t81 -17.5q16 0 72 8v-59zM259 -62l-83 -150h-57l46 150h94z" />
    <glyph glyph-name="dotlessj" unicode="&#x237;" horiz-adv-x="247" 
d="M169 484v-557q0 -90 -35.5 -118.5t-125.5 -28.5q-34 0 -51 1v56q6 -1 18 -1q58 0 81 15t23 69v564h90z" />
    <glyph glyph-name="apostrophe" unicode="&#x2bc;" horiz-adv-x="222" 
d="M177 649l-75 -140h-58l36 140h97z" />
    <glyph glyph-name="circumflex" unicode="&#x2c6;" horiz-adv-x="321" 
d="M40 553l68 127h107l66 -127h-58l-62 87l-63 -87h-58z" />
    <glyph glyph-name="caron" unicode="&#x2c7;" horiz-adv-x="321" 
d="M108 553l-68 127h58l63 -87l62 87h58l-66 -127h-107z" />
    <glyph glyph-name="uni02C9" unicode="&#x2c9;" horiz-adv-x="297" 
d="M258 590h-218v59h218v-59z" />
    <glyph glyph-name="breve" unicode="&#x2d8;" horiz-adv-x="276" 
d="M138 553q-54 0 -85 34.5t-33 92.5h54q6 -68 64 -68t64 68h54q-2 -58 -33 -92.5t-85 -34.5z" />
    <glyph glyph-name="dotaccent" unicode="&#x2d9;" horiz-adv-x="246" 
d="M169 568h-90v98h90v-98z" />
    <glyph glyph-name="ring" unicode="&#x2da;" horiz-adv-x="538" 
d="M397 663v-12q0 -34 -8.5 -54.5t-29 -29.5t-40.5 -11.5t-56 -2.5t-55.5 2.5t-40 11.5t-29 29.5t-8.5 54.5v12q0 36 8.5 58t29 31.5t40 12t55.5 2.5q28 0 45 -1.5t36 -7t29 -16t17 -30.5t7 -49zM334 644v27q0 36 -15 45t-56 9t-55.5 -9t-14.5 -45v-27q0 -33 14.5 -41
t55.5 -8t56 8t15 41z" />
    <glyph glyph-name="ogonek" unicode="&#x2db;" horiz-adv-x="203" 
d="M128 -186q-50 0 -74.5 18.5t-24.5 61.5q0 50 36 106h75q-32 -50 -32 -97q0 -33 39 -33q8 0 31 7v-53q-21 -10 -50 -10z" />
    <glyph glyph-name="tilde" unicode="&#x2dc;" horiz-adv-x="315" 
d="M95 643q24 0 65 -17t60 -17q22 0 36 10.5t29 32.5v-69q-23 -39 -65 -39q-26 0 -66 18t-59 18q-40 0 -65 -39v73q24 29 65 29z" />
    <glyph glyph-name="hungarumlaut" unicode="&#x2dd;" horiz-adv-x="313" 
d="M96 552h-76l70 128h76zM223 552h-76l70 128h76z" />
    <glyph glyph-name="tonos" unicode="&#x384;" horiz-adv-x="301" 
d="M176 540h-50l-29 170h108z" />
    <glyph glyph-name="dieresistonos" unicode="&#x385;" horiz-adv-x="440" 
d="M120 568h-90v94h90v-94zM410 568h-90v94h90v-94zM243 553h-50l-29 170h108z" />
    <glyph glyph-name="Alphatonos" unicode="&#x386;" horiz-adv-x="652" 
d="M637 0h-101l-74 197h-278l-73 -197h-96l258 649h112zM438 264l-110 293h-9l-110 -293h229zM125 479h-50l-29 170h108z" />
    <glyph glyph-name="Epsilontonos" unicode="&#x388;" horiz-adv-x="718" 
d="M668 0h-446v649h436v-68h-339v-212h306v-68h-306v-233h349v-68zM127 489h-50l-29 170h108z" />
    <glyph glyph-name="Etatonos" unicode="&#x389;" horiz-adv-x="860" 
d="M776 0h-97v301h-345v-301h-97v649h97v-280h345v280h97v-649zM127 489h-50l-29 170h108z" />
    <glyph glyph-name="Iotatonos" unicode="&#x38a;" horiz-adv-x="398" 
d="M314 0h-97v649h97v-649zM127 489h-50l-29 170h108z" />
    <glyph glyph-name="Omicrontonos" unicode="&#x38c;" horiz-adv-x="790" 
d="M724 474v-308q0 -53 -25.5 -90t-69.5 -54.5t-87 -24.5t-93 -7q-272 0 -272 176v307q0 186 272 186q275 0 275 -185zM630 167v309q0 120 -180 120q-38 0 -67 -4.5t-56 -17t-42 -37t-15 -61.5v-309q0 -112 181 -112q179 0 179 112zM107 489h-50l-29 170h108z" />
    <glyph glyph-name="Upsilontonos" unicode="&#x38e;" horiz-adv-x="785" 
d="M777 649l-236 -384v-265h-97v262l-235 387h111l173 -305l173 305h111zM127 489h-50l-29 170h108z" />
    <glyph glyph-name="Omegatonos" unicode="&#x38f;" horiz-adv-x="797" 
d="M446 596q-185 0 -185 -120v-229q0 -61 32 -108t83 -75v-64h-215v68h105q-40 23 -69 69t-29 99v238q0 185 278 185t278 -185v-238q0 -53 -29 -99t-69 -69h105v-68h-215v64q51 28 83 75t32 108v229q0 120 -185 120zM84 488h-50l-29 170h108z" />
    <glyph glyph-name="iotadieresistonos" unicode="&#x390;" horiz-adv-x="246" 
d="M169 484v-348q0 -45 15 -62.5t57 -20.5v-60q-43 0 -69 4.5t-49.5 19t-34 45t-10.5 79.5v343h91zM23 568h-90v94h90v-94zM313 568h-90v94h90v-94zM146 553h-50l-29 170h108z" />
    <glyph glyph-name="Alpha" unicode="&#x391;" horiz-adv-x="652" 
d="M637 0h-101l-74 197h-278l-73 -197h-96l258 649h112zM438 264l-110 293h-9l-110 -293h229z" />
    <glyph glyph-name="Beta" unicode="&#x392;" horiz-adv-x="613" 
d="M553 238v-109q0 -71 -54 -100t-176 -29h-239v649h232q84 0 131.5 -17t62 -42t14.5 -64v-87q0 -40 -22.5 -61t-66.5 -31v-4q52 -9 85 -36t33 -69zM433 442v76q0 37 -27 52t-90 15h-135v-220h138q62 0 88 18.5t26 58.5zM456 133v98q0 26 -10.5 41.5t-33 22t-40 8t-49.5 1.5
h-142v-237h142q73 0 103 15t30 51z" />
    <glyph glyph-name="Gamma" unicode="&#x393;" horiz-adv-x="530" 
d="M500 581h-319v-581h-97v649h416v-68z" />
    <glyph glyph-name="uni0394" unicode="&#x394;" horiz-adv-x="652" 
d="M637 0h-622l258 649h112zM319 557l-183 -489h374l-182 489h-9z" />
    <glyph glyph-name="Epsilon" unicode="&#x395;" 
d="M530 0h-446v649h436v-68h-339v-212h306v-68h-306v-233h349v-68z" />
    <glyph glyph-name="Zeta" unicode="&#x396;" 
d="M540 0h-500v68l382 513h-372v68h484v-68l-382 -513h388v-68z" />
    <glyph glyph-name="Eta" unicode="&#x397;" horiz-adv-x="707" 
d="M623 0h-97v301h-345v-301h-97v649h97v-280h345v280h97v-649z" />
    <glyph glyph-name="Theta" unicode="&#x398;" horiz-adv-x="679" 
d="M214 294v60h249v-60h-249zM613 474v-308q0 -53 -25.5 -90t-69.5 -54.5t-87 -24.5t-93 -7q-272 0 -272 176v307q0 186 272 186q275 0 275 -185zM519 167v309q0 120 -180 120q-38 0 -67 -4.5t-56 -17t-42 -37t-15 -61.5v-309q0 -112 181 -112q179 0 179 112z" />
    <glyph glyph-name="Iota" unicode="&#x399;" horiz-adv-x="265" 
d="M181 0h-97v649h97v-649z" />
    <glyph glyph-name="Kappa" unicode="&#x39a;" horiz-adv-x="609" 
d="M619 0h-126l-310 345l290 304h117l-292 -300zM181 0h-97v649h97v-649z" />
    <glyph glyph-name="Lambda" unicode="&#x39b;" horiz-adv-x="652" 
d="M319 557l-208 -557h-96l258 649h112l252 -649h-101l-208 557h-9z" />
    <glyph glyph-name="Mu" unicode="&#x39c;" horiz-adv-x="861" 
d="M777 0h-85v549h-5l-209 -549h-87l-215 549h-5v-549h-87v649h145l208 -540l3 -1l197 541h140v-649z" />
    <glyph glyph-name="Nu" unicode="&#x39d;" horiz-adv-x="723" 
d="M639 0h-117l-353 545v-545h-85v649h117l353 -536v536h85v-649z" />
    <glyph glyph-name="Xi" unicode="&#x39e;" horiz-adv-x="630" 
d="M50 0v72h530v-72h-530zM50 577v72h530v-72h-530zM120 299v72h390v-72h-390z" />
    <glyph glyph-name="Omicron" unicode="&#x39f;" horiz-adv-x="679" 
d="M613 474v-308q0 -53 -25.5 -90t-69.5 -54.5t-87 -24.5t-93 -7q-272 0 -272 176v307q0 186 272 186q275 0 275 -185zM519 167v309q0 120 -180 120q-38 0 -67 -4.5t-56 -17t-42 -37t-15 -61.5v-309q0 -112 181 -112q179 0 179 112z" />
    <glyph glyph-name="Pi" unicode="&#x3a0;" horiz-adv-x="687" 
d="M603 0h-97v582h-325v-582h-97v649h519v-649z" />
    <glyph glyph-name="Rho" unicode="&#x3a1;" horiz-adv-x="570" 
d="M525 521v-133q0 -84 -64 -119t-183 -35h-97v-234h-97v649h212q40 0 69 -2t61.5 -9.5t52 -21t33 -37.5t13.5 -58zM430 391v118q0 27 -14 44.5t-40 24.5t-43.5 8.5t-43.5 1.5h-109v-293h111q58 0 98.5 21.5t40.5 74.5z" />
    <glyph glyph-name="Sigma" unicode="&#x3a3;" 
d="M520 649v-68h-376l243 -205v-78l-245 -230h388v-68h-476v90l251 246l-251 215v98h466z" />
    <glyph glyph-name="Tau" unicode="&#x3a4;" horiz-adv-x="585" 
d="M561 581h-219v-581h-98v581h-220v68h537v-68z" />
    <glyph glyph-name="Upsilon" unicode="&#x3a5;" horiz-adv-x="584" 
d="M576 649l-236 -384v-265h-97v262l-235 387h111l173 -305l173 305h111z" />
    <glyph glyph-name="Phi" unicode="&#x3a6;" horiz-adv-x="719" 
d="M410 0h-97v61q-66 0 -118.5 15t-90.5 56t-38 104v167q0 97 71 140.5t176 43.5v62h97v-62q48 0 89 -9.5t77 -30t56.5 -57t20.5 -86.5v-168q0 -61 -38 -102t-90 -56.5t-115 -15.5v-62zM163 406v-169q0 -56 41 -83t109 -27v397q-150 0 -150 -118zM555 237v169q0 59 -41 88.5
t-104 29.5v-397q65 0 105 27.5t40 82.5z" />
    <glyph glyph-name="Chi" unicode="&#x3a7;" horiz-adv-x="604" 
d="M596 0h-111l-183 264l-183 -264h-111l239 331l-229 318h111l173 -251l173 251h111l-229 -318z" />
    <glyph glyph-name="Psi" unicode="&#x3a8;" horiz-adv-x="695" 
d="M397 0h-97v231q-236 15 -236 175v243h93v-242q0 -96 143 -110v352h97v-352q141 14 141 110v242h93v-243q0 -157 -234 -174v-232z" />
    <glyph glyph-name="Omega" unicode="&#x3a9;" horiz-adv-x="702" 
d="M351 596q-185 0 -185 -120v-229q0 -61 32 -108t83 -75v-64h-215v68h105q-40 23 -69 69t-29 99v238q0 185 278 185t278 -185v-238q0 -53 -29 -99t-69 -69h105v-68h-215v64q51 28 83 75t32 108v229q0 120 -185 120z" />
    <glyph glyph-name="Omega" unicode="&#x2126;" horiz-adv-x="702" 
d="M351 596q-185 0 -185 -120v-229q0 -61 32 -108t83 -75v-64h-215v68h105q-40 23 -69 69t-29 99v238q0 185 278 185t278 -185v-238q0 -53 -29 -99t-69 -69h105v-68h-215v64q51 28 83 75t32 108v229q0 120 -185 120z" />
    <glyph glyph-name="Iotadieresis" unicode="&#x3aa;" horiz-adv-x="265" 
d="M181 0h-97v649h97v-649zM92 715h-90v94h90v-94zM262 715h-90v94h90v-94z" />
    <glyph glyph-name="Upsilondieresis" unicode="&#x3ab;" horiz-adv-x="584" 
d="M576 649l-236 -384v-265h-97v262l-235 387h111l173 -305l173 305h111zM254 695h-90v94h90v-94zM424 695h-90v94h90v-94z" />
    <glyph glyph-name="alphatonos" unicode="&#x3ac;" horiz-adv-x="571" 
d="M563 54l-33 -61q-95 5 -111 58q-11 -24 -22 -35t-45.5 -18.5t-100.5 -7.5q-105 0 -148 33t-43 121v213q0 73 45 105t151 32q57 0 105.5 -15t51.5 -47v52h88v-381q0 -23 12.5 -35t49.5 -14zM411 127v239q0 65 -133 65q-80 0 -104.5 -12t-24.5 -53v-239q0 -41 27.5 -58
t93.5 -17q74 0 107.5 17t33.5 58zM298 540h-50l-29 170h108z" />
    <glyph glyph-name="epsilontonos" unicode="&#x3ad;" horiz-adv-x="497" 
d="M60 124v50q0 74 110 91v2q-37 6 -64 26t-27 53v39q0 48 25 71t75 31q40 7 112 7q80 0 155 -9v-65q-69 12 -140 12h-16q-120 0 -120 -52v-30q0 -22 12 -36t34 -19.5t38.5 -7t40.5 -1.5h88v-62h-105q-24 0 -41 -1.5t-38.5 -7t-33 -19t-11.5 -34.5v-31q0 -26 13 -42.5
t38.5 -23t43.5 -8t48 -1.5q62 0 169 22v-71q-112 -17 -189 -17q-48 0 -79.5 3.5t-66.5 16t-53 41t-18 73.5zM306 540h-50l-29 170h108z" />
    <glyph glyph-name="etatonos" unicode="&#x3ae;" horiz-adv-x="573" 
d="M405 -69v419q0 18 -3 30t-12.5 24.5t-32 19t-56.5 6.5q-79 0 -106 -17t-27 -63v-350h-90v484h90v-59q14 69 159 69q96 0 132 -34.5t36 -104.5v-419q0 -48 13.5 -64t64.5 -16v-64h-9q-95 0 -127 33.5t-32 105.5zM324 540h-50l-29 170h108z" />
    <glyph glyph-name="iotatonos" unicode="&#x3af;" horiz-adv-x="258" 
d="M169 484v-348q0 -45 15 -62.5t57 -20.5v-60q-43 0 -69 4.5t-49.5 19t-34 45t-10.5 79.5v343h91zM154 540h-50l-29 170h108z" />
    <glyph glyph-name="upsilondieresistonos" unicode="&#x3b0;" horiz-adv-x="583" 
d="M291 -10q-64 0 -101 6t-64.5 25.5t-37.5 53.5t-10 91v318h90v-319q0 -71 22 -91.5t103 -20.5q36 0 55 4.5t37 22.5t25 56.5t7 102.5q0 85 -42 245h84q26 -78 36.5 -125t10.5 -107q0 -87 -12.5 -140t-42.5 -79.5t-65.5 -34.5t-94.5 -8zM191 568h-90v94h90v-94zM481 568
h-90v94h90v-94zM314 553h-50l-29 170h108z" />
    <glyph glyph-name="alpha" unicode="&#x3b1;" horiz-adv-x="571" 
d="M563 54l-33 -61q-95 5 -111 58q-11 -24 -22 -35t-45.5 -18.5t-100.5 -7.5q-105 0 -148 33t-43 121v213q0 73 45 105t151 32q57 0 105.5 -15t51.5 -47v52h88v-381q0 -23 12.5 -35t49.5 -14zM411 127v239q0 65 -133 65q-80 0 -104.5 -12t-24.5 -53v-239q0 -41 27.5 -58
t93.5 -17q74 0 107.5 17t33.5 58z" />
    <glyph glyph-name="beta" unicode="&#x3b2;" horiz-adv-x="602" 
d="M542 238v-100q0 -72 -55.5 -105t-174.5 -33q-67 0 -142 25v-234h-92v690q0 107 47.5 142.5t179.5 35.5q84 0 131.5 -17t62 -42t14.5 -64v-97q0 -41 -22 -62t-65 -31v-4q52 -9 84 -35.5t32 -68.5zM170 494v-405q68 -25 147 -25q71 0 102 19t31 56v92q0 26 -10.5 41.5
t-33 22t-40 8t-49.5 1.5h-45v61h41q62 0 88 18.5t26 58.5v86q0 36 -29 51.5t-93 15.5q-84 0 -109.5 -18t-25.5 -83z" />
    <glyph glyph-name="gamma" unicode="&#x3b3;" horiz-adv-x="470" 
d="M268 -209h-90v226l-179 467h95l144 -408h5q48 77 84 187.5t36 220.5h87q0 -229 -182 -501v-192z" />
    <glyph glyph-name="delta" unicode="&#x3b4;" horiz-adv-x="566" 
d="M506 253v-100q0 -45 -11 -76t-28 -48t-48.5 -26t-60 -11t-75.5 -2q-60 0 -93.5 4t-67 19.5t-48 49.5t-14.5 90v90q0 44 8 75t20.5 51.5t40 37.5t54 27t74.5 25l4 2q-99 82 -115 101q-19 24 -19 55q0 38 30.5 57t100.5 19h168v-61h-162q-23 0 -32 -5t-9 -19
q0 -10 13 -23.5t50 -43.5q129 -107 163 -145q55 -69 57 -143zM414 140v97q0 53 -23.5 91t-86.5 90h-2q-51 -15 -74.5 -24.5t-44 -28t-26 -45t-5.5 -73.5v-107q0 -32 7 -51t26 -27.5t39 -10.5t59 -2t59 2t39 10.5t26 27.5t7 51z" />
    <glyph glyph-name="epsilon" unicode="&#x3b5;" horiz-adv-x="497" 
d="M60 124v50q0 74 110 91v2q-37 6 -64 26t-27 53v39q0 48 25 71t75 31q40 7 112 7q80 0 155 -9v-65q-69 12 -140 12h-16q-120 0 -120 -52v-30q0 -22 12 -36t34 -19.5t38.5 -7t40.5 -1.5h88v-62h-105q-24 0 -41 -1.5t-38.5 -7t-33 -19t-11.5 -34.5v-31q0 -26 13 -42.5
t38.5 -23t43.5 -8t48 -1.5q62 0 169 22v-71q-112 -17 -189 -17q-48 0 -79.5 3.5t-66.5 16t-53 41t-18 73.5z" />
    <glyph glyph-name="zeta" unicode="&#x3b6;" horiz-adv-x="419" 
d="M165 367v-236q0 -27 6 -43t21 -22.5t28 -8t40 -1.5q89 0 126 -31t37 -107q0 -51 -26 -126h-78q20 72 20 100q0 58 -17.5 78t-81.5 20q-44 0 -70.5 4t-51 18t-35 42.5t-10.5 74.5v223q0 68 27.5 115.5t75.5 95.5h-156v63h208q70 67 127 67q16 0 28 -11t12 -26
q0 -38 -39.5 -64.5t-106.5 -28.5q-84 -101 -84 -196z" />
    <glyph glyph-name="eta" unicode="&#x3b7;" horiz-adv-x="573" 
d="M405 -69v419q0 18 -3 30t-12.5 24.5t-32 19t-56.5 6.5q-79 0 -106 -17t-27 -63v-350h-90v484h90v-59q14 69 159 69q96 0 132 -34.5t36 -104.5v-419q0 -48 13.5 -64t64.5 -16v-64h-9q-95 0 -127 33.5t-32 105.5z" />
    <glyph glyph-name="theta" unicode="&#x3b8;" 
d="M519 484v-328q0 -43 -13.5 -74.5t-34 -49t-52.5 -27.5t-61 -12.5t-69 -2.5q-41 0 -69.5 2.5t-61 12t-52 27t-32.5 49t-13 75.5v327q0 47 13.5 80.5t33.5 52t53 28.5t60.5 12.5t67.5 2.5q41 0 69 -2.5t61 -12.5t53 -28t33.5 -51.5t13.5 -80.5zM428 151v154h-276v-154
q0 -65 32 -83.5t107 -18.5t106 18.5t31 83.5zM152 490v-121h276v121q0 71 -31.5 90.5t-106.5 19.5q-77 0 -107.5 -19.5t-30.5 -90.5z" />
    <glyph glyph-name="iota" unicode="&#x3b9;" horiz-adv-x="258" 
d="M169 484v-348q0 -45 15 -62.5t57 -20.5v-60q-43 0 -69 4.5t-49.5 19t-34 45t-10.5 79.5v343h91z" />
    <glyph glyph-name="kappa" unicode="&#x3ba;" horiz-adv-x="526" 
d="M542 0h-126l-240 250l224 234h113l-222 -230zM174 0h-90v484h90v-484z" />
    <glyph glyph-name="lambda" unicode="&#x3bb;" horiz-adv-x="483" 
d="M217 700l250 -700h-95l-134 406h-5l-130 -406h-87l178 508l-23 65q-17 48 -63 127h109z" />
    <glyph glyph-name="uni03BC" unicode="&#x3bc;" horiz-adv-x="573" 
d="M495 0h-88v59q-17 -69 -161 -69q-44 0 -78 8v-206h-90v692h90v-350q0 -18 3 -30t12.5 -24.5t32 -19t56.5 -6.5q75 0 104 14t29 51v365h90v-484z" />
    <glyph glyph-name="nu" unicode="&#x3bd;" horiz-adv-x="463" 
d="M457 484l-169 -484h-108l-174 484h95l134 -406h5l130 406h87z" />
    <glyph glyph-name="xi" unicode="&#x3be;" horiz-adv-x="527" 
d="M0 601v59h308q106 0 182 -8v-65q-86 11 -183 11q-120 0 -120 -52v-116q0 -22 12 -36t34 -19.5t38.5 -7t40.5 -1.5h108v-62h-125q-24 0 -41 -1.5t-38.5 -7t-33 -19t-11.5 -34.5v-111q0 -26 13 -42.5t38.5 -23t43.5 -8t48 -1.5q124 0 168.5 -30t44.5 -108q0 -53 -34 -126
h-78q28 60 28 101q0 55 -30.5 76t-118.5 21q-36 0 -63 2t-58 10.5t-50.5 23t-32.5 41t-13 62.5v130q0 23 8.5 38.5t25.5 24.5t32.5 13.5t38.5 8.5v4q-36 6 -61 25.5t-25 52.5v125q0 30 10 50h-106z" />
    <glyph glyph-name="omicron" unicode="&#x3bf;" horiz-adv-x="568" 
d="M506 321v-168q0 -45 -11 -76t-28 -48t-48.5 -26t-60 -11t-75.5 -2q-60 0 -93.5 4t-67 19.5t-48 49.5t-14.5 90v168q0 48 11.5 81t28 51t48.5 27.5t59.5 11.5t75.5 2t75.5 -2t59.5 -11.5t48.5 -27.5t28 -51t11.5 -81zM414 140v196q0 67 -27 83t-104 16t-104 -16t-27 -83
v-196q0 -32 7 -51t26 -27.5t39 -10.5t59 -2t59 2t39 10.5t26 27.5t7 51z" />
    <glyph glyph-name="pi" unicode="&#x3c0;" horiz-adv-x="588" 
d="M571 -6q-7 0 -19 -0.5t-17 -0.5q-95 0 -129 27.5t-34 116.5v288h-163v-425h-91v425h-98v59h543v-59h-100v-294q0 -51 20 -67.5t81 -16.5h7v-53z" />
    <glyph glyph-name="rho" unicode="&#x3c1;" horiz-adv-x="579" 
d="M519 336v-199q0 -147 -200 -147q-73 0 -110.5 15.5t-41.5 38.5q0 -19 0.5 -57.5t0.5 -57.5v-137h-90v544q0 45 12 75.5t29 46.5t49 24.5t57 10t69 1.5q43 0 68.5 -1.5t59 -10t52 -24.5t32 -47t13.5 -75zM427 149v190q0 61 -28.5 78.5t-102.5 17.5t-103.5 -17.5
t-29.5 -78.5v-190q0 -57 30 -76t102 -19q74 0 103 16.5t29 78.5z" />
    <glyph glyph-name="uni03C2" unicode="&#x3c2;" horiz-adv-x="0" 
 />
    <glyph glyph-name="sigma" unicode="&#x3c3;" 
d="M506 319v-166q0 -45 -11 -76t-28 -48t-48.5 -26t-60 -11t-75.5 -2q-60 0 -93.5 4t-67 19.5t-48 49.5t-14.5 90v168q0 48 11.5 81t28 51t48.5 27.5t59.5 11.5t75.5 2q25 0 94 -5t85 -5h127v-59h-114q31 -33 31 -106zM414 140v196q0 67 -27 83t-104 16t-104 -16t-27 -83
v-196q0 -32 7 -51t26 -27.5t39 -10.5t59 -2t59 2t39 10.5t26 27.5t7 51z" />
    <glyph glyph-name="tau" unicode="&#x3c4;" horiz-adv-x="412" 
d="M356 -2q-42 -5 -72 -5q-77 0 -109.5 34t-32.5 114v284h-132v59h372v-59h-149v-289q0 -50 15.5 -67t55.5 -17q17 0 52 5v-59z" />
    <glyph glyph-name="upsilon" unicode="&#x3c5;" horiz-adv-x="578" 
d="M291 -10q-64 0 -101 6t-64.5 25.5t-37.5 53.5t-10 91v318h90v-319q0 -71 22 -91.5t103 -20.5q36 0 55 4.5t37 22.5t25 56.5t7 102.5q0 85 -42 245h84q26 -78 36.5 -125t10.5 -107q0 -87 -12.5 -140t-42.5 -79.5t-65.5 -34.5t-94.5 -8z" />
    <glyph glyph-name="phi" unicode="&#x3c6;" horiz-adv-x="650" 
d="M283 -208v198q-51 1 -85.5 7t-68 22t-50.5 49.5t-17 84.5v168q0 91 40.5 129t120.5 43v-60q-69 -9 -69 -97v-196q0 -52 33.5 -70.5t95.5 -20.5v283q0 100 31 131t119 31q93 0 124 -32.5t31 -140.5v-168q0 -50 -16.5 -83.5t-50 -49.5t-67.5 -22.5t-84 -7.5v-198h-87z
M496 140v196q0 57 -13.5 77t-53.5 20q-37 0 -48 -21t-11 -78v-285q60 3 93 21.5t33 69.5z" />
    <glyph glyph-name="chi" unicode="&#x3c7;" horiz-adv-x="479" 
d="M193 171l-172 313h93l126 -229l128 229h91l-172 -311l214 -381h-97l-165 295l-162 -296h-94z" />
    <glyph glyph-name="psi" unicode="&#x3c8;" horiz-adv-x="749" 
d="M78 484h87v-261q0 -61 6 -94t27.5 -51.5t49 -22.5t83.5 -4v433h87v-433q40 0 63 1.5t44 8t30.5 16.5t17 31t9 47t1.5 68v261h88v-258q0 -44 -2.5 -76.5t-11 -58t-16.5 -42t-26 -28.5t-33 -18t-45 -9.5t-53.5 -4t-65.5 -0.5v-197h-87v197q-38 0 -60 0.5t-49.5 2.5t-42 7
t-33 13t-27 20.5t-18.5 29.5t-14 41t-6.5 54t-2.5 69v258z" />
    <glyph glyph-name="omega" unicode="&#x3c9;" horiz-adv-x="816" 
d="M98 484h85q-33 -122 -33 -245q0 -86 11 -126.5t32 -51.5t68 -11q64 0 84 34t20 124v180h87v-180q0 -89 21 -123.5t84 -34.5q35 0 53 5t32.5 24t19.5 56.5t5 103.5q0 85 -42 245h84q26 -78 36.5 -125t10.5 -107q0 -83 -10.5 -134.5t-36 -79.5t-58 -38t-85.5 -10
q-61 0 -98 19t-59 73q-22 -54 -60 -73t-99 -19q-106 0 -148 53.5t-42 208.5q0 68 7.5 117t30.5 115z" />
    <glyph glyph-name="iotadieresis" unicode="&#x3ca;" horiz-adv-x="258" 
d="M169 484v-348q0 -45 15 -62.5t57 -20.5v-60q-43 0 -69 4.5t-49.5 19t-34 45t-10.5 79.5v343h91zM85 565h-90v94h90v-94zM255 565h-90v94h90v-94z" />
    <glyph glyph-name="upsilondieresis" unicode="&#x3cb;" horiz-adv-x="583" 
d="M291 -10q-64 0 -101 6t-64.5 25.5t-37.5 53.5t-10 91v318h90v-319q0 -71 22 -91.5t103 -20.5q36 0 55 4.5t37 22.5t25 56.5t7 102.5q0 85 -42 245h84q26 -78 36.5 -125t10.5 -107q0 -87 -12.5 -140t-42.5 -79.5t-65.5 -34.5t-94.5 -8zM253 565h-90v94h90v-94zM423 565
h-90v94h90v-94z" />
    <glyph glyph-name="omicrontonos" unicode="&#x3cc;" horiz-adv-x="568" 
d="M506 321v-168q0 -45 -11 -76t-28 -48t-48.5 -26t-60 -11t-75.5 -2q-60 0 -93.5 4t-67 19.5t-48 49.5t-14.5 90v168q0 48 11.5 81t28 51t48.5 27.5t59.5 11.5t75.5 2t75.5 -2t59.5 -11.5t48.5 -27.5t28 -51t11.5 -81zM414 140v196q0 67 -27 83t-104 16t-104 -16t-27 -83
v-196q0 -32 7 -51t26 -27.5t39 -10.5t59 -2t59 2t39 10.5t26 27.5t7 51zM309 540h-50l-29 170h108z" />
    <glyph glyph-name="upsilontonos" unicode="&#x3cd;" horiz-adv-x="583" 
d="M291 -10q-64 0 -101 6t-64.5 25.5t-37.5 53.5t-10 91v318h90v-319q0 -71 22 -91.5t103 -20.5q36 0 55 4.5t37 22.5t25 56.5t7 102.5q0 85 -42 245h84q26 -78 36.5 -125t10.5 -107q0 -87 -12.5 -140t-42.5 -79.5t-65.5 -34.5t-94.5 -8zM316 506h-50l-29 170h108z" />
    <glyph glyph-name="omegatonos" unicode="&#x3ce;" horiz-adv-x="816" 
d="M98 484h85q-33 -122 -33 -245q0 -86 11 -126.5t32 -51.5t68 -11q64 0 84 34t20 124v180h87v-180q0 -89 21 -123.5t84 -34.5q35 0 53 5t32.5 24t19.5 56.5t5 103.5q0 85 -42 245h84q26 -78 36.5 -125t10.5 -107q0 -83 -10.5 -134.5t-36 -79.5t-58 -38t-85.5 -10
q-61 0 -98 19t-59 73q-22 -54 -60 -73t-99 -19q-106 0 -148 53.5t-42 208.5q0 68 7.5 117t30.5 115zM433 540h-50l-29 170h108z" />
    <glyph glyph-name="uni0400" unicode="&#x400;" 
d="M530 0h-446v649h436v-68h-339v-212h306v-68h-306v-233h349v-68zM389 718h-74l-125 127h109z" />
    <glyph glyph-name="afii10023" unicode="&#x401;" 
d="M530 0h-446v649h436v-68h-339v-212h306v-68h-306v-233h349v-68zM267 721h-90v94h90v-94zM437 721h-90v94h90v-94z" />
    <glyph glyph-name="afii10051" unicode="&#x402;" horiz-adv-x="750" 
d="M551 -198h-101q1 3 22.5 53.5t26.5 64.5t22.5 59t24 69t16.5 62t13.5 70.5t3.5 63.5q0 18 -3 30t-12.5 24.5t-32 19t-56.5 6.5q-80 0 -106.5 -16.5t-26.5 -55.5v-252h-98v581h-220v68h537v-68h-219v-256q22 64 159 64q97 0 134 -34.5t37 -104.5q0 -28 -3.5 -59t-7.5 -55
t-14.5 -61t-15.5 -54.5t-20 -60t-19 -53t-22 -56t-19 -49.5z" />
    <glyph glyph-name="afii10052" unicode="&#x403;" horiz-adv-x="490" 
d="M460 581h-279v-581h-97v649h376v-68zM405 830l-125 -127h-74l90 127h109z" />
    <glyph glyph-name="afii10053" unicode="&#x404;" horiz-adv-x="564" 
d="M519 9q-87 -19 -182 -19q-273 0 -273 176v308q0 186 273 186q91 0 178 -19v-72q-96 24 -176 24q-38 0 -67 -4.5t-57 -16t-43 -36t-15 -61.5v-107h330v-67h-330v-130q0 -112 186 -112q80 0 176 24v-74z" />
    <glyph glyph-name="afii10054" unicode="&#x405;" horiz-adv-x="569" 
d="M514 220v-47q0 -106 -60 -144.5t-190 -38.5q-73 0 -191 16v81q116 -25 193 -25q78 0 115.5 15t37.5 63v84q0 41 -23.5 58.5t-84.5 17.5h-76q-98 0 -136.5 39.5t-38.5 116.5v52q0 77 55 114t202 37q68 0 165 -11v-73q-111 17 -170 17q-96 0 -127 -18t-31 -63v-74
q0 -34 24 -49.5t85 -15.5h78q101 0 137 -36.5t36 -115.5z" />
    <glyph glyph-name="afii10055" unicode="&#x406;" horiz-adv-x="265" 
d="M181 0h-97v649h97v-649z" />
    <glyph glyph-name="afii10056" unicode="&#x407;" horiz-adv-x="265" 
d="M181 0h-97v649h97v-649zM92 725h-90v94h90v-94zM262 725h-90v94h90v-94z" />
    <glyph glyph-name="afii10057" unicode="&#x408;" horiz-adv-x="403" 
d="M319 649v-506q0 -92 -41 -120t-139 -28q-17 0 -119 6v65q104 -11 107 -11q57 0 76 14.5t19 69.5v510h97z" />
    <glyph glyph-name="afii10058" unicode="&#x409;" horiz-adv-x="1000" 
d="M114 649h497v-280h97q49 0 82.5 -2.5t67 -10.5t53.5 -22t32 -38.5t12 -58.5v-96q0 -141 -229 -141h-212v577h-303v-433q0 -74 -33 -109t-105 -35h-57v70h23q40 0 57.5 19t17.5 64v496zM860 145v81q0 46 -30.5 60.5t-108.5 14.5h-111v-235h109q26 0 43.5 1.5t43.5 8.5
t40 24.5t14 44.5z" />
    <glyph glyph-name="afii10059" unicode="&#x40a;" horiz-adv-x="1000" 
d="M514 649h97v-280h97q49 0 82.5 -2.5t67 -10.5t53.5 -22t32 -38.5t12 -58.5v-96q0 -141 -229 -141h-212v301h-333v-301h-97v649h97v-280h333v280zM860 145v81q0 46 -30.5 60.5t-108.5 14.5h-110v-235h108q26 0 43.5 1.5t43.5 8.5t40 24.5t14 44.5z" />
    <glyph glyph-name="afii10060" unicode="&#x40b;" horiz-adv-x="750" 
d="M672 0h-93v244q0 18 -3 30t-12.5 24.5t-32 19t-56.5 6.5q-80 0 -106.5 -16.5t-26.5 -55.5v-252h-98v581h-220v68h537v-68h-219v-256q22 64 159 64q97 0 134 -34.5t37 -104.5v-250z" />
    <glyph glyph-name="afii10061" unicode="&#x40c;" horiz-adv-x="600" 
d="M182 0h-98v649h98v-281q38 0 56 9.5t37 39.5l89 139q41 63 66.5 78t96.5 15h45v-68h-51q-25 0 -44.5 -16.5t-42.5 -54.5l-63 -104q-19 -33 -37.5 -49.5t-46.5 -23.5q37 -9 147 -131l182 -202h-124l-179 202q-57 65 -82.5 82t-48.5 17v-301zM399 845l-125 -127h-74l90 127
h109z" />
    <glyph glyph-name="uni040D" unicode="&#x40d;" horiz-adv-x="723" 
d="M202 0h-117v649h89v-536l349 536h117v-649h-89v545zM412 718h-74l-125 127h109z" />
    <glyph glyph-name="afii10062" unicode="&#x40e;" horiz-adv-x="537" 
d="M531 649l-231 -534q-26 -62 -65 -93.5t-109 -31.5q-38 0 -84 10v70q32 -7 61 -7q43 0 67.5 19.5t44.5 64.5l20 46l-229 456h108l167 -360l152 360h98zM268 718q-54 0 -85 34.5t-33 92.5h54q6 -68 64 -68t64 68h54q-2 -58 -33 -92.5t-85 -34.5z" />
    <glyph glyph-name="afii10145" unicode="&#x40f;" horiz-adv-x="707" 
d="M403 -166h-91v166h-228v649h97v-582h345v582h97v-649h-220v-166z" />
    <glyph glyph-name="afii10017" unicode="&#x410;" horiz-adv-x="652" 
d="M637 0h-101l-74 197h-278l-73 -197h-96l258 649h112zM438 264l-110 293h-9l-110 -293h229z" />
    <glyph glyph-name="afii10018" unicode="&#x411;" horiz-adv-x="570" 
d="M525 237v-96q0 -141 -229 -141h-212v649h356v-69h-259v-211h97q49 0 82.5 -2.5t67 -10.5t53.5 -22t32 -38.5t12 -58.5zM430 145v81q0 43 -32.5 60t-106.5 17h-111v-237h109q26 0 43.5 1.5t43.5 8.5t40 24.5t14 44.5z" />
    <glyph glyph-name="afii10019" unicode="&#x412;" horiz-adv-x="613" 
d="M553 238v-109q0 -71 -54 -100t-176 -29h-239v649h232q84 0 131.5 -17t62 -42t14.5 -64v-87q0 -40 -22.5 -61t-66.5 -31v-4q52 -9 85 -36t33 -69zM433 442v76q0 37 -27 52t-90 15h-135v-220h138q62 0 88 18.5t26 58.5zM456 133v98q0 26 -10.5 41.5t-33 22t-40 8t-49.5 1.5
h-142v-237h142q73 0 103 15t30 51z" />
    <glyph glyph-name="afii10020" unicode="&#x413;" horiz-adv-x="490" 
d="M460 581h-279v-581h-97v649h376v-68z" />
    <glyph glyph-name="afii10021" unicode="&#x414;" horiz-adv-x="667" 
d="M162 649h406v-575h64v-240h-84v166h-443v-166h-85v240h56q45 68 65.5 173.5t20.5 296.5v105zM473 574h-220v-46q0 -142 -23 -267.5t-57 -186.5h300v500z" />
    <glyph glyph-name="afii10022" unicode="&#x415;" 
d="M530 0h-446v649h436v-68h-339v-212h306v-68h-306v-233h349v-68z" />
    <glyph glyph-name="afii10024" unicode="&#x416;" horiz-adv-x="954" 
d="M428 368v281h97v-281q43 0 58 8.5t35 40.5l89 139q41 63 66.5 78t96.5 15h45v-68h-51q-25 0 -44.5 -16.5t-42.5 -54.5l-63 -104q-19 -33 -37.5 -49.5t-46.5 -23.5q37 -9 147 -131l182 -202h-115l-184 202q-59 64 -85.5 81.5t-49.5 17.5v-301h-97v301q-23 0 -49.5 -17.5
t-85.5 -81.5l-184 -202h-115l182 202q110 122 147 131q-28 7 -46.5 23.5t-37.5 49.5l-63 104q-23 38 -42.5 54.5t-44.5 16.5h-51v68h45q71 0 96.5 -15t66.5 -78l89 -139q20 -32 35 -40.5t58 -8.5z" />
    <glyph glyph-name="afii10025" unicode="&#x417;" 
d="M500 259v-130q0 -36 -15.5 -62.5t-37.5 -41t-56 -23t-62.5 -10.5t-65.5 -2q-101 0 -209 19v74q121 -25 199 -25q30 0 49.5 1.5t47 8t42 23t14.5 42.5v109q0 62 -134 62h-135v62h118q135 0 135 64v109q0 52 -130 52q-43 0 -117 -5.5t-76 -5.5v68q122 8 192 8
q109 0 165.5 -24t56.5 -85v-121q0 -33 -26 -52.5t-63 -25.5v-4q23 -4 39 -8.5t33.5 -13.5t26.5 -25t9 -38z" />
    <glyph glyph-name="afii10026" unicode="&#x418;" horiz-adv-x="723" 
d="M202 0h-117v649h89v-536l349 536h117v-649h-89v545z" />
    <glyph glyph-name="afii10027" unicode="&#x419;" horiz-adv-x="725" 
d="M202 0h-117v649h89v-536l349 536h117v-649h-89v545zM492 830q-4 -56 -43.5 -91.5t-94.5 -35.5q-56 0 -95.5 35.5t-42.5 91.5h86q14 -39 27 -53t46 -14q28 0 44.5 15.5t27.5 51.5h45z" />
    <glyph glyph-name="afii10028" unicode="&#x41a;" horiz-adv-x="600" 
d="M182 0h-98v649h98v-281q38 0 56 9.5t37 39.5l89 139q41 63 66.5 78t96.5 15h45v-68h-51q-25 0 -44.5 -16.5t-42.5 -54.5l-63 -104q-19 -33 -37.5 -49.5t-46.5 -23.5q37 -9 147 -131l182 -202h-124l-179 202q-57 65 -82.5 82t-48.5 17v-301z" />
    <glyph glyph-name="afii10029" unicode="&#x41b;" horiz-adv-x="700" 
d="M114 121v528h502v-649h-97v577h-308v-479q0 -53 -29.5 -75.5t-88.5 -22.5h-89v68h55q32 0 43.5 10.5t11.5 42.5z" />
    <glyph glyph-name="afii10030" unicode="&#x41c;" horiz-adv-x="861" 
d="M777 0h-85v549h-5l-209 -549h-87l-215 549h-5v-549h-87v649h145l208 -540l3 -1l197 541h140v-649z" />
    <glyph glyph-name="afii10031" unicode="&#x41d;" horiz-adv-x="707" 
d="M623 0h-97v301h-345v-301h-97v649h97v-280h345v280h97v-649z" />
    <glyph glyph-name="afii10032" unicode="&#x41e;" horiz-adv-x="679" 
d="M613 474v-308q0 -53 -25.5 -90t-69.5 -54.5t-87 -24.5t-93 -7q-272 0 -272 176v307q0 186 272 186q275 0 275 -185zM519 167v309q0 120 -180 120q-38 0 -67 -4.5t-56 -17t-42 -37t-15 -61.5v-309q0 -112 181 -112q179 0 179 112z" />
    <glyph glyph-name="afii10033" unicode="&#x41f;" horiz-adv-x="687" 
d="M603 0h-97v582h-325v-582h-97v649h519v-649z" />
    <glyph glyph-name="afii10034" unicode="&#x420;" horiz-adv-x="570" 
d="M525 521v-135q0 -83 -64.5 -117.5t-182.5 -34.5h-97v-234h-97v649h212q40 0 69 -2t61.5 -9.5t52 -21t33 -37.5t13.5 -58zM430 391v118q0 27 -14 44.5t-40 24.5t-43.5 8.5t-43.5 1.5h-109v-293h111q58 0 98.5 21.5t40.5 74.5z" />
    <glyph glyph-name="afii10035" unicode="&#x421;" horiz-adv-x="564" 
d="M519 9q-87 -19 -182 -19q-273 0 -273 176v308q0 186 273 186q91 0 178 -19v-72q-96 24 -176 24q-38 0 -67 -4.5t-57 -16t-43 -36t-15 -61.5v-304q0 -112 186 -112q80 0 176 24v-74z" />
    <glyph glyph-name="afii10036" unicode="&#x422;" horiz-adv-x="585" 
d="M561 581h-219v-581h-98v581h-220v68h537v-68z" />
    <glyph glyph-name="afii10037" unicode="&#x423;" horiz-adv-x="537" 
d="M531 649l-231 -534q-26 -62 -65 -93.5t-109 -31.5q-38 0 -84 10v70q32 -7 61 -7q43 0 67.5 19.5t44.5 64.5l20 46l-229 456h108l167 -360l152 360h98z" />
    <glyph glyph-name="afii10038" unicode="&#x424;" horiz-adv-x="719" 
d="M410 0h-97v61q-66 0 -118.5 15t-90.5 56t-38 104v167q0 97 71 140.5t176 43.5v62h97v-62q48 0 89 -9.5t77 -30t56.5 -57t20.5 -86.5v-168q0 -61 -38 -102t-90 -56.5t-115 -15.5v-62zM163 406v-169q0 -56 41 -83t109 -27v397q-150 0 -150 -118zM555 237v169q0 59 -41 88.5
t-104 29.5v-397q65 0 105 27.5t40 82.5z" />
    <glyph glyph-name="afii10039" unicode="&#x425;" horiz-adv-x="604" 
d="M596 0h-111l-183 264l-183 -264h-111l239 331l-229 318h111l173 -251l173 251h111l-229 -318z" />
    <glyph glyph-name="afii10040" unicode="&#x426;" horiz-adv-x="707" 
d="M623 -166h-91v166h-448v649h97v-582h345v582h97v-815z" />
    <glyph glyph-name="afii10041" unicode="&#x427;" horiz-adv-x="610" 
d="M69 649h96v-275q0 -80 118 -80q85 0 115.5 19t30.5 61v275h97v-649h-97v298q-8 -37 -56.5 -53t-115.5 -16q-188 0 -188 139v281z" />
    <glyph glyph-name="afii10042" unicode="&#x428;" horiz-adv-x="929" 
d="M845 0h-761v649h97v-582h235v582h97v-582h235v582h97v-649z" />
    <glyph glyph-name="afii10043" unicode="&#x429;" horiz-adv-x="929" 
d="M754 0h-670v649h97v-582h235v582h97v-582h235v582h97v-815h-91v166z" />
    <glyph glyph-name="afii10044" unicode="&#x42a;" horiz-adv-x="680" 
d="M9 581v68h282v-280h97q49 0 82.5 -2.5t67 -10.5t53.5 -22t32 -38.5t12 -58.5v-96q0 -141 -229 -141h-212v581h-185zM540 145v81q0 47 -30.5 62t-108.5 15h-111v-237h109q26 0 43.5 1.5t43.5 8.5t40 24.5t14 44.5z" />
    <glyph glyph-name="afii10045" unicode="&#x42b;" horiz-adv-x="806" 
d="M722 0h-97v649h97v-649zM84 649h97v-280h97q49 0 82.5 -2.5t67 -10.5t53.5 -22t32 -38.5t12 -58.5v-96q0 -141 -229 -141h-212v649zM430 145v81q0 47 -30.5 62t-108.5 15h-111v-237h109q26 0 43.5 1.5t43.5 8.5t40 24.5t14 44.5z" />
    <glyph glyph-name="afii10046" unicode="&#x42c;" horiz-adv-x="570" 
d="M84 649h97v-280h97q49 0 82.5 -2.5t67 -10.5t53.5 -22t32 -38.5t12 -58.5v-96q0 -141 -229 -141h-212v649zM430 145v81q0 47 -30.5 62t-108.5 15h-111v-237h109q26 0 43.5 1.5t43.5 8.5t40 24.5t14 44.5z" />
    <glyph glyph-name="afii10047" unicode="&#x42d;" horiz-adv-x="563" 
d="M44 9v74q96 -24 176 -24q186 0 186 112v130h-330v67h330v107q0 37 -15 61.5t-43 36t-57 16t-67 4.5q-80 0 -176 -24v72q87 19 178 19q273 0 273 -186v-308q0 -176 -273 -176q-95 0 -182 19z" />
    <glyph glyph-name="afii10048" unicode="&#x42e;" horiz-adv-x="934" 
d="M181 0h-97v649h97v-288h140v112q0 186 272 186q275 0 275 -185v-308q0 -53 -25.5 -90t-69.5 -54.5t-87 -24.5t-93 -7q-272 0 -272 176v133h-140v-299zM774 167v309q0 120 -180 120q-38 0 -67 -4.5t-56 -17t-42 -37t-15 -61.5v-309q0 -112 181 -112q179 0 179 112z" />
    <glyph glyph-name="afii10049" unicode="&#x42f;" horiz-adv-x="612" 
d="M151 0h-119l208 289q-70 0 -119 30.5t-49 90.5v112q0 77 51.5 102t176.5 25h228v-649h-97v277h-94zM169 512v-90q0 -39 28 -60t107 -21h127v244h-136q-126 0 -126 -73z" />
    <glyph glyph-name="afii10065" unicode="&#x430;" horiz-adv-x="538" 
d="M460 0h-87v46q-11 -56 -146 -56q-100 0 -138.5 30.5t-38.5 123.5q0 81 36 111.5t139 30.5h145v77q0 40 -24.5 54t-92.5 14q-74 0 -166 -12v66q99 9 179 9q122 0 158 -29.5t36 -122.5v-342zM370 96v134h-139q-62 0 -77.5 -16t-15.5 -73q0 -52 16.5 -73t69.5 -21h18
q26 0 43.5 1t39.5 5.5t33.5 15t11.5 27.5z" />
    <glyph glyph-name="afii10066" unicode="&#x431;" 
d="M509 156q0 -54 -17 -89t-51 -51t-68 -21t-84 -5q-41 0 -68.5 2.5t-58.5 12t-49 27t-30 49t-12 75.5v371q0 47 15 80.5t37 52t57.5 28.5t64.5 12.5t69 2.5q61 0 164 -9v-68q-106 13 -177 13q-78 0 -109.5 -19.5t-31.5 -90.5v-77q27 18 76.5 30t88.5 12q97 0 140.5 -39
t43.5 -115v-184zM420 151v188q0 49 -23.5 68t-92.5 19q-40 0 -82.5 -14.5t-61.5 -39.5v-221q0 -65 28.5 -83.5t102.5 -18.5t101.5 18t27.5 84z" />
    <glyph glyph-name="afii10067" unicode="&#x432;" horiz-adv-x="573" 
d="M513 157v-29q0 -72 -45.5 -100t-164.5 -28h-219v484h212q64 0 103.5 -7.5t57 -25.5t22.5 -36t5 -49v-17q0 -40 -21 -58.5t-66 -28.5v-4q116 -19 116 -101zM398 352v6q0 38 -18 51t-79 13h-127v-142h130q60 0 77 15t17 57zM421 131v32q0 26 -21.5 42t-86.5 16h-139v-156
h134q70 0 91.5 14t21.5 52z" />
    <glyph glyph-name="afii10068" unicode="&#x433;" horiz-adv-x="420" 
d="M390 418h-216v-418h-90v484h306v-66z" />
    <glyph glyph-name="afii10069" unicode="&#x434;" horiz-adv-x="533" 
d="M355 64v356h-151v-25q0 -190 -54 -331h205zM124 450v34h311v-420h48v-198h-77v134h-313v-134h-77v198h46q62 139 62 386z" />
    <glyph glyph-name="afii10070" unicode="&#x435;" horiz-adv-x="535" 
d="M476 222h-325v-73q0 -51 36.5 -72.5t110.5 -21.5q65 0 159 24v-69q-94 -20 -187 -20t-151.5 35.5t-58.5 112.5v191q0 89 51 127t163 38q105 0 153.5 -36.5t48.5 -128.5v-107zM386 281v76q0 44 -26.5 60.5t-87.5 16.5q-62 0 -91.5 -15.5t-29.5 -61.5v-76h235z" />
    <glyph glyph-name="afii10072" unicode="&#x436;" horiz-adv-x="728" 
d="M323 273v211h83v-211q32 0 42.5 6.5t25.5 30.5l65 105q29 47 48.5 58t73.5 11h49v-51h-39q-33 0 -64 -53l-48 -78q-26 -45 -62 -54q28 -7 110 -98l135 -150h-106l-132 150q-43 48 -62 61t-36 13v-224h-83v224q-17 0 -36 -13t-62 -61l-132 -150h-107l135 150q82 91 110 98
q-36 9 -62 54l-48 78q-31 53 -64 53h-39v51h50q54 0 73.5 -11t48.5 -58l65 -105q15 -24 25.5 -30.5t42.5 -6.5z" />
    <glyph glyph-name="afii10073" unicode="&#x437;" horiz-adv-x="501" 
d="M441 174v-50q0 -36 -14.5 -62t-35 -39.5t-53.5 -21.5t-59.5 -9.5t-64.5 -1.5q-75 0 -179 17v71q107 -22 179 -22q29 0 46.5 1.5t40.5 8t34.5 23t11.5 42.5v31q0 21 -11.5 34.5t-33 19t-38.5 7t-41 1.5h-105v62h88q24 0 40.5 1.5t38.5 7t34 19.5t12 36v30q0 52 -120 52
q-94 0 -163 -12v65q75 9 162 9q72 0 112 -7q50 -8 75 -31t25 -71v-39q0 -33 -24.5 -53t-59.5 -26v-4q103 -16 103 -89z" />
    <glyph glyph-name="afii10074" unicode="&#x438;" horiz-adv-x="598" 
d="M195 0h-117v484h85v-391l240 391h117v-484h-85v400z" />
    <glyph glyph-name="afii10075" unicode="&#x439;" horiz-adv-x="598" 
d="M462 679q-4 -56 -43.5 -91.5t-94.5 -35.5q-56 0 -95.5 35.5t-42.5 91.5h86q14 -39 27 -53t46 -14q28 0 44.5 15.5t27.5 51.5h45zM195 0h-117v484h85v-391l240 391h117v-484h-85v400z" />
    <glyph glyph-name="afii10076" unicode="&#x43a;" horiz-adv-x="502" 
d="M77 0v484h90v-209q35 0 53.5 10t40.5 45l49 79q28 46 57.5 60.5t84.5 14.5h34v-51h-19q-51 0 -84 -53l-38 -62q-35 -61 -72 -70q28 -7 110 -98l135 -150h-111l-132 150q-29 33 -53 49t-32 17t-23 1v-217h-90z" />
    <glyph glyph-name="afii10077" unicode="&#x43b;" horiz-adv-x="571" 
d="M106 134v350h387v-484h-89v418h-209v-277q0 -49 -10.5 -79.5t-34 -45t-49.5 -19t-69 -4.5q-20 0 -32 1v56q64 0 85 16.5t21 67.5z" />
    <glyph glyph-name="afii10078" unicode="&#x43c;" horiz-adv-x="741" 
d="M657 0h-83v402h-5l-149 -402h-91l-155 402h-5v-402h-85v484h145l147 -394h4l137 394h140v-484z" />
    <glyph glyph-name="afii10079" unicode="&#x43d;" horiz-adv-x="574" 
d="M496 0h-90v217h-238v-217h-90v484h90v-201h238v201h90v-484z" />
    <glyph glyph-name="afii10080" unicode="&#x43e;" horiz-adv-x="568" 
d="M506 321v-168q0 -45 -11 -76t-28 -48t-48.5 -26t-60 -11t-75.5 -2q-60 0 -93.5 4t-67 19.5t-48 49.5t-14.5 90v168q0 48 11.5 81t28 51t48.5 27.5t59.5 11.5t75.5 2t75.5 -2t59.5 -11.5t48.5 -27.5t28 -51t11.5 -81zM414 140v196q0 67 -27 83t-104 16t-104 -16t-27 -83
v-196q0 -32 7 -51t26 -27.5t39 -10.5t59 -2t59 2t39 10.5t26 27.5t7 51z" />
    <glyph glyph-name="afii10081" unicode="&#x43f;" horiz-adv-x="577" 
d="M493 0h-90v418h-229v-418h-90v484h409v-484z" />
    <glyph glyph-name="afii10082" unicode="&#x440;" horiz-adv-x="579" 
d="M519 357v-199q0 -44 -13 -76t-32.5 -49.5t-51.5 -27.5t-60 -12.5t-68 -2.5t-78 10t-48 31v-229h-90v682h90v-52q11 62 165 62q97 0 141.5 -40.5t44.5 -96.5zM427 147v178q0 67 -29 85.5t-103 18.5q-75 0 -103.5 -18.5t-28.5 -85.5v-178q0 -61 29.5 -78.5t103.5 -17.5
t102.5 17.5t28.5 78.5z" />
    <glyph glyph-name="afii10083" unicode="&#x441;" horiz-adv-x="464" 
d="M428 4q-66 -14 -155 -14q-44 0 -68.5 1.5t-56 10t-48 24.5t-28.5 46.5t-12 75.5v178q0 40 7.5 69t23.5 47t33 29t46.5 15.5t52 6t60.5 1.5q69 0 138 -15v-66q-78 20 -149 20q-77 0 -98.5 -16t-21.5 -78v-200q0 -53 25 -69.5t105 -16.5q71 0 146 19v-68z" />
    <glyph glyph-name="afii10084" unicode="&#x442;" horiz-adv-x="517" 
d="M493 418h-189v-418h-90v418h-190v66h469v-66z" />
    <glyph glyph-name="afii10085" unicode="&#x443;" horiz-adv-x="460" 
d="M454 484l-240 -682h-94l73 191l-187 491h98l135 -395h2l122 395h91z" />
    <glyph glyph-name="afii10086" unicode="&#x444;" horiz-adv-x="909" 
d="M500 -198h-90v210q-66 -22 -127 -22q-60 0 -93.5 4t-67 19.5t-48 49.5t-14.5 90v168q0 48 11.5 81t28 51t48.5 27.5t59.5 11.5t75.5 2q64 0 127 -23v222h90v-222q67 23 126 23q48 0 75.5 -2t59.5 -11.5t48.5 -27.5t28 -51t11.5 -81v-168q0 -45 -11 -76t-28 -48t-48.5 -26
t-60 -11t-75.5 -2q-56 0 -126 22v-210zM283 49q127 0 127 72v239q0 75 -127 75q-77 0 -104 -16t-27 -83v-196q0 -32 7 -51t26 -27.5t39 -10.5t59 -2zM757 140v196q0 67 -27 83t-104 16q-126 0 -126 -71v-247q0 -34 34.5 -51t91.5 -17q39 0 59 2t39 10.5t26 27.5t7 51z" />
    <glyph glyph-name="afii10087" unicode="&#x445;" horiz-adv-x="519" 
d="M509 0h-109l-141 191l-140 -191h-109l190 249l-180 235h109l130 -177l131 177h109l-190 -235z" />
    <glyph glyph-name="afii10088" unicode="&#x446;" horiz-adv-x="587" 
d="M503 -134h-87v134h-332v484h90v-418h239v418h90v-618z" />
    <glyph glyph-name="afii10089" unicode="&#x447;" horiz-adv-x="573" 
d="M495 0h-88v222q-14 -69 -161 -69q-96 0 -132 34.5t-36 104.5v192h90v-187q0 -18 3 -30t12.5 -24.5t32 -19t56.5 -6.5q79 0 106 17t27 63v187h90v-484z" />
    <glyph glyph-name="afii10090" unicode="&#x448;" horiz-adv-x="817" 
d="M733 0h-649v484h90v-418h189v418h91v-418h189v418h90v-484z" />
    <glyph glyph-name="afii10091" unicode="&#x449;" horiz-adv-x="817" 
d="M646 0h-562v484h90v-418h189v418h91v-418h189v418h90v-618h-87v134z" />
    <glyph glyph-name="afii10092" unicode="&#x44a;" horiz-adv-x="643" 
d="M422 0h-218v418h-180v66h272v-175h134q89 0 129 -21t40 -83v-100q0 -105 -177 -105zM511 117v61q0 42 -17.5 56.5t-75.5 14.5h-123v-191h121q18 0 30.5 1.5t29.5 6t26 18t9 33.5z" />
    <glyph glyph-name="afii10093" unicode="&#x44b;" horiz-adv-x="725" 
d="M646 0h-90v484h90v-484zM302 0h-218v484h92v-175h134q89 0 129 -21t40 -83v-100q0 -105 -177 -105zM391 117v61q0 42 -17.5 56.5t-75.5 14.5h-123v-191h121q18 0 30.5 1.5t29.5 6t26 18t9 33.5z" />
    <glyph glyph-name="afii10094" unicode="&#x44c;" horiz-adv-x="533" 
d="M312 0h-228v484h92v-175h144q89 0 129 -21t40 -83v-100q0 -105 -177 -105zM401 117v61q0 42 -17.5 56.5t-75.5 14.5h-133v-191h131q18 0 30.5 1.5t29.5 6t26 18t9 33.5z" />
    <glyph glyph-name="afii10095" unicode="&#x44d;" horiz-adv-x="464" 
d="M36 4v68q75 -19 146 -19q80 0 105 16.5t25 69.5v73h-244v68h244v59q0 62 -21.5 78t-98.5 16q-71 0 -149 -20v66q69 15 138 15q38 0 60.5 -1.5t52 -6t46.5 -15.5t33 -29t23.5 -47t7.5 -69v-178q0 -45 -12 -75.5t-28.5 -46.5t-48 -24.5t-56 -10t-68.5 -1.5q-89 0 -155 14z
" />
    <glyph glyph-name="afii10096" unicode="&#x44e;" horiz-adv-x="808" 
d="M174 0h-90v484h90v-218h126v55q0 48 11.5 81t28 51t48.5 27.5t59.5 11.5t75.5 2t75.5 -2t59.5 -11.5t48.5 -27.5t28 -51t11.5 -81v-168q0 -45 -11 -76t-28 -48t-48.5 -26t-60 -11t-75.5 -2q-60 0 -93.5 4t-67 19.5t-48 49.5t-14.5 90v58h-126v-211zM654 140v196
q0 67 -27 83t-104 16t-104 -16t-27 -83v-196q0 -32 7 -51t26 -27.5t39 -10.5t59 -2t59 2t39 10.5t26 27.5t7 51z" />
    <glyph glyph-name="afii10097" unicode="&#x44f;" horiz-adv-x="560" 
d="M139 0h-119l188 206q-148 0 -148 101v52q0 76 34 100.5t134 24.5h248v-484h-90v194h-81zM151 351v-14q0 -53 13.5 -67t51.5 -14h170v166h-149q-54 0 -70 -14.5t-16 -56.5z" />
    <glyph glyph-name="uni0450" unicode="&#x450;" horiz-adv-x="535" 
d="M476 222h-325v-73q0 -51 36.5 -72.5t110.5 -21.5q65 0 159 24v-69q-94 -20 -187 -20t-151.5 35.5t-58.5 112.5v191q0 89 51 127t163 38q105 0 153.5 -36.5t48.5 -128.5v-107zM386 281v76q0 44 -26.5 60.5t-87.5 16.5q-62 0 -91.5 -15.5t-29.5 -61.5v-76h235zM321 553h-74
l-125 127h109z" />
    <glyph glyph-name="afii10071" unicode="&#x451;" horiz-adv-x="535" 
d="M476 222h-325v-73q0 -51 36.5 -72.5t110.5 -21.5q65 0 159 24v-69q-94 -20 -187 -20t-151.5 35.5t-58.5 112.5v191q0 89 51 127t163 38q105 0 153.5 -36.5t48.5 -128.5v-107zM386 281v76q0 44 -26.5 60.5t-87.5 16.5q-62 0 -91.5 -15.5t-29.5 -61.5v-76h235zM242 565h-90
v94h90v-94zM412 565h-90v94h90v-94z" />
    <glyph glyph-name="afii10099" unicode="&#x452;" horiz-adv-x="573" 
d="M166 553l2 -135q22 64 159 64q98 0 134.5 -37.5t36.5 -121.5q0 -102 -37.5 -247t-84.5 -266h-98q49 118 89.5 261.5t40.5 245.5q0 52 -20.5 76t-86.5 24q-80 0 -106.5 -16.5t-26.5 -55.5v-345h-90v553h-59v52h59v88h88v-88h112v-52h-112z" />
    <glyph glyph-name="afii10100" unicode="&#x453;" horiz-adv-x="420" 
d="M390 418h-216v-418h-90v484h306v-66zM388 680l-125 -127h-74l90 127h109z" />
    <glyph glyph-name="afii10101" unicode="&#x454;" horiz-adv-x="464" 
d="M428 4q-66 -14 -155 -14q-44 0 -68.5 1.5t-56 10t-48 24.5t-28.5 46.5t-12 75.5v178q0 40 7.5 69t23.5 47t33 29t46.5 15.5t52 6t60.5 1.5q69 0 138 -15v-66q-78 20 -149 20q-77 0 -98.5 -16t-21.5 -78v-59h244v-68h-244v-73q0 -53 25 -69.5t105 -16.5q71 0 146 19v-68z
" />
    <glyph glyph-name="afii10102" unicode="&#x455;" horiz-adv-x="483" 
d="M437 170v-42q0 -78 -54.5 -108t-156.5 -30q-78 0 -166 12v69q120 -19 168 -19q60 0 90 11.5t30 47.5v49q0 31 -21 44t-68 13h-55q-76 0 -115 31.5t-39 86.5v45q0 114 216 114q24 0 147 -8v-65q-86 14 -151 14q-72 0 -97.5 -14t-25.5 -47v-41q0 -49 89 -49h56
q153 0 153 -114z" />
    <glyph glyph-name="afii10103" unicode="&#x456;" horiz-adv-x="248" 
d="M169 0h-90v484h90v-484zM169 568h-90v98h90v-98z" />
    <glyph glyph-name="afii10104" unicode="&#x457;" horiz-adv-x="247" 
d="M23 568h-90v94h90v-94zM313 568h-90v94h90v-94zM146 553h-50l-29 170h108zM169 0h-90v484h90v-484z" />
    <glyph glyph-name="afii10105" unicode="&#x458;" horiz-adv-x="245" 
d="M169 565h-90v94h90v-94zM169 484v-557q0 -83 -39 -115t-122 -32q-25 0 -51 4v59q24 -4 38 -4q42 0 63 16.5t21 64.5v564h90z" />
    <glyph glyph-name="afii10106" unicode="&#x459;" horiz-adv-x="846" 
d="M199 426v-284q0 -49 -10.5 -80t-34.5 -45.5t-50 -19t-69 -4.5q-20 0 -32 1v56q64 0 85 16.5t21 67.5v350h390v-175h134q89 0 129 -21t40 -83v-100q0 -105 -177 -105h-218v426h-208zM714 117v61q0 42 -17.5 56.5t-75.5 14.5h-123v-191h121q18 0 30.5 1.5t29.5 6t26 18
t9 33.5z" />
    <glyph glyph-name="afii10107" unicode="&#x45a;" horiz-adv-x="836" 
d="M615 0h-218v249h-223v-249h-90v484h90v-175h223v175h92v-175h134q89 0 129 -21t40 -83v-100q0 -105 -177 -105zM704 117v61q0 42 -17.5 56.5t-75.5 14.5h-123v-191h121q18 0 30.5 1.5t29.5 6t26 18t9 33.5z" />
    <glyph glyph-name="afii10108" unicode="&#x45b;" horiz-adv-x="573" 
d="M19 553v52h59v95h90v-95h110v-52h-110v-128q14 69 159 69q96 0 132 -34.5t36 -104.5v-355h-90v349q0 18 -3 30t-12.5 24.5t-32 19t-56.5 6.5q-83 0 -108 -18t-25 -62v-349h-90v553h-59z" />
    <glyph glyph-name="afii10109" unicode="&#x45c;" horiz-adv-x="502" 
d="M77 0v484h90v-209q35 0 53.5 10t40.5 45l49 79q28 46 57.5 60.5t84.5 14.5h34v-51h-19q-51 0 -84 -53l-38 -62q-35 -61 -72 -70q28 -7 110 -98l135 -150h-111l-132 150q-29 33 -53 49t-32 17t-23 1v-217h-90zM409 700l-125 -127h-74l90 127h109z" />
    <glyph glyph-name="uni045D" unicode="&#x45d;" horiz-adv-x="598" 
d="M195 0h-117v484h85v-391l240 391h117v-484h-85v400zM403 553h-74l-125 127h109z" />
    <glyph glyph-name="afii10110" unicode="&#x45e;" horiz-adv-x="460" 
d="M454 484l-241 -684h-93l73 193l-187 491h98l135 -395l124 395h91zM392 680q-4 -56 -42.5 -91.5t-93.5 -35.5q-56 0 -96.5 36t-43.5 91h86q8 -36 24.5 -51.5t51.5 -15.5q55 0 69 67h45z" />
    <glyph glyph-name="afii10193" unicode="&#x45f;" horiz-adv-x="617" 
d="M443 484h90v-484h-179v-134h-87v134h-183v484h90v-418h269v418z" />
    <glyph glyph-name="uni0462" unicode="&#x462;" horiz-adv-x="680" 
d="M461 501h-169v-106h116q227 0 227 -130v-115q0 -42 -19 -72.5t-52.5 -46.5t-72 -23.5t-85.5 -7.5h-212v501h-170v68h170v80h99v-80h168v-68zM537 140v98q0 53 -29 74.5t-107 21.5h-109v-273h107q26 0 43 1.5t42.5 8.5t39 24.5t13.5 44.5z" />
    <glyph glyph-name="uni0463" unicode="&#x463;" horiz-adv-x="646" 
d="M24 418v66h173v216h92v-216h191v-66h-191v-109h144q89 0 129 -21t40 -83v-100q0 -105 -177 -105h-228v418h-173zM514 117v61q0 42 -17.5 56.5t-75.5 14.5h-133v-191h131q18 0 30.5 1.5t29.5 6t26 18t9 33.5z" />
    <glyph glyph-name="uni0472" unicode="&#x472;" horiz-adv-x="679" 
d="M613 474v-308q0 -53 -25.5 -90t-69.5 -54.5t-87 -24.5t-93 -7q-272 0 -272 176v307q0 186 272 186q275 0 275 -185zM441 338q47 0 78 30v108q0 120 -180 120q-38 0 -67 -4.5t-56 -17t-42 -37t-15 -61.5v-125q45 30 98 30q14 0 88.5 -21.5t95.5 -21.5zM519 167v126
q-32 -29 -78 -29q-22 0 -96.5 22t-87.5 22q-53 0 -98 -31v-110q0 -112 181 -112q179 0 179 112z" />
    <glyph glyph-name="uni0473" unicode="&#x473;" horiz-adv-x="568" 
d="M506 321v-168q0 -45 -11 -76t-28 -48t-48.5 -26t-60 -11t-75.5 -2q-60 0 -93.5 4t-67 19.5t-48 49.5t-14.5 90v168q0 48 11.5 81t28 51t48.5 27.5t59.5 11.5t75.5 2t75.5 -2t59.5 -11.5t48.5 -27.5t28 -51t11.5 -81zM414 140v77q-24 -21 -57 -21q-14 0 -64.5 16t-69.5 16
q-38 0 -71 -22v-66q0 -32 7 -51t26 -27.5t39 -10.5t59 -2t59 2t39 10.5t26 27.5t7 51zM152 336v-66q32 21 71 21q20 0 67.5 -15.5t66.5 -15.5q35 0 57 22v54q0 67 -27 83t-104 16t-104 -16t-27 -83z" />
    <glyph glyph-name="uni0474" unicode="&#x474;" horiz-adv-x="720" 
d="M720 604l-39 -58q-47 32 -74 32q-37 0 -57 -50l-206 -528h-88l-252 649h106l169 -472q21 -59 25 -74q3 11 25 74l146 392q34 91 113 91q53 0 132 -56z" />
    <glyph glyph-name="uni0475" unicode="&#x475;" horiz-adv-x="581" 
d="M583 444l-39 -62q-52 30 -84 30q-31 0 -50 -52l-136 -360h-77l-184 484h86l105 -290q15 -43 30 -97q14 42 31 92l75 206q18 49 40 71q28 28 74 28q49 0 129 -50z" />
    <glyph glyph-name="uni048A" unicode="&#x48a;" horiz-adv-x="723" 
d="M202 0h-117v649h89v-536l349 536h117v-649h-89v545zM492 830q-4 -56 -43.5 -91.5t-94.5 -35.5q-56 0 -95.5 35.5t-42.5 91.5h86q14 -39 27 -53t46 -14q28 0 44.5 15.5t27.5 51.5h45z" />
    <glyph glyph-name="uni048B" unicode="&#x48b;" horiz-adv-x="608" 
d="M195 0h-117v484h85v-391l250 391h117v-484h-85v400zM455 679q-4 -56 -43.5 -91.5t-94.5 -35.5q-56 0 -95.5 35.5t-42.5 91.5h86q14 -39 27 -53t46 -14q28 0 44.5 15.5t27.5 51.5h45z" />
    <glyph glyph-name="uni048C" unicode="&#x48c;" horiz-adv-x="570" 
d="M21 511v63h63v75h97v-75h86v-63h-86v-142h97q49 0 82.5 -2.5t67 -10.5t53.5 -22t32 -38.5t12 -58.5v-96q0 -141 -229 -141h-212v511h-63zM430 145v81q0 43 -32.5 60t-106.5 17h-111v-237h109q26 0 43.5 1.5t43.5 8.5t40 24.5t14 44.5z" />
    <glyph glyph-name="uni048D" unicode="&#x48d;" horiz-adv-x="533" 
d="M21 511v63h63v75h92v-75h91v-63h-91v-202h144q89 0 129 -21t40 -83v-100q0 -105 -177 -105h-228v511h-63zM401 117v61q0 42 -17.5 56.5t-75.5 14.5h-133v-191h131q18 0 30.5 1.5t29.5 6t26 18t9 33.5z" />
    <glyph glyph-name="uni048E" unicode="&#x48e;" horiz-adv-x="570" 
d="M477 181l-68 67q-52 -14 -131 -14h-97v-234h-97v649h212q40 0 69 -2t61.5 -9.5t52 -21t33 -37.5t13.5 -58v-135q0 -73 -52 -109l50 -50zM430 391v118q0 27 -14 44.5t-40 24.5t-43.5 8.5t-43.5 1.5h-109v-293h111q35 0 64 7l-55 55l47 47l66 -67q17 24 17 54z" />
    <glyph glyph-name="uni048F" unicode="&#x48f;" horiz-adv-x="579" 
d="M480 -67l-69 69q-47 -12 -117 -12q-40 0 -78 10t-48 31v-217h-90v670h89v-52h1q11 62 165 62q97 0 141.5 -40.5t44.5 -96.5v-199q0 -84 -47 -125l54 -54zM427 147v178q0 67 -29 85.5t-103 18.5q-75 0 -103.5 -18.5t-28.5 -85.5v-178q0 -61 29.5 -78.5t103.5 -17.5
q35 0 62 3l-55 55l47 47l66 -67q11 22 11 58z" />
    <glyph glyph-name="afii10050" unicode="&#x490;" horiz-adv-x="560" 
d="M530 581h-349v-581h-97v649h369v113h77v-181z" />
    <glyph glyph-name="afii10098" unicode="&#x491;" horiz-adv-x="440" 
d="M410 418h-236v-418h-90v484h256v92h70v-158z" />
    <glyph glyph-name="uni0492" unicode="&#x492;" horiz-adv-x="560" 
d="M10 301v68h74v280h446v-68h-349v-212h243v-68h-243v-301h-97v301h-74z" />
    <glyph glyph-name="uni0493" unicode="&#x493;" horiz-adv-x="450" 
d="M23 264h61v220h336v-66h-246v-154h136v-66h-136v-198h-90v198h-61v66z" />
    <glyph glyph-name="uni0494" unicode="&#x494;" horiz-adv-x="670" 
d="M588 145q0 -158 -70.5 -246.5t-198.5 -88.5q-81 0 -148.5 37.5t-76.5 91.5h86q8 -23 48 -39.5t88 -16.5q88 0 137.5 67t49.5 186q0 112 -40 171t-119 59q-68 0 -164 -41v-325h-96v649h415v-68h-319v-193q93 43 176 43q111 0 171.5 -75t60.5 -211z" />
    <glyph glyph-name="uni0495" unicode="&#x495;" horiz-adv-x="549" 
d="M491 44q0 -105 -61.5 -169.5t-158.5 -64.5q-80 0 -134.5 34.5t-61.5 91.5h82q20 -67 114 -67q60 0 96 48t36 120t-40.5 115t-110.5 43q-40 0 -95 -13v-182h-91v484h385v-57h-294v-182q51 16 106 16q99 0 163.5 -62t64.5 -155z" />
    <glyph glyph-name="uni0496" unicode="&#x496;" horiz-adv-x="954" 
d="M973 -180h-80v180h-49l-184 202q-59 64 -85.5 81.5t-49.5 17.5v-301h-97v301q-23 0 -49.5 -17.5t-85.5 -81.5l-184 -202h-115l182 202q110 122 147 131q-28 7 -46.5 23.5t-37.5 49.5l-63 104q-23 38 -42.5 54.5t-44.5 16.5h-51v68h45q71 0 96.5 -15t66.5 -78l89 -139
q20 -32 35 -40.5t58 -8.5v281h97v-281q43 0 58 8.5t35 40.5l89 139q41 63 66.5 78t96.5 15h45v-68h-51q-25 0 -44.5 -16.5t-42.5 -54.5l-63 -104q-19 -33 -37.5 -49.5t-46.5 -23.5q37 -9 147 -131l121 -135h75v-247z" />
    <glyph glyph-name="uni0497" unicode="&#x497;" horiz-adv-x="742" 
d="M758 -180h-80v180h-40l-132 150q-30 33 -50 50.5t-29 20.5t-21 3v-224h-83v224q-12 0 -21 -3t-29 -20.5t-50 -50.5l-132 -150h-105l135 150q82 91 110 98q-36 9 -62 54l-48 78q-31 53 -64 53h-39v51h48q54 0 73.5 -11t48.5 -58l65 -105q15 -24 26.5 -30.5t43.5 -6.5v211
h83v-211q32 0 43.5 6.5t26.5 30.5l65 105q29 47 48.5 58t73.5 11h47v-51h-39q-33 0 -64 -53l-48 -78q-26 -45 -62 -54q28 -7 110 -98l74 -83h77v-247z" />
    <glyph glyph-name="uni0498" unicode="&#x498;" 
d="M503 249v-120q0 -39 -15 -66.5t-43.5 -42t-58 -21t-68.5 -8.5q10 -50 10 -75q0 -48 -28.5 -77t-76.5 -29q-49 0 -105 29v57q43 -22 81 -22q31 0 50 20.5t19 52.5q0 21 -6 43q-84 1 -185 19v72q121 -25 189 -25q30 0 48 1.5t43.5 8t38.5 23t13 42.5v101q0 21 -11.5 34.5
t-33 19t-38.5 7t-41 1.5h-125v62h108q24 0 40.5 1.5t38.5 7t34 19.5t12 36v100q0 52 -120 52q-43 0 -109 -5.5t-74 -5.5v65q122 8 182 8q107 0 159.5 -24t52.5 -85v-109q0 -33 -26 -52.5t-63 -25.5v-4q23 -4 39 -8.5t33.5 -13.5t26.5 -25t9 -38z" />
    <glyph glyph-name="uni0499" unicode="&#x499;" horiz-adv-x="497" 
d="M466 174v-50q0 -37 -13.5 -63t-39 -40t-53 -20.5t-63.5 -8.5q11 -49 11 -76q0 -48 -28.5 -77t-76.5 -29q-49 0 -105 29v57q43 -22 81 -22q31 0 50 20.5t19 52.5q0 21 -6 43h-3q-67 0 -179 17v71q107 -22 178 -22q29 0 46.5 1.5t41 8t35 23t11.5 42.5v31q0 21 -11.5 34.5
t-33 19t-38.5 7t-41 1.5h-105v62h88q24 0 40.5 1.5t38.5 7t34 19.5t12 36v30q0 52 -120 52h-16q-78 0 -147 -12v65q75 9 162 9q72 0 112 -7q50 -8 75 -31t25 -71v-39q0 -33 -27 -53t-64 -26v-2q110 -17 110 -91z" />
    <glyph glyph-name="uni049A" unicode="&#x49a;" horiz-adv-x="611" 
d="M635 -180h-80v180h-54l-184 202q-59 64 -85.5 81.5t-49.5 17.5v-301h-97v649h97v-281q41 0 62 18t60 76l61 92q41 62 71 78.5t101 16.5h35v-68h-41q-54 0 -97 -71l-44 -73q-20 -34 -50 -63t-57 -36q36 -9 151 -136l121 -135h80v-247z" />
    <glyph glyph-name="uni049B" unicode="&#x49b;" horiz-adv-x="503" 
d="M518 -180h-76v180h-43l-132 150q-30 33 -50 50.5t-29 20.5t-21 3v-224h-83v484h83v-211q33 0 50.5 10.5t39.5 46.5l49 79q29 46 56 60.5t82 14.5h27v-51h-19q-51 0 -84 -53l-38 -62q-35 -61 -72 -70q28 -7 110 -98l74 -83h76v-247z" />
    <glyph glyph-name="uni049C" unicode="&#x49c;" horiz-adv-x="611" 
d="M244 77v197q-33 27 -62 27v-301h-97v649h97v-281q38 0 62 18v178h47v-122l74 112q41 62 70.5 78.5t101.5 16.5h35v-68h-41q-54 0 -97 -71l-44 -73q-47 -76 -99 -96v-6q38 -17 143 -133l182 -202h-115l-210 229v-152h-47z" />
    <glyph glyph-name="uni049D" unicode="&#x49d;" horiz-adv-x="503" 
d="M209 57v150q-21 17 -42 17v-224h-83v484h83v-211q28 0 42 6v165h47v-116l50 81q29 46 56 60.5t82 14.5h27v-51h-19q-51 0 -84 -53l-38 -62q-35 -61 -72 -70q28 -7 110 -98l135 -150h-104l-132 150l-11 12v-105h-47z" />
    <glyph glyph-name="uni049E" unicode="&#x49e;" horiz-adv-x="611" 
d="M85 649h97v-68h95v-52h-95v-161q41 0 62 18t60 76l61 92q41 62 71 78.5t101 16.5h35v-68h-41q-54 0 -97 -71l-44 -73q-20 -34 -50 -63t-57 -36q36 -9 151 -136l182 -202h-115l-184 202q-59 64 -85.5 81.5t-49.5 17.5v-301h-97v529h-95v52h95v68z" />
    <glyph glyph-name="uni049F" unicode="&#x49f;" horiz-adv-x="503" 
d="M84 0v360h-64v52h64v72h83v-72h70v-52h-70v-87q33 0 50.5 10.5t39.5 46.5l49 79q29 46 56 60.5t82 14.5h27v-51h-19q-51 0 -84 -53l-38 -62q-35 -61 -72 -70q28 -7 110 -98l135 -150h-104l-132 150q-30 33 -50 50.5t-29 20.5t-21 3v-224h-83z" />
    <glyph glyph-name="uni04A0" unicode="&#x4a0;" horiz-adv-x="771" 
d="M342 0h-98v581h-220v68h318v-281q41 0 62 18t60 76l61 92q40 62 70 78.5t102 16.5h35v-68h-41q-54 0 -97 -71l-44 -73q-20 -34 -50 -63t-57 -36q36 -9 151 -136l182 -202h-115l-184 202q-59 64 -85.5 81.5t-49.5 17.5v-301z" />
    <glyph glyph-name="uni04A1" unicode="&#x4a1;" horiz-adv-x="631" 
d="M402 150q-43 48 -62 61t-36 13v-224h-90v418h-190v66h280v-211q33 0 49.5 10.5t38.5 46.5l49 79q29 46 56 60.5t82 14.5h34v-51h-19q-51 0 -84 -53l-38 -62q-35 -61 -72 -70q28 -7 110 -98l135 -150h-111z" />
    <glyph glyph-name="uni04A2" unicode="&#x4a2;" horiz-adv-x="707" 
d="M685 -180h-80v180h-79v301h-345v-301h-97v649h97v-280h345v280h97v-582h62v-247z" />
    <glyph glyph-name="uni04A3" unicode="&#x4a3;" horiz-adv-x="577" 
d="M554 -180h-80v180h-71v217h-229v-217h-90v484h90v-201h229v201h90v-417h61v-247z" />
    <glyph glyph-name="uni04A4" unicode="&#x4a4;" horiz-adv-x="791" 
d="M623 0h-97v301h-345v-301h-97v649h97v-280h345v280h265v-68h-168v-581z" />
    <glyph glyph-name="uni04A5" unicode="&#x4a5;" horiz-adv-x="654" 
d="M493 0h-90v217h-229v-217h-90v484h90v-201h229v201h251v-65h-161v-419z" />
    <glyph glyph-name="uni04A6" unicode="&#x4a6;" horiz-adv-x="1093" 
d="M603 0h-97v582h-325v-582h-97v649h519v-282q93 43 176 43q112 0 172 -71t60 -205q0 -156 -70 -240t-199 -84q-83 0 -149.5 33t-75.5 86h86q8 -22 46.5 -34t89.5 -12q89 0 138 62.5t49 179.5q0 220 -159 220q-68 0 -164 -41v-304z" />
    <glyph glyph-name="uni04A7" unicode="&#x4a7;" horiz-adv-x="885" 
d="M827 44q0 -105 -61.5 -169.5t-158.5 -64.5q-80 0 -134.5 34.5t-61.5 91.5h82q20 -67 114 -67q60 0 96 48t36 120t-40.5 115t-110.5 43q-40 0 -95 -13v-182h-91v418h-228v-418h-90v484h409v-239q51 16 106 16q99 0 163.5 -62t64.5 -155z" />
    <glyph glyph-name="uni04A8" unicode="&#x4a8;" horiz-adv-x="700" 
d="M655 -18v-76q-133 9 -220 90q-25 -6 -72 -6q-151 0 -232 99q-73 90 -73 240q0 146 81 238q82 94 226 94q104 0 175 -59l-50 -50q-46 44 -127 44q-106 0 -167 -86q-50 -68 -50 -180q0 -115 47 -185q62 -91 163 -91l25 2q-48 87 -48 197q0 101 34 150q39 62 134 62
q154 0 154 -207q0 -74 -34.5 -135t-98.5 -97q68 -42 133 -44zM574 257q0 67 -19 104.5t-54 37.5q-51 0 -71 -46q-12 -28 -12 -100q0 -110 46 -177q54 24 82 71t28 110z" />
    <glyph glyph-name="uni04A9" unicode="&#x4a9;" horiz-adv-x="521" 
d="M459 -13v-71q-89 38 -137 84q-25 -7 -56 -7q-104 0 -161.5 67t-57.5 182q0 116 57 184.5t162 68.5q76 0 126 -38l-53 -43q-29 24 -69 24q-69 0 -104.5 -50t-35.5 -143q0 -94 34 -144.5t101 -50.5h9q-49 79 -49 166q0 55 31.5 89t83.5 34q119 0 119 -128q0 -119 -69 -180
q28 -25 69 -44zM385 212q0 40 -10.5 55.5t-34.5 15.5q-40 0 -40 -70q0 -81 40 -133q45 37 45 132z" />
    <glyph glyph-name="uni04AA" unicode="&#x4aa;" horiz-adv-x="564" 
d="M519 9q-86 -18 -166 -19q13 -52 13 -81q0 -46 -28 -74q-27 -28 -74 -28q-48 0 -101 28v56q41 -22 78 -22q30 0 48.5 20t18.5 51q0 19 -9 51q-235 13 -235 175v308q0 186 273 186q91 0 178 -19v-72q-96 24 -176 24q-38 0 -67 -4.5t-57 -16t-43 -36t-15 -61.5v-304
q0 -112 186 -112q80 0 176 24v-74z" />
    <glyph glyph-name="uni04AB" unicode="&#x4ab;" horiz-adv-x="464" 
d="M428 4q-51 -11 -125 -13q13 -54 13 -82q0 -46 -28 -74q-27 -28 -74 -28q-48 0 -101 28v56q41 -22 78 -22q30 0 48.5 20t18.5 51q0 25 -9 50q-46 0 -75 5t-58 20t-42.5 48t-13.5 85v178q0 40 7.5 69t23.5 47t33 29t46.5 15.5t52 6t60.5 1.5q69 0 138 -15v-66
q-78 20 -149 20q-77 0 -98.5 -16t-21.5 -78v-200q0 -53 25 -69.5t105 -16.5q71 0 146 19v-68z" />
    <glyph glyph-name="uni04AC" unicode="&#x4ac;" horiz-adv-x="585" 
d="M402 -180h-80v180h-78v581h-220v68h537v-68h-219v-514h60v-247z" />
    <glyph glyph-name="uni04AD" unicode="&#x4ad;" horiz-adv-x="517" 
d="M364 -180h-80v180h-70v418h-190v66h469v-66h-189v-351h60v-247z" />
    <glyph glyph-name="uni04AE" unicode="&#x4ae;" horiz-adv-x="584" 
d="M576 649l-236 -384v-265h-97v262l-235 387h111l173 -305l173 305h111z" />
    <glyph glyph-name="uni04AF" unicode="&#x4af;" horiz-adv-x="463" 
d="M276 -208h-90v229l-180 463h95l134 -366h5l130 366h87l-181 -483v-209z" />
    <glyph glyph-name="uni04B0" unicode="&#x4b0;" horiz-adv-x="584" 
d="M40 301v68h138l-170 280h111l173 -305l173 305h111l-172 -280h120v-68h-162l-22 -36v-265h-97v262l-24 39h-179z" />
    <glyph glyph-name="uni04B1" unicode="&#x4b1;" horiz-adv-x="463" 
d="M30 -68v68h156v21l-180 463h95l134 -366h5l130 366h87l-181 -480v-4h157v-68h-157v-140h-90v140h-156z" />
    <glyph glyph-name="uni04B2" unicode="&#x4b2;" horiz-adv-x="604" 
d="M625 -180h-80v180h-60l-183 264l-183 -264h-111l239 331l-229 318h111l173 -251l173 251h111l-229 -318l190 -264h78v-247z" />
    <glyph glyph-name="uni04B3" unicode="&#x4b3;" horiz-adv-x="479" 
d="M497 -180h-80v180h-47l-131 191l-130 -191h-99l180 249l-170 235h99l120 -177l121 177h99l-170 -235l131 -182h77v-247z" />
    <glyph glyph-name="uni04B4" unicode="&#x4b4;" horiz-adv-x="925" 
d="M805 68v-248h-85v180h-489v581h-209v68h517v-68h-210v-513h320v581h97v-581h59z" />
    <glyph glyph-name="uni04B5" unicode="&#x4b5;" horiz-adv-x="691" 
d="M662 66v-213h-75v147h-401v418h-167v66h424v-66h-167v-352h239v418h90v-418h57z" />
    <glyph glyph-name="uni04B6" unicode="&#x4b6;" horiz-adv-x="610" 
d="M585 -180h-80v180h-76v298q-8 -37 -56.5 -53t-115.5 -16q-188 0 -188 139v281h96v-275q0 -80 118 -80q85 0 115.5 19t30.5 61v275h97v-582h59v-247z" />
    <glyph glyph-name="uni04B7" unicode="&#x4b7;" horiz-adv-x="573" 
d="M555 -180h-80v180h-68v222q-14 -69 -161 -69q-96 0 -132 34.5t-36 104.5v192h90v-187q0 -18 3 -30t12.5 -24.5t32 -19t56.5 -6.5q79 0 106 17t27 63v187h90v-417h60v-247z" />
    <glyph glyph-name="uni04B8" unicode="&#x4b8;" horiz-adv-x="610" 
d="M273 118v111h-16q-188 0 -188 139v281h96v-275q0 -78 108 -80v130h47v-129q62 4 85.5 23t23.5 56v275h97v-649h-97v298q-11 -52 -109 -65v-115h-47z" />
    <glyph glyph-name="uni04B9" unicode="&#x4b9;" horiz-adv-x="573" 
d="M255 68v85h-9q-96 0 -132 34.5t-36 104.5v192h90v-187q0 -23 4.5 -37.5t24.5 -27.5t58 -15v157h47v-157q60 3 81.5 21t21.5 59v187h90v-484h-88v222q-12 -54 -105 -66v-88h-47z" />
    <glyph glyph-name="uni04BA" unicode="&#x4ba;" horiz-adv-x="625" 
d="M561 0h-96v275q0 34 -30.5 57t-97.5 23q-86 0 -121 -19.5t-35 -60.5v-275h-97v649h97v-298q8 36 61 52.5t121 16.5q100 0 149 -36.5t49 -102.5v-281z" />
    <glyph glyph-name="uni04BB" unicode="&#x4bb;" horiz-adv-x="573" 
d="M495 0h-90v349q0 18 -3 30t-12.5 24.5t-32 19t-56.5 6.5q-83 0 -108 -18t-25 -62v-349h-90v700h90v-275q14 69 159 69q96 0 132 -34.5t36 -104.5v-355z" />
    <glyph glyph-name="uni04BC" unicode="&#x4bc;" horiz-adv-x="750" 
d="M684 288h-459v-109q0 -125 223 -125q83 0 211 32v-70q-126 -26 -249 -26q-124 0 -201.5 47t-77.5 149v255q0 119 68 169t217 50q139 0 203.5 -48t64.5 -171v-153zM590 357v135q0 104 -177 104q-87 0 -137.5 -22.5t-50.5 -81.5v-135h365zM131 357v-59q-67 0 -98.5 23
t-31.5 76q0 29 9 65l68 -16q-6 -20 -6 -39q0 -27 13.5 -38.5t45.5 -11.5z" />
    <glyph glyph-name="uni04BD" unicode="&#x4bd;" horiz-adv-x="604" 
d="M545 222h-325v-73q0 -51 36.5 -72.5t110.5 -21.5q65 0 159 24v-69q-94 -20 -187 -20t-151.5 35.5t-58.5 112.5v84q-67 0 -98.5 23t-31.5 76q0 29 9 65l68 -16q-6 -20 -6 -39q0 -27 13.5 -38.5t45.5 -11.5v48q0 89 51 127t163 38q105 0 153.5 -36.5t48.5 -128.5v-107z
M455 281v76q0 44 -26.5 60.5t-87.5 16.5q-62 0 -91.5 -15.5t-29.5 -61.5v-76h235z" />
    <glyph glyph-name="uni04BE" unicode="&#x4be;" horiz-adv-x="750" 
d="M684 288h-459v-109q0 -125 223 -125q83 0 211 32v-70q-126 -26 -249 -26q-124 0 -201.5 47t-77.5 149v255q0 119 68 169t217 50q139 0 203.5 -48t64.5 -171v-153zM590 357v135q0 104 -177 104q-87 0 -137.5 -22.5t-50.5 -81.5v-135h365zM131 357v-59q-67 0 -98.5 23
t-31.5 76q0 29 9 65l68 -16q-6 -20 -6 -39q0 -27 13.5 -38.5t45.5 -11.5zM474 -186q-50 0 -74.5 18.5t-24.5 61.5q0 50 36 106h75q-32 -50 -32 -97q0 -33 39 -33q8 0 31 7v-53q-21 -10 -50 -10z" />
    <glyph glyph-name="uni04BF" unicode="&#x4bf;" horiz-adv-x="604" 
d="M398 -183q-50 0 -74.5 18.5t-24.5 61.5q0 50 36 106h75q-32 -50 -32 -97q0 -33 39 -33q8 0 31 7v-53q-21 -10 -50 -10zM545 222h-325v-73q0 -51 36.5 -72.5t110.5 -21.5q65 0 159 24v-69q-94 -20 -187 -20t-151.5 35.5t-58.5 112.5v84q-67 0 -98.5 23t-31.5 76q0 29 9 65
l68 -16q-6 -20 -6 -39q0 -27 13.5 -38.5t45.5 -11.5v48q0 89 51 127t163 38q105 0 153.5 -36.5t48.5 -128.5v-107zM455 281v76q0 44 -26.5 60.5t-87.5 16.5q-62 0 -91.5 -15.5t-29.5 -61.5v-76h235z" />
    <glyph glyph-name="uni04C0" unicode="&#x4c0;" horiz-adv-x="265" 
d="M181 0h-97v649h97v-649z" />
    <glyph glyph-name="uni04C1" unicode="&#x4c1;" horiz-adv-x="954" 
d="M428 368v281h97v-281q43 0 58 8.5t35 40.5l89 139q41 63 66.5 78t96.5 15h45v-68h-51q-25 0 -44.5 -16.5t-42.5 -54.5l-63 -104q-19 -33 -37.5 -49.5t-46.5 -23.5q37 -9 147 -131l182 -202h-115l-184 202q-59 64 -85.5 81.5t-49.5 17.5v-301h-97v301q-23 0 -49.5 -17.5
t-85.5 -81.5l-184 -202h-115l182 202q110 122 147 131q-28 7 -46.5 23.5t-37.5 49.5l-63 104q-23 38 -42.5 54.5t-44.5 16.5h-51v68h45q71 0 96.5 -15t66.5 -78l89 -139q20 -32 35 -40.5t58 -8.5zM477 718q-54 0 -85 34.5t-33 92.5h54q6 -68 64 -68t64 68h54
q-2 -58 -33 -92.5t-85 -34.5z" />
    <glyph glyph-name="uni04C2" unicode="&#x4c2;" horiz-adv-x="728" 
d="M323 273v211h83v-211q32 0 42.5 6.5t25.5 30.5l65 105q29 47 48.5 58t73.5 11h49v-51h-39q-33 0 -64 -53l-48 -78q-26 -45 -62 -54q28 -7 110 -98l135 -150h-106l-132 150q-43 48 -62 61t-36 13v-224h-83v224q-17 0 -36 -13t-62 -61l-132 -150h-107l135 150q82 91 110 98
q-36 9 -62 54l-48 78q-31 53 -64 53h-39v51h50q54 0 73.5 -11t48.5 -58l65 -105q15 -24 25.5 -30.5t42.5 -6.5zM364 553q-54 0 -85 34.5t-33 92.5h54q6 -68 64 -68t64 68h54q-2 -58 -33 -92.5t-85 -34.5z" />
    <glyph glyph-name="uni04C3" unicode="&#x4c3;" horiz-adv-x="667" 
d="M586 113q0 -145 -71 -224.5t-199 -79.5q-82 0 -150 38t-76 91h85q11 -24 50 -40t88 -16q87 0 134.5 58.5t47.5 164.5q0 91 -45.5 145t-126.5 54h-142v-304h-97v649h97v-285q56 0 78.5 21.5t60.5 111.5q29 69 45.5 91.5t49.5 42.5q32 18 71 18q51 0 52 -1v-74
q-4 0 -17 0.5t-17 0.5q-40 0 -61.5 -19t-46.5 -85q-33 -83 -57 -107q117 0 182 -66.5t65 -184.5z" />
    <glyph glyph-name="uni04C4" unicode="&#x4c4;" horiz-adv-x="543" 
d="M501 49q0 -104 -64.5 -171.5t-163.5 -67.5q-78 0 -132 36.5t-63 95.5h82q21 -65 113 -65q61 0 101 45.5t40 118.5q0 76 -40 119t-111 43h-95v-203h-90v484h90v-209q35 0 51 12.5t32 48.5l45 99q15 31 36 40t73 9h17v-68h-24q-29 0 -39.5 -10.5t-29.5 -58.5
q-17 -43 -44 -72q95 0 155.5 -63.5t60.5 -162.5z" />
    <glyph glyph-name="uni04C5" unicode="&#x4c5;" horiz-adv-x="656" 
d="M578 84h89l-91 -283h-84l67 199h-78v581h-255v-378q0 -119 -31.5 -166t-110.5 -47q-32 0 -75 12l16 66q23 -9 40 -9q37 0 50.5 28t13.5 110v452h449v-565z" />
    <glyph glyph-name="uni04C6" unicode="&#x4c6;" horiz-adv-x="656" 
d="M545 84h89l-91 -283h-84l67 199h-71v418h-229v-205q0 -123 -31.5 -174t-110.5 -51q-32 0 -75 12l16 66q23 -9 40 -9q38 0 54.5 29t16.5 109v289h409v-400z" />
    <glyph glyph-name="uni04C7" unicode="&#x4c7;" horiz-adv-x="707" 
d="M623 649v-519q0 -173 -75 -246.5t-209 -73.5q-107 0 -171.5 36t-73.5 93h86q20 -56 156 -56q97 0 143.5 56t46.5 197v165h-345v-301h-97v649h97v-280h345v280h97z" />
    <glyph glyph-name="uni04C8" unicode="&#x4c8;" horiz-adv-x="577" 
d="M493 484v-450q0 -104 -57.5 -164t-155.5 -60q-80 0 -134.5 34.5t-61.5 91.5h82q20 -67 114 -67q60 0 91.5 42.5t31.5 115.5v190h-229v-217h-90v484h90v-201h229v201h90z" />
    <glyph glyph-name="uni04C9" unicode="&#x4c9;" horiz-adv-x="707" 
d="M633 -180h-80l51 180h-78v301h-345v-301h-97v649h97v-280h345v280h97v-582h80z" />
    <glyph glyph-name="uni04CA" unicode="&#x4ca;" horiz-adv-x="577" 
d="M503 -180h-80l51 180h-71v217h-229v-217h-90v484h90v-201h229v201h90v-417h80z" />
    <glyph glyph-name="uni04CB" unicode="&#x4cb;" horiz-adv-x="610" 
d="M448 -180h-80v247h61v231q-8 -37 -56.5 -53t-115.5 -16q-188 0 -188 139v281h96v-275q0 -80 118 -80q85 0 115.5 19t30.5 61v275h97v-649h-78v-180z" />
    <glyph glyph-name="uni04CC" unicode="&#x4cc;" horiz-adv-x="573" 
d="M427 -180h-80v247h60v155q-14 -69 -161 -69q-96 0 -132 34.5t-36 104.5v192h90v-187q0 -18 3 -30t12.5 -24.5t32 -19t56.5 -6.5q79 0 106 17t27 63v187h90v-484h-68v-180z" />
    <glyph glyph-name="uni04CD" unicode="&#x4cd;" horiz-adv-x="861" 
d="M786 -180h-80l51 180h-65v549h-5l-209 -549h-87l-215 549h-5v-549h-87v649h145l208 -540l3 -1l197 541h140v-582h79z" />
    <glyph glyph-name="uni04CE" unicode="&#x4ce;" horiz-adv-x="741" 
d="M667 -180h-80l51 180h-64v402h-5l-149 -402h-91l-155 402h-5v-402h-85v484h145l147 -394h4l137 394h140v-417h80z" />
    <glyph glyph-name="uni04CF" unicode="&#x4cf;" horiz-adv-x="265" 
d="M181 0h-97v649h97v-649z" />
    <glyph glyph-name="uni04D0" unicode="&#x4d0;" horiz-adv-x="652" 
d="M637 0h-101l-74 197h-278l-73 -197h-96l258 649h112zM438 264l-110 293h-9l-110 -293h229zM326 718q-54 0 -85 34.5t-33 92.5h54q6 -68 64 -68t64 68h54q-2 -58 -33 -92.5t-85 -34.5z" />
    <glyph glyph-name="uni04D1" unicode="&#x4d1;" horiz-adv-x="538" 
d="M460 0h-87v46q-11 -56 -146 -56q-100 0 -138.5 30.5t-38.5 123.5q0 81 36 111.5t139 30.5h145v77q0 40 -24.5 54t-92.5 14q-74 0 -166 -12v66q99 9 179 9q122 0 158 -29.5t36 -122.5v-342zM370 96v134h-139q-62 0 -77.5 -16t-15.5 -73q0 -52 16.5 -73t69.5 -21h18
q26 0 43.5 1t39.5 5.5t33.5 15t11.5 27.5zM269 553q-54 0 -85 34.5t-33 92.5h54q6 -68 64 -68t64 68h54q-2 -58 -33 -92.5t-85 -34.5z" />
    <glyph glyph-name="uni04D2" unicode="&#x4d2;" horiz-adv-x="652" 
d="M637 0h-101l-74 197h-278l-73 -197h-96l258 649h112zM438 264l-110 293h-9l-110 -293h229zM286 730h-90v94h90v-94zM456 730h-90v94h90v-94z" />
    <glyph glyph-name="uni04D3" unicode="&#x4d3;" horiz-adv-x="538" 
d="M460 0h-87v46q-11 -56 -146 -56q-100 0 -138.5 30.5t-38.5 123.5q0 81 36 111.5t139 30.5h145v77q0 40 -24.5 54t-92.5 14q-74 0 -166 -12v66q99 9 179 9q122 0 158 -29.5t36 -122.5v-342zM370 96v134h-139q-62 0 -77.5 -16t-15.5 -73q0 -52 16.5 -73t69.5 -21h18
q26 0 43.5 1t39.5 5.5t33.5 15t11.5 27.5zM229 565h-90v94h90v-94zM399 565h-90v94h90v-94z" />
    <glyph glyph-name="uni04D4" unicode="&#x4d4;" horiz-adv-x="923" 
d="M873 0h-416v197h-246l-102 -197h-109l358 649h505v-68h-309v-212h276v-68h-276v-233h319v-68zM457 264v317h-48l-164 -317h212z" />
    <glyph glyph-name="uni04D5" unicode="&#x4d5;" horiz-adv-x="840" 
d="M781 222h-315v-73q0 -51 33.5 -72.5t104.5 -21.5q64 0 158 24v-69q-91 -20 -173 -20q-127 0 -181 57q-14 -57 -178 -57q-105 0 -142.5 29.5t-37.5 120.5q0 84 35.5 115t139.5 31h150v75q0 38 -25.5 54t-88.5 16q-110 0 -174 -17v66q75 14 186 14q119 0 158 -35
q49 35 153 35t150.5 -36t46.5 -129v-107zM691 281v76q0 45 -24.5 61t-86.5 16q-59 0 -86.5 -16t-27.5 -61v-76h225zM375 109v121h-144q-62 0 -77.5 -16t-15.5 -73q0 -54 16.5 -74t79.5 -20q28 0 43 0.5t37 4t33 9.5t19.5 18t8.5 30z" />
    <glyph glyph-name="uni04D6" unicode="&#x4d6;" 
d="M530 0h-446v649h436v-68h-339v-212h306v-68h-306v-233h349v-68zM290 718q-54 0 -85 34.5t-33 92.5h54q6 -68 64 -68t64 68h54q-2 -58 -33 -92.5t-85 -34.5z" />
    <glyph glyph-name="uni04D7" unicode="&#x4d7;" horiz-adv-x="535" 
d="M476 222h-325v-73q0 -51 36.5 -72.5t110.5 -21.5q65 0 159 24v-69q-94 -20 -187 -20t-151.5 35.5t-58.5 112.5v191q0 89 51 127t163 38q105 0 153.5 -36.5t48.5 -128.5v-107zM386 281v76q0 44 -26.5 60.5t-87.5 16.5q-62 0 -91.5 -15.5t-29.5 -61.5v-76h235zM267 553
q-54 0 -85 34.5t-33 92.5h54q6 -68 64 -68t64 68h54q-2 -58 -33 -92.5t-85 -34.5z" />
    <glyph glyph-name="uni04D8" unicode="&#x4d8;" horiz-adv-x="681" 
d="M62 362h459v109q0 125 -223 125q-83 0 -211 -32v70q126 26 249 26q124 0 201.5 -47t77.5 -149v-255q0 -119 -68 -169t-217 -50q-139 0 -203.5 48t-64.5 171v153zM156 293v-135q0 -104 177 -104q87 0 137.5 22.5t50.5 81.5v135h-365z" />
    <glyph glyph-name="uni04D9" unicode="&#x4d9;" horiz-adv-x="535" 
d="M62 262h325v73q0 51 -36.5 72.5t-110.5 21.5q-65 0 -159 -24v69q94 20 187 20t151.5 -35.5t58.5 -112.5v-191q0 -89 -51 -127t-163 -38q-105 0 -153.5 36.5t-48.5 128.5v107zM152 203v-76q0 -44 26.5 -60.5t87.5 -16.5q62 0 91.5 15.5t29.5 61.5v76h-235z" />
    <glyph glyph-name="uni04DA" unicode="&#x4da;" horiz-adv-x="681" 
d="M62 362h459v109q0 125 -223 125q-83 0 -211 -32v70q126 26 249 26q124 0 201.5 -47t77.5 -149v-255q0 -119 -68 -169t-217 -50q-139 0 -203.5 48t-64.5 171v153zM156 293v-135q0 -104 177 -104q87 0 137.5 22.5t50.5 81.5v135h-365zM300 730h-90v94h90v-94zM470 730h-90
v94h90v-94z" />
    <glyph glyph-name="uni04DB" unicode="&#x4db;" horiz-adv-x="535" 
d="M60 262h325v73q0 51 -36.5 72.5t-110.5 21.5q-65 0 -159 -24v69q94 20 187 20t151.5 -35.5t58.5 -112.5v-191q0 -89 -51 -127t-163 -38q-105 0 -153.5 36.5t-48.5 128.5v107zM150 203v-76q0 -44 26.5 -60.5t87.5 -16.5q62 0 91.5 15.5t29.5 61.5v76h-235zM227 565h-90v94
h90v-94zM397 565h-90v94h90v-94z" />
    <glyph glyph-name="uni04DC" unicode="&#x4dc;" horiz-adv-x="954" 
d="M428 368v281h97v-281q43 0 58 8.5t35 40.5l89 139q41 63 66.5 78t96.5 15h45v-68h-51q-25 0 -44.5 -16.5t-42.5 -54.5l-63 -104q-19 -33 -37.5 -49.5t-46.5 -23.5q37 -9 147 -131l182 -202h-115l-184 202q-59 64 -85.5 81.5t-49.5 17.5v-301h-97v301q-23 0 -49.5 -17.5
t-85.5 -81.5l-184 -202h-115l182 202q110 122 147 131q-28 7 -46.5 23.5t-37.5 49.5l-63 104q-23 38 -42.5 54.5t-44.5 16.5h-51v68h45q71 0 96.5 -15t66.5 -78l89 -139q20 -32 35 -40.5t58 -8.5zM437 730h-90v94h90v-94zM607 730h-90v94h90v-94z" />
    <glyph glyph-name="uni04DD" unicode="&#x4dd;" horiz-adv-x="756" 
d="M337 273v211h83v-211q32 0 42.5 6.5t25.5 30.5l65 105q29 47 48.5 58t73.5 11h49v-51h-39q-33 0 -64 -53l-48 -78q-26 -45 -62 -54q28 -7 110 -98l135 -150h-106l-132 150q-43 48 -62 61t-36 13v-224h-83v224q-17 0 -36 -13t-62 -61l-132 -150h-107l135 150q82 91 110 98
q-36 9 -62 54l-48 78q-31 53 -64 53h-39v51h50q54 0 73.5 -11t48.5 -58l65 -105q15 -24 25.5 -30.5t42.5 -6.5zM338 565h-90v94h90v-94zM508 565h-90v94h90v-94z" />
    <glyph glyph-name="uni04DE" unicode="&#x4de;" 
d="M500 259v-130q0 -36 -15.5 -62.5t-37.5 -41t-56 -23t-62.5 -10.5t-65.5 -2q-101 0 -209 19v74q121 -25 199 -25q30 0 49.5 1.5t47 8t42 23t14.5 42.5v109q0 62 -134 62h-135v62h118q135 0 135 64v109q0 52 -130 52q-43 0 -117 -5.5t-76 -5.5v68q122 8 192 8
q109 0 165.5 -24t56.5 -85v-121q0 -33 -26 -52.5t-63 -25.5v-4q23 -4 39 -8.5t33.5 -13.5t26.5 -25t9 -38zM233 730h-90v94h90v-94zM403 730h-90v94h90v-94z" />
    <glyph glyph-name="uni04DF" unicode="&#x4df;" horiz-adv-x="497" 
d="M443 174v-50q0 -74 -56 -104t-171 -30q-67 0 -179 17v71q107 -22 178 -22q29 0 46.5 1.5t41 8t35 23t11.5 42.5v31q0 21 -11.5 34.5t-33 19t-38.5 7t-41 1.5h-105v62h88q24 0 40.5 1.5t38.5 7t34 19.5t12 36v30q0 52 -120 52h-16q-78 0 -147 -12v65q75 9 162 9
q72 0 112 -7q50 -8 75 -31t25 -71v-39q0 -33 -27 -53t-64 -26v-2q110 -17 110 -91z" />
    <glyph glyph-name="uni04E0" unicode="&#x4e0;" horiz-adv-x="604" 
d="M525 649v-67l-192 -201q83 -11 132.5 -62.5t49.5 -129.5q0 -93 -64.5 -147t-172.5 -54q-184 0 -240 195l82 21q12 -63 57 -106.5t101 -43.5q64 0 105.5 37t41.5 95q0 59 -40.5 95t-114.5 36h-38v68l191 197h-363v67h465z" />
    <glyph glyph-name="uni04E1" unicode="&#x4e1;" horiz-adv-x="545" 
d="M490 47q0 -101 -64.5 -169.5t-163.5 -68.5q-88 0 -146.5 50.5t-66.5 137.5l86 7q10 -60 42.5 -94t84.5 -34q61 0 100.5 46.5t39.5 117.5q0 70 -41.5 110.5t-112.5 40.5h-42v71l152 159q-68 -3 -92 -3h-196v67h393v-54l-167 -171q85 -4 139.5 -64t54.5 -149z" />
    <glyph glyph-name="uni04E2" unicode="&#x4e2;" horiz-adv-x="723" 
d="M202 0h-117v649h89v-536l349 536h117v-649h-89v545zM470 755h-218v59h218v-59z" />
    <glyph glyph-name="uni04E3" unicode="&#x4e3;" horiz-adv-x="598" 
d="M195 0h-117v484h85v-391l240 391h117v-484h-85v400zM413 590h-218v59h218v-59z" />
    <glyph glyph-name="uni04E4" unicode="&#x4e4;" horiz-adv-x="723" 
d="M202 0h-117v649h89v-536l349 536h117v-649h-89v545zM321 730h-90v94h90v-94zM491 730h-90v94h90v-94z" />
    <glyph glyph-name="uni04E5" unicode="&#x4e5;" horiz-adv-x="598" 
d="M195 0h-117v484h85v-391l240 391h117v-484h-85v400zM264 565h-90v94h90v-94zM434 565h-90v94h90v-94z" />
    <glyph glyph-name="uni04E6" unicode="&#x4e6;" horiz-adv-x="679" 
d="M613 474v-308q0 -53 -25.5 -90t-69.5 -54.5t-87 -24.5t-93 -7q-272 0 -272 176v307q0 186 272 186q275 0 275 -185zM519 167v309q0 120 -180 120q-38 0 -67 -4.5t-56 -17t-42 -37t-15 -61.5v-309q0 -112 181 -112q179 0 179 112zM299 730h-90v94h90v-94zM469 730h-90v94
h90v-94z" />
    <glyph glyph-name="uni04E7" unicode="&#x4e7;" horiz-adv-x="568" 
d="M506 321v-168q0 -45 -11 -76t-28 -48t-48.5 -26t-60 -11t-75.5 -2q-60 0 -93.5 4t-67 19.5t-48 49.5t-14.5 90v168q0 48 11.5 81t28 51t48.5 27.5t59.5 11.5t75.5 2t75.5 -2t59.5 -11.5t48.5 -27.5t28 -51t11.5 -81zM414 140v196q0 67 -27 83t-104 16t-104 -16t-27 -83
v-196q0 -32 7 -51t26 -27.5t39 -10.5t59 -2t59 2t39 10.5t26 27.5t7 51zM244 565h-90v94h90v-94zM414 565h-90v94h90v-94z" />
    <glyph glyph-name="uni04E8" unicode="&#x4e8;" horiz-adv-x="679" 
d="M613 474v-308q0 -53 -25.5 -90t-69.5 -54.5t-87 -24.5t-93 -7q-272 0 -272 176v307q0 186 272 186q275 0 275 -185zM519 167v134h-360v-134q0 -112 181 -112q179 0 179 112zM159 476v-107h360v107q0 120 -180 120q-38 0 -67 -4.5t-56 -17t-42 -37t-15 -61.5z" />
    <glyph glyph-name="uni04E9" unicode="&#x4e9;" horiz-adv-x="568" 
d="M506 321v-168q0 -45 -11 -76t-28 -48t-48.5 -26t-60 -11t-75.5 -2q-60 0 -93.5 4t-67 19.5t-48 49.5t-14.5 90v168q0 48 11.5 81t28 51t48.5 27.5t59.5 11.5t75.5 2t75.5 -2t59.5 -11.5t48.5 -27.5t28 -51t11.5 -81zM152 336v-63h262v63q0 67 -27 83t-104 16t-104 -16
t-27 -83zM414 140v69h-262v-69q0 -32 7 -51t26 -27.5t39 -10.5t59 -2t59 2t39 10.5t26 27.5t7 51z" />
    <glyph glyph-name="uni04EA" unicode="&#x4ea;" horiz-adv-x="679" 
d="M613 474v-308q0 -53 -25.5 -90t-69.5 -54.5t-87 -24.5t-93 -7q-272 0 -272 176v307q0 186 272 186q275 0 275 -185zM519 167v134h-360v-134q0 -112 181 -112q179 0 179 112zM159 476v-107h360v107q0 120 -180 120q-38 0 -67 -4.5t-56 -17t-42 -37t-15 -61.5zM299 730h-90
v94h90v-94zM469 730h-90v94h90v-94z" />
    <glyph glyph-name="uni04EB" unicode="&#x4eb;" horiz-adv-x="568" 
d="M506 321v-168q0 -45 -11 -76t-28 -48t-48.5 -26t-60 -11t-75.5 -2q-60 0 -93.5 4t-67 19.5t-48 49.5t-14.5 90v168q0 48 11.5 81t28 51t48.5 27.5t59.5 11.5t75.5 2t75.5 -2t59.5 -11.5t48.5 -27.5t28 -51t11.5 -81zM152 336v-63h262v63q0 67 -27 83t-104 16t-104 -16
t-27 -83zM414 140v69h-262v-69q0 -32 7 -51t26 -27.5t39 -10.5t59 -2t59 2t39 10.5t26 27.5t7 51zM244 565h-90v94h90v-94zM414 565h-90v94h90v-94z" />
    <glyph glyph-name="uni04EC" unicode="&#x4ec;" horiz-adv-x="563" 
d="M44 9v74q96 -24 176 -24q186 0 186 112v130h-330v67h330v107q0 37 -15 61.5t-43 36t-57 16t-67 4.5q-80 0 -176 -24v72q87 19 178 19q273 0 273 -186v-308q0 -176 -273 -176q-95 0 -182 19zM241 730h-90v94h90v-94zM411 730h-90v94h90v-94z" />
    <glyph glyph-name="uni04ED" unicode="&#x4ed;" horiz-adv-x="464" 
d="M36 4v68q75 -19 146 -19q80 0 105 16.5t25 69.5v73h-244v68h244v59q0 62 -21.5 78t-98.5 16q-71 0 -149 -20v66q69 15 138 15q38 0 60.5 -1.5t52 -6t46.5 -15.5t33 -29t23.5 -47t7.5 -69v-178q0 -45 -12 -75.5t-28.5 -46.5t-48 -24.5t-56 -10t-68.5 -1.5q-89 0 -155 14z
M192 565h-90v94h90v-94zM362 565h-90v94h90v-94z" />
    <glyph glyph-name="uni04EE" unicode="&#x4ee;" horiz-adv-x="537" 
d="M531 649l-231 -534q-26 -62 -65 -93.5t-109 -31.5q-38 0 -84 10v70q32 -7 61 -7q43 0 67.5 19.5t44.5 64.5l20 46l-229 456h108l167 -360l152 360h98zM377 755h-218v59h218v-59z" />
    <glyph glyph-name="uni04EF" unicode="&#x4ef;" horiz-adv-x="460" 
d="M454 484l-240 -682h-94l73 191l-187 491h98l135 -395h2l122 395h91zM339 590h-218v59h218v-59z" />
    <glyph glyph-name="uni04F0" unicode="&#x4f0;" horiz-adv-x="537" 
d="M531 649l-231 -534q-26 -62 -65 -93.5t-109 -31.5q-38 0 -84 10v70q32 -7 61 -7q43 0 67.5 19.5t44.5 64.5l20 46l-229 456h108l167 -360l152 360h98zM228 730h-90v94h90v-94zM398 730h-90v94h90v-94z" />
    <glyph glyph-name="uni04F1" unicode="&#x4f1;" horiz-adv-x="460" 
d="M454 484l-240 -682h-94l73 191l-187 491h98l135 -395h2l122 395h91zM190 565h-90v94h90v-94zM360 565h-90v94h90v-94z" />
    <glyph glyph-name="uni04F2" unicode="&#x4f2;" horiz-adv-x="537" 
d="M531 649l-231 -534q-26 -62 -65 -93.5t-109 -31.5q-38 0 -84 10v70q32 -7 61 -7q43 0 67.5 19.5t44.5 64.5l20 46l-229 456h108l167 -360l152 360h98zM241 717h-76l70 128h76zM368 717h-76l70 128h76z" />
    <glyph glyph-name="uni04F3" unicode="&#x4f3;" horiz-adv-x="460" 
d="M454 484l-240 -682h-94l73 191l-187 491h98l135 -395h2l122 395h91zM170 552h-76l70 128h76zM297 552h-76l70 128h76z" />
    <glyph glyph-name="uni04F4" unicode="&#x4f4;" horiz-adv-x="610" 
d="M69 649h96v-275q0 -80 118 -80q85 0 115.5 19t30.5 61v275h97v-649h-97v298q-8 -37 -56.5 -53t-115.5 -16q-188 0 -188 139v281zM265 730h-90v94h90v-94zM435 730h-90v94h90v-94z" />
    <glyph glyph-name="uni04F5" unicode="&#x4f5;" horiz-adv-x="573" 
d="M495 0h-88v222q-14 -69 -161 -69q-96 0 -132 34.5t-36 104.5v192h90v-187q0 -18 3 -30t12.5 -24.5t32 -19t56.5 -6.5q79 0 106 17t27 63v187h90v-484zM246 565h-90v94h90v-94zM416 565h-90v94h90v-94z" />
    <glyph glyph-name="uni04F6" unicode="&#x4f6;" horiz-adv-x="490" 
d="M245 -180h-80v180h-81v649h376v-68h-279v-514h64v-247z" />
    <glyph glyph-name="uni04F7" unicode="&#x4f7;" horiz-adv-x="430" 
d="M235 -180h-80v180h-71v484h316v-66h-226v-351h61v-247z" />
    <glyph glyph-name="uni04F8" unicode="&#x4f8;" horiz-adv-x="806" 
d="M722 0h-97v649h97v-649zM84 649h97v-280h97q49 0 82.5 -2.5t67 -10.5t53.5 -22t32 -38.5t12 -58.5v-96q0 -141 -229 -141h-212v649zM430 145v81q0 47 -30.5 62t-108.5 15h-111v-237h109q26 0 43.5 1.5t43.5 8.5t40 24.5t14 44.5zM363 730h-90v94h90v-94zM533 730h-90v94
h90v-94z" />
    <glyph glyph-name="uni04F9" unicode="&#x4f9;" horiz-adv-x="725" 
d="M646 0h-90v484h90v-484zM302 0h-218v484h92v-175h134q89 0 129 -21t40 -83v-100q0 -105 -177 -105zM391 117v61q0 42 -17.5 56.5t-75.5 14.5h-123v-191h121q18 0 30.5 1.5t29.5 6t26 18t9 33.5zM322 565h-90v94h90v-94zM492 565h-90v94h90v-94z" />
    <glyph glyph-name="Wgrave" unicode="&#x1e80;" horiz-adv-x="968" 
d="M960 649l-209 -649h-113l-155 540l-159 -540h-113l-203 649h103l161 -557h2l161 557h103l161 -557h2l161 557h98zM523 703h-74l-125 127h109z" />
    <glyph glyph-name="wgrave" unicode="&#x1e81;" horiz-adv-x="792" 
d="M780 484l-159 -484h-107l-117 391l-115 -391h-107l-163 484h99l118 -398h6l114 398h101l118 -398h6l114 398h92zM441 553h-74l-125 127h109z" />
    <glyph glyph-name="Wacute" unicode="&#x1e82;" horiz-adv-x="968" 
d="M960 649l-209 -649h-113l-155 540l-159 -540h-113l-203 649h103l161 -557h2l161 557h103l161 -557h2l161 557h98zM629 830l-125 -127h-74l90 127h109z" />
    <glyph glyph-name="wacute" unicode="&#x1e83;" horiz-adv-x="792" 
d="M780 484l-159 -484h-107l-117 391l-115 -391h-107l-163 484h99l118 -398h6l114 398h101l118 -398h6l114 398h92z" />
    <glyph glyph-name="Wdieresis" unicode="&#x1e84;" horiz-adv-x="968" 
d="M960 649l-209 -649h-113l-155 540l-159 -540h-113l-203 649h103l161 -557h2l161 557h103l161 -557h2l161 557h98zM443 735h-90v94h90v-94zM613 735h-90v94h90v-94z" />
    <glyph glyph-name="wdieresis" unicode="&#x1e85;" horiz-adv-x="792" 
d="M780 484l-159 -484h-107l-117 391l-115 -391h-107l-163 484h99l118 -398h6l114 398h101l118 -398h6l114 398h92zM357 565h-90v94h90v-94zM527 565h-90v94h90v-94z" />
    <glyph glyph-name="Ygrave" unicode="&#x1ef2;" horiz-adv-x="584" 
d="M576 649l-236 -384v-265h-97v262l-235 387h111l173 -305l173 305h111zM359 703h-74l-125 127h109z" />
    <glyph glyph-name="ygrave" unicode="&#x1ef3;" horiz-adv-x="460" 
d="M454 484l-243 -692h-94l76 201l-187 491h98l135 -395h2l122 395h91zM296 553h-74l-125 127h109z" />
    <glyph glyph-name="endash" unicode="&#x2013;" 
d="M509 254h-438v71h438v-71z" />
    <glyph glyph-name="emdash" unicode="&#x2014;" horiz-adv-x="818" 
d="M778 254h-738v71h738v-71z" />
    <glyph glyph-name="quoteleft" unicode="&#x2018;" horiz-adv-x="256" 
d="M197 649l-46 -220h-106l94 220h58z" />
    <glyph glyph-name="quoteright" unicode="&#x2019;" horiz-adv-x="256" 
d="M211 649l-94 -220h-58l46 220h106z" />
    <glyph glyph-name="quotesinglbase" unicode="&#x201a;" horiz-adv-x="256" 
d="M191 108l-94 -220h-58l46 220h106z" />
    <glyph glyph-name="quotedblleft" unicode="&#x201c;" horiz-adv-x="443" 
d="M252 429l95 220h58l-46 -220h-107zM64 429l95 220h58l-46 -220h-107z" />
    <glyph glyph-name="quotedblright" unicode="&#x201d;" horiz-adv-x="443" 
d="M191 649l-94 -220h-58l46 220h106zM379 649l-95 -220h-58l46 220h107z" />
    <glyph glyph-name="quotedblbase" unicode="&#x201e;" horiz-adv-x="443" 
d="M191 108l-94 -220h-58l46 220h106zM379 108l-95 -220h-58l46 220h107z" />
    <glyph glyph-name="dagger" unicode="&#x2020;" horiz-adv-x="486" 
d="M20 416v68h179v165h88v-165h179v-68h-179v-581h-88v581h-179z" />
    <glyph glyph-name="daggerdbl" unicode="&#x2021;" horiz-adv-x="486" 
d="M20 416v68h179v165h88v-165h179v-68h-179v-348h179v-68h-179v-165h-88v165h-179v68h179v348h-179z" />
    <glyph glyph-name="bullet" unicode="&#x2022;" horiz-adv-x="479" 
d="M399 289q0 -66 -46.5 -113t-112.5 -47q-67 0 -113.5 47t-46.5 113t46.5 112.5t112.5 46.5q67 0 113.5 -46.5t46.5 -112.5z" />
    <glyph glyph-name="ellipsis" unicode="&#x2026;" horiz-adv-x="708" 
d="M186 0h-116v108h116v-108zM412 0h-116v108h116v-108zM638 0h-116v108h116v-108z" />
    <glyph glyph-name="perthousand" unicode="&#x2030;" horiz-adv-x="1225" 
d="M361 537v-125q0 -33 -12.5 -54t-37 -30t-48 -12t-59.5 -3t-59.5 3t-48.5 12t-37.5 30t-12.5 54v125q0 67 42.5 89.5t115.5 22.5t115 -22.5t42 -89.5zM283 416v125q0 36 -18.5 46t-60.5 10q-43 0 -61.5 -10t-18.5 -46v-125q0 -32 19 -41.5t61 -9.5t60.5 9.5t18.5 41.5z
M632 660l-324 -670h-77l324 670h77zM809 214v-125q0 -33 -12.5 -54t-37 -30t-48 -12t-59.5 -3t-59.5 3t-48.5 12t-37.5 30t-12.5 54v125q0 67 42.5 89.5t115.5 22.5t115 -22.5t42 -89.5zM731 93v125q0 36 -18.5 46t-60.5 10q-43 0 -61.5 -10t-18.5 -46v-125q0 -32 19 -41.5
t61 -9.5t60.5 9.5t18.5 41.5zM1179 214v-125q0 -33 -12.5 -54t-37 -30t-48 -12t-59.5 -3t-59.5 3t-48.5 12t-37.5 30t-12.5 54v125q0 67 42.5 89.5t115.5 22.5t115 -22.5t42 -89.5zM1101 93v125q0 36 -18.5 46t-60.5 10q-43 0 -61.5 -10t-18.5 -46v-125q0 -32 19 -41.5
t61 -9.5t60.5 9.5t18.5 41.5z" />
    <glyph glyph-name="guilsinglleft" unicode="&#x2039;" horiz-adv-x="256" 
d="M216 70h-76l-100 192l100 192h76l-92 -192z" />
    <glyph glyph-name="guilsinglright" unicode="&#x203a;" horiz-adv-x="256" 
d="M216 262l-100 -192h-76l92 192l-92 192h76z" />
    <glyph glyph-name="fraction" unicode="&#x2044;" horiz-adv-x="120" 
d="M-186 0l412 649h81l-412 -649h-81z" />
    <glyph glyph-name="zerosuperior" unicode="&#x2070;" horiz-adv-x="378" 
d="M189 271q-78 0 -119 21.5t-41 81.5v181q0 60 41 82t119 22t119 -22t41 -82v-181q0 -60 -41 -81.5t-119 -21.5zM189 325q50 0 67 10.5t17 41.5v175q0 31 -17 41.5t-67 10.5t-67 -10.5t-17 -41.5v-175q0 -31 17 -41.5t67 -10.5z" />
    <glyph glyph-name="foursuperior" unicode="&#x2074;" horiz-adv-x="378" 
d="M354 358h-48v-85h-72v85h-220v50l209 241h83v-240h48v-51zM234 409l-1 169l-145 -169h146z" />
    <glyph glyph-name="fivesuperior" unicode="&#x2075;" horiz-adv-x="378" 
d="M337 425v-67q0 -87 -167 -87q-36 0 -130 10v60q73 -15 129 -15q49 0 71 9.5t22 32.5v40q0 22 -16.5 31.5t-60.5 9.5h-137v200h280v-55h-204v-91h77q81 0 108.5 -19.5t27.5 -58.5z" />
    <glyph glyph-name="sixsuperior" unicode="&#x2076;" horiz-adv-x="378" 
d="M31 368v192q0 99 164 99q59 0 134 -6v-58q-63 9 -126 9q-51 0 -73.5 -12.5t-22.5 -49.5v-39h93q36 0 59 -2.5t44.5 -10t32 -24t10.5 -42.5v-61q0 -30 -13 -50t-38 -28.5t-48 -11t-57 -2.5q-32 0 -56.5 3.5t-49.5 12.5t-39 29.5t-14 51.5zM107 372q0 -47 84 -47
q45 0 62.5 8.5t17.5 31.5v47q0 23 -20.5 31t-60.5 8h-83v-79z" />
    <glyph glyph-name="sevensuperior" unicode="&#x2077;" horiz-adv-x="378" 
d="M330 595l-147 -322h-83l152 319h-223v57h301v-54z" />
    <glyph glyph-name="eightsuperior" unicode="&#x2078;" horiz-adv-x="378" 
d="M189 271q-82 0 -121.5 19.5t-39.5 67.5v53q0 50 67 63l-1 1q-53 12 -53 52v59q0 73 148 73t148 -73v-59q0 -39 -54 -51l1 -1q66 -13 66 -64v-53q0 -48 -39.5 -67.5t-121.5 -19.5zM189 448q-45 0 -65.5 -9t-20.5 -31v-43q0 -40 86 -40t86 40v43q0 22 -20.5 31t-65.5 9z
M189 604q-38 0 -55.5 -7.5t-17.5 -27.5v-40q0 -19 18 -25.5t55 -6.5t55.5 6.5t18.5 25.5v40q0 35 -74 35z" />
    <glyph glyph-name="ninesuperior" unicode="&#x2079;" horiz-adv-x="378" 
d="M346 566v-196q0 -98 -164 -98q-71 0 -134 5v58q63 -9 126 -9q52 0 74 12.5t22 50.5v37h-93q-36 0 -59 2.5t-44.5 10t-32 24t-10.5 42.5v61q0 30 13.5 50t39 28.5t48.5 11.5t55 3q34 0 57 -2.5t49 -11.5t39.5 -28.5t13.5 -50.5zM270 557q0 47 -84 47q-44 0 -62 -8.5
t-18 -31.5v-47q0 -23 20.5 -31t60.5 -8h83v79z" />
    <glyph glyph-name="zeroinferior" unicode="&#x2080;" horiz-adv-x="378" 
d="M189 -2q-78 0 -119 21.5t-41 81.5v181q0 60 41 82t119 22t119 -22t41 -82v-181q0 -60 -41 -81.5t-119 -21.5zM189 52q50 0 67 10.5t17 41.5v175q0 31 -17 41.5t-67 10.5t-67 -10.5t-17 -41.5v-175q0 -31 17 -41.5t67 -10.5z" />
    <glyph glyph-name="oneinferior" unicode="&#x2081;" horiz-adv-x="378" 
d="M257 0h-71v298l-111 -71v68l120 81h62v-376z" />
    <glyph glyph-name="twoinferior" unicode="&#x2082;" horiz-adv-x="378" 
d="M338 0h-297v81q0 35 23 58.5t55 35.5t64.5 21.5t55.5 23.5t23 34v44q0 32 -93 32q-46 0 -117 -13v57q68 11 127 11q84 0 120.5 -18t36.5 -64v-60q0 -35 -35 -60t-77.5 -36t-77.5 -26.5t-35 -33.5v-29h227v-58z" />
    <glyph glyph-name="threeinferior" unicode="&#x2083;" horiz-adv-x="378" 
d="M189 175h-77v49h77q37 0 55.5 6.5t18.5 25.5v40q0 20 -19.5 27.5t-63.5 7.5q-39 0 -119 -6v56q70 5 128 5q148 0 148 -73v-59q0 -39 -54 -51l1 -1q66 -13 66 -64v-53q0 -48 -39.5 -67.5t-121.5 -19.5q-68 0 -142 8v60q70 -14 142 -14q86 0 86 40v43q0 22 -20.5 31
t-65.5 9z" />
    <glyph glyph-name="fourinferior" unicode="&#x2084;" horiz-adv-x="378" 
d="M354 85h-48v-85h-72v85h-220v50l209 241h83v-240h48v-51zM234 136l-1 169l-145 -169h146z" />
    <glyph glyph-name="fiveinferior" unicode="&#x2085;" horiz-adv-x="378" 
d="M337 152v-67q0 -87 -167 -87q-36 0 -130 10v60q73 -15 129 -15q49 0 71 9.5t22 32.5v40q0 22 -16.5 31.5t-60.5 9.5h-137v200h280v-55h-204v-91h77q81 0 108.5 -19.5t27.5 -58.5z" />
    <glyph glyph-name="sixinferior" unicode="&#x2086;" horiz-adv-x="378" 
d="M31 95v192q0 99 164 99q59 0 134 -6v-58q-63 9 -126 9q-51 0 -73.5 -12.5t-22.5 -49.5v-39h93q36 0 59 -2.5t44.5 -10t32 -24t10.5 -42.5v-61q0 -30 -13 -50t-38 -28.5t-48 -11t-57 -2.5q-32 0 -56.5 3.5t-49.5 12.5t-39 29.5t-14 51.5zM107 99q0 -47 84 -47
q45 0 62.5 8.5t17.5 31.5v47q0 23 -20.5 31t-60.5 8h-83v-79z" />
    <glyph glyph-name="seveninferior" unicode="&#x2087;" horiz-adv-x="378" 
d="M330 322l-147 -322h-83l152 319h-223v57h301v-54z" />
    <glyph glyph-name="eightinferior" unicode="&#x2088;" horiz-adv-x="378" 
d="M189 -2q-82 0 -121.5 19.5t-39.5 67.5v53q0 50 67 63l-1 1q-53 12 -53 52v59q0 73 148 73t148 -73v-59q0 -39 -54 -51l1 -1q66 -13 66 -64v-53q0 -48 -39.5 -67.5t-121.5 -19.5zM189 175q-45 0 -65.5 -9t-20.5 -31v-43q0 -40 86 -40t86 40v43q0 22 -20.5 31t-65.5 9z
M189 331q-38 0 -55.5 -7.5t-17.5 -27.5v-40q0 -19 18 -25.5t55 -6.5t55.5 6.5t18.5 25.5v40q0 35 -74 35z" />
    <glyph glyph-name="nineinferior" unicode="&#x2089;" horiz-adv-x="378" 
d="M346 293v-196q0 -98 -164 -98q-71 0 -134 5v58q63 -9 126 -9q52 0 74 12.5t22 50.5v37h-93q-36 0 -59 2.5t-44.5 10t-32 24t-10.5 42.5v61q0 30 13.5 50t39 28.5t48.5 11.5t55 3q34 0 57 -2.5t49 -11.5t39.5 -28.5t13.5 -50.5zM270 284q0 47 -84 47q-44 0 -62 -8.5
t-18 -31.5v-47q0 -23 20.5 -31t60.5 -8h83v79z" />
    <glyph glyph-name="Euro" unicode="&#x20ac;" 
d="M26 213v71h93v71h-93v71h93v28q0 186 273 186q79 0 141 -12l-18 -67q-70 12 -121 12q-30 0 -54 -2.5t-49.5 -10t-42.5 -20t-27.5 -34t-10.5 -51.5v-29h272l-19 -71h-253v-71h223l-19 -71h-204v-42q0 -112 188 -112q74 0 156 19v-74q-78 -14 -162 -14q-273 0 -273 176v47
h-93z" />
    <glyph glyph-name="uni20AE" unicode="&#x20ae;" horiz-adv-x="585" 
d="M561 581h-219v-172l169 77v-71l-169 -77v-81l169 77v-71l-169 -77v-186h-98v141l-171 -78v71l171 78v81l-171 -78v71l171 78v217h-220v68h537v-68z" />
    <glyph glyph-name="uni20B4" unicode="&#x20b4;" horiz-adv-x="569" 
d="M559 208h-404v-68q0 -48 37.5 -63t115.5 -15q77 0 193 25v-81q-118 -16 -191 -16q-130 0 -190 38.5t-60 144.5v35h-49v71h54q11 47 49.5 70t118.5 23h78q64 0 88 18h-388v71h409v50q0 45 -31 63t-127 18q-59 0 -170 -17v73q97 11 165 11q147 0 202 -37t55 -114v-47h45
v-71h-54q-27 -90 -166 -90h-76q-66 0 -90 -21h386v-71z" />
    <glyph glyph-name="afii61352" unicode="&#x2116;" horiz-adv-x="1185" 
d="M1100 526v-109q0 -32 -9 -54t-22 -34t-37.5 -18.5t-45 -8t-54.5 -1.5t-55 1.5t-45 8t-37 18.5t-22 34t-9 54v109q0 42 12 68t38 37.5t50.5 14.5t67.5 3t67.5 -3t50.5 -14.5t38 -37.5t12 -68zM1025 417v110q0 47 -19 58.5t-74 11.5q-29 0 -42.5 -1.5t-27.5 -8t-18.5 -21
t-4.5 -39.5v-110q0 -42 20 -53t73 -11t73 11t20 53zM639 0h-117l-353 545v-545h-85v649h117l353 -536v536h85v-649zM763 182v56h338v-56h-338z" />
    <glyph glyph-name="trademark" unicode="&#x2122;" horiz-adv-x="627" 
d="M434 457l73 192h77v-265h-56v178l-70 -178h-51l-73 180v-180h-57v265h80zM157 603v-219h-61v219h-88v46h236v-46h-87z" />
    <glyph glyph-name="estimated" unicode="&#x212e;" horiz-adv-x="828" 
d="M786 319h-611q-7 0 -7 -5v-185q0 -10 10 -22q97 -100 232 -100q145 0 242 113h56q-54 -62 -132 -98t-167 -36q-157 0 -268 100.5t-111 241.5q0 139 111.5 238.5t267.5 99.5q155 0 266 -99.5t111 -238.5v-9zM648 343v184q0 13 -11 22q-93 96 -227 96q-135 0 -231 -99
q-11 -11 -11 -23v-180q0 -4 7 -4h467q6 0 6 4z" />
    <glyph glyph-name="onethird" unicode="&#x2153;" horiz-adv-x="956" 
d="M329 273h-71v298l-111 -71v68l120 81h62v-376zM232 0l412 649h81l-412 -649h-81zM743 175h-77v49h77q37 0 55.5 6.5t18.5 25.5v40q0 20 -19.5 27.5t-63.5 7.5q-39 0 -119 -6v56q70 5 128 5q148 0 148 -73v-59q0 -39 -54 -51l1 -1q66 -13 66 -64v-53q0 -48 -39.5 -67.5
t-121.5 -19.5q-68 0 -142 8v60q70 -14 142 -14q86 0 86 40v43q0 22 -20.5 31t-65.5 9z" />
    <glyph glyph-name="twothirds" unicode="&#x2154;" horiz-adv-x="956" 
d="M338 273h-297v81q0 35 23 58.5t55 35.5t64.5 21.5t55.5 23.5t23 34v44q0 32 -93 32q-46 0 -117 -13v57q68 11 127 11q84 0 120.5 -18t36.5 -64v-60q0 -35 -35 -60t-77.5 -36t-77.5 -26.5t-35 -33.5v-29h227v-58zM232 0l412 649h81l-412 -649h-81zM743 175h-77v49h77
q37 0 55.5 6.5t18.5 25.5v40q0 20 -19.5 27.5t-63.5 7.5q-39 0 -119 -6v56q70 5 128 5q148 0 148 -73v-59q0 -39 -54 -51l1 -1q66 -13 66 -64v-53q0 -48 -39.5 -67.5t-121.5 -19.5q-68 0 -142 8v60q70 -14 142 -14q86 0 86 40v43q0 22 -20.5 31t-65.5 9z" />
    <glyph glyph-name="oneeighth" unicode="&#x215b;" horiz-adv-x="956" 
d="M329 273h-71v298l-111 -71v68l120 81h62v-376zM232 0l412 649h81l-412 -649h-81zM743 -2q-82 0 -121.5 19.5t-39.5 67.5v53q0 50 67 63l-1 1q-53 12 -53 52v59q0 73 148 73t148 -73v-59q0 -39 -54 -51l1 -1q66 -13 66 -64v-53q0 -48 -39.5 -67.5t-121.5 -19.5zM743 175
q-45 0 -65.5 -9t-20.5 -31v-43q0 -40 86 -40t86 40v43q0 22 -20.5 31t-65.5 9zM743 331q-38 0 -55.5 -7.5t-17.5 -27.5v-40q0 -19 18 -25.5t55 -6.5t55.5 6.5t18.5 25.5v40q0 35 -74 35z" />
    <glyph glyph-name="threeeighths" unicode="&#x215c;" horiz-adv-x="956" 
d="M189 448h-77v49h77q37 0 55.5 6.5t18.5 25.5v40q0 20 -19.5 27.5t-63.5 7.5q-39 0 -119 -6v56q70 5 128 5q148 0 148 -73v-59q0 -39 -54 -51l1 -1q66 -13 66 -64v-53q0 -48 -39.5 -67.5t-121.5 -19.5q-68 0 -142 8v60q70 -14 142 -14q86 0 86 40v43q0 22 -20.5 31
t-65.5 9zM232 0l412 649h81l-412 -649h-81zM743 -2q-82 0 -121.5 19.5t-39.5 67.5v53q0 50 67 63l-1 1q-53 12 -53 52v59q0 73 148 73t148 -73v-59q0 -39 -54 -51l1 -1q66 -13 66 -64v-53q0 -48 -39.5 -67.5t-121.5 -19.5zM743 175q-45 0 -65.5 -9t-20.5 -31v-43
q0 -40 86 -40t86 40v43q0 22 -20.5 31t-65.5 9zM743 331q-38 0 -55.5 -7.5t-17.5 -27.5v-40q0 -19 18 -25.5t55 -6.5t55.5 6.5t18.5 25.5v40q0 35 -74 35z" />
    <glyph glyph-name="fiveeighths" unicode="&#x215d;" horiz-adv-x="956" 
d="M337 425v-67q0 -87 -167 -87q-36 0 -130 10v60q73 -15 129 -15q49 0 71 9.5t22 32.5v40q0 22 -16.5 31.5t-60.5 9.5h-137v200h280v-55h-204v-91h77q81 0 108.5 -19.5t27.5 -58.5zM232 0l412 649h81l-412 -649h-81zM743 -2q-82 0 -121.5 19.5t-39.5 67.5v53q0 50 67 63
l-1 1q-53 12 -53 52v59q0 73 148 73t148 -73v-59q0 -39 -54 -51l1 -1q66 -13 66 -64v-53q0 -48 -39.5 -67.5t-121.5 -19.5zM743 175q-45 0 -65.5 -9t-20.5 -31v-43q0 -40 86 -40t86 40v43q0 22 -20.5 31t-65.5 9zM743 331q-38 0 -55.5 -7.5t-17.5 -27.5v-40q0 -19 18 -25.5
t55 -6.5t55.5 6.5t18.5 25.5v40q0 35 -74 35z" />
    <glyph glyph-name="seveneighths" unicode="&#x215e;" horiz-adv-x="956" 
d="M330 595l-147 -322h-83l152 319h-223v57h301v-54zM232 0l412 649h81l-412 -649h-81zM743 -2q-82 0 -121.5 19.5t-39.5 67.5v53q0 50 67 63l-1 1q-53 12 -53 52v59q0 73 148 73t148 -73v-59q0 -39 -54 -51l1 -1q66 -13 66 -64v-53q0 -48 -39.5 -67.5t-121.5 -19.5z
M743 175q-45 0 -65.5 -9t-20.5 -31v-43q0 -40 86 -40t86 40v43q0 22 -20.5 31t-65.5 9zM743 331q-38 0 -55.5 -7.5t-17.5 -27.5v-40q0 -19 18 -25.5t55 -6.5t55.5 6.5t18.5 25.5v40q0 35 -74 35z" />
    <glyph glyph-name="partialdiff" unicode="&#x2202;" 
d="M71 156v105q0 90 47 121.5t155 31.5h147v72q0 71 -31.5 90.5t-109.5 19.5q-55 0 -177 -15v70q104 9 164 9q40 0 69 -2.5t64.5 -12.5t57.5 -28.5t37 -52t15 -80.5v-328q0 -44 -12 -75.5t-30 -49t-49 -27t-58.5 -12t-68.5 -2.5q-50 0 -84 5t-68 21t-51 51t-17 89zM160 258
v-107q0 -66 27.5 -84t101.5 -18t102.5 18.5t28.5 83.5v205h-130q-78 0 -104 -23t-26 -75z" />
    <glyph glyph-name="Delta" unicode="&#x2206;" horiz-adv-x="652" 
d="M637 0h-622l258 649h112zM319 557l-183 -489h374l-182 489h-9z" />
    <glyph glyph-name="product" unicode="&#x220f;" horiz-adv-x="613" 
d="M593 581h-89v-581h-98v581h-199v-581h-98v581h-89v68h573v-68z" />
    <glyph glyph-name="summation" unicode="&#x2211;" 
d="M520 649v-68h-343l240 -205v-78l-245 -230h358v-68h-446v90l259 246l-259 215v98h436z" />
    <glyph glyph-name="minus" unicode="&#x2212;" horiz-adv-x="500" 
d="M440 282h-380v67h380v-67z" />
    <glyph glyph-name="uni2215" unicode="&#x2215;" horiz-adv-x="421" 
d="M411 509l-324 -519h-77l324 519h77z" />
    <glyph glyph-name="uni2219" unicode="&#x2219;" horiz-adv-x="256" 
d="M186 280h-116v108h116v-108z" />
    <glyph glyph-name="radical" unicode="&#x221a;" horiz-adv-x="603" 
d="M138 427h-131v57h205l55 -328q4 -22 4 -42h2q6 20 16 42l232 544h84l-315 -700h-75z" />
    <glyph glyph-name="infinity" unicode="&#x221e;" 
d="M407 205q-31 0 -54.5 16t-52.5 46l-9 9q-36 -36 -61.5 -53.5t-55.5 -17.5q-49 0 -82 29.5t-33 82.5q0 52 32.5 82t81.5 30q24 0 47.5 -12.5t36.5 -25t33 -34.5l13.5 13.5l15 15t14 13t16.5 12.5t16.5 9t19.5 7t21 2q50 0 82.5 -29t32.5 -83q0 -50 -33 -81t-81 -31z
M407 374q-20 0 -36 -16l-41 -41l39 -40q17 -17 37 -17q22 0 36 17t14 40t-14 40t-35 17zM210 357q-17 17 -36 17q-22 0 -36 -17t-14 -40q0 -22 14 -39.5t35 -17.5q20 0 36 16l41 41z" />
    <glyph glyph-name="integral" unicode="&#x222b;" 
d="M330 517v-557q0 -83 -44.5 -115.5t-133.5 -32.5q-41 0 -83 5v58q35 -5 80 -5q49 0 70 17.5t21 66.5v557q0 83 44.5 115.5t133.5 32.5q41 0 83 -5v-58q-35 5 -80 5q-49 0 -70 -17.5t-21 -66.5z" />
    <glyph glyph-name="approxequal" unicode="&#x2248;" 
d="M190 441q38 0 108.5 -29.5t94.5 -29.5q81 0 119 62v-81q-36 -46 -123 -46q-32 0 -102.5 29.5t-100.5 29.5q-42 0 -69.5 -14.5t-48.5 -46.5v81q37 45 122 45zM190 265q38 0 108.5 -29.5t94.5 -29.5q81 0 119 62v-81q-36 -46 -123 -46q-32 0 -102.5 29.5t-100.5 29.5
q-42 0 -69.5 -14.5t-48.5 -46.5v81q37 45 122 45z" />
    <glyph glyph-name="notequal" unicode="&#x2260;" horiz-adv-x="500" 
d="M60 73l80 129h-80v67h122l58 93h-180v67h222l80 127h77l-80 -127h81v-67h-123l-58 -93h181v-67h-223l-80 -129h-77z" />
    <glyph glyph-name="lessequal" unicode="&#x2264;" horiz-adv-x="500" 
d="M60 280v72l381 153v-77l-297 -112l297 -112v-77zM440 0h-380v71h380v-71z" />
    <glyph glyph-name="greaterequal" unicode="&#x2265;" horiz-adv-x="500" 
d="M441 352v-72l-381 -153v77l297 112l-297 112v77zM441 0h-380v71h380v-71z" />
    <glyph glyph-name="lozenge" unicode="&#x25ca;" horiz-adv-x="493" 
d="M463 333l-217 -386l-216 386l216 376zM371 333l-125 229l-128 -229l128 -239z" />
    <glyph glyph-name="ff" unicode="&#xfb00;" horiz-adv-x="729" 
d="M709 425h-171v-425h-90v425h-237v-425h-90v425h-111v59h111v78q0 84 37 116t123 32q59 0 101 -5v-58q-35 5 -68 5q-62 0 -82.5 -16.5t-20.5 -67.5v-84h237v78q0 84 37 116t123 32q59 0 101 -5v-58q-35 5 -68 5q-62 0 -82.5 -16.5t-20.5 -67.5v-84h171v-59z" />
    <glyph glyph-name="fi" unicode="&#xfb01;" horiz-adv-x="616" 
d="M538 602h-90v98h90v-98zM538 0h-90v484h90v-484zM382 425h-171v-425h-90v425h-111v59h111v78q0 84 37 116t123 32q59 0 101 -5v-58q-35 5 -68 5q-62 0 -82.5 -16.5t-20.5 -67.5v-84h171v-59z" />
    <glyph glyph-name="fl" unicode="&#xfb02;" horiz-adv-x="616" 
d="M538 0h-90v700h90v-700zM382 425h-171v-425h-90v425h-111v59h111v78q0 84 37 116t123 32q59 0 101 -5v-58q-35 5 -68 5q-62 0 -82.5 -16.5t-20.5 -67.5v-84h171v-59z" />
    <glyph glyph-name="ffi" unicode="&#xfb03;" horiz-adv-x="943" 
d="M709 425h-171v-425h-90v425h-237v-425h-90v425h-111v59h111v78q0 84 37 116t123 32q59 0 101 -5v-58q-35 5 -68 5q-62 0 -82.5 -16.5t-20.5 -67.5v-84h237v78q0 84 37 116t123 32q59 0 101 -5v-58q-35 5 -68 5q-62 0 -82.5 -16.5t-20.5 -67.5v-84h171v-59zM865 605h-90
v95h90v-95zM865 0h-90v484h90v-484z" />
    <glyph glyph-name="ffl" unicode="&#xfb04;" horiz-adv-x="943" 
d="M709 425h-171v-425h-90v425h-237v-425h-90v425h-111v59h111v78q0 84 37 116t123 32q59 0 101 -5v-58q-35 5 -68 5q-62 0 -82.5 -16.5t-20.5 -67.5v-84h237v78q0 84 37 116t123 32q59 0 101 -5v-58q-35 5 -68 5q-62 0 -82.5 -16.5t-20.5 -67.5v-84h171v-59zM865 0h-90v700
h90v-700z" />
    <glyph glyph-name="Eth.001" horiz-adv-x="649" 
d="M84 301h-64v68h64v280h228q273 0 273 -186v-287q0 -176 -272 -176h-229v301zM287 301h-106v-235h125q186 0 186 112v286q0 37 -15 61.5t-42.5 36t-56.5 16t-67 4.5h-130v-213h106v-68z" />
    <glyph glyph-name="perthousand.001" horiz-adv-x="1235" 
d="M357 539v-129q0 -27 -9 -45.5t-21.5 -28.5t-34.5 -15.5t-40.5 -6.5t-47.5 -1t-47.5 1t-41 6.5t-35 15.5t-21.5 28.5t-9 45.5v129q0 67 40.5 88.5t113.5 21.5t113 -21.5t40 -88.5zM287 410v137q0 19 -5.5 30.5t-18.5 16.5t-25 6t-34 1q-30 0 -45 -2.5t-27 -14.5t-12 -37
v-137q0 -22 12.5 -33.5t27.5 -13.5t44 -2t44 2t27 13.5t12 33.5zM632 660l-324 -670h-77l324 670h77zM805 217v-129q0 -33 -11.5 -54t-36 -30t-46.5 -11.5t-59 -2.5q-29 0 -47.5 1t-41 6.5t-35 15.5t-21.5 29t-9 46v129q0 29 8.5 49.5t22 32t35 18t41 8t47.5 1.5
q27 0 46.5 -1.5t41 -8t35 -18t22 -32t8.5 -49.5zM735 88v136q0 19 -5.5 30.5t-18.5 16.5t-25 6t-34 1q-23 0 -35 -1t-25 -6t-18.5 -16.5t-5.5 -30.5v-136q0 -33 20 -41.5t64 -8.5q29 0 44 2t27 13.5t12 34.5zM1185 217v-129q0 -33 -11.5 -54t-36 -30t-46.5 -11.5t-59 -2.5
q-29 0 -47.5 1t-41 6.5t-35 15.5t-21.5 29t-9 46v129q0 29 8.5 49.5t22 32t35 18t41 8t47.5 1.5q27 0 46.5 -1.5t41 -8t35 -18t22 -32t8.5 -49.5zM1115 88v136q0 19 -5.5 30.5t-18.5 16.5t-25 6t-34 1q-23 0 -35 -1t-25 -6t-18.5 -16.5t-5.5 -30.5v-136q0 -33 20 -41.5
t64 -8.5q29 0 44 2t27 13.5t12 34.5z" />
    <glyph glyph-name="onefifth" horiz-adv-x="956" 
d="M329 273h-71v298l-111 -71v68l120 81h62v-376zM232 0l412 649h81l-412 -649h-81zM891 152v-67q0 -87 -167 -87q-36 0 -130 10v60q73 -15 129 -15q49 0 71 9.5t22 32.5v40q0 22 -16.5 31.5t-60.5 9.5h-137v200h280v-55h-204v-91h77q81 0 108.5 -19.5t27.5 -58.5z" />
    <glyph glyph-name="twofifths" horiz-adv-x="956" 
d="M338 273h-297v81q0 35 23 58.5t55 35.5t64.5 21.5t55.5 23.5t23 34v44q0 32 -93 32q-46 0 -117 -13v57q68 11 127 11q84 0 120.5 -18t36.5 -64v-60q0 -35 -35 -60t-77.5 -36t-77.5 -26.5t-35 -33.5v-29h227v-58zM232 0l412 649h81l-412 -649h-81zM891 152v-67
q0 -87 -167 -87q-36 0 -130 10v60q73 -15 129 -15q49 0 71 9.5t22 32.5v40q0 22 -16.5 31.5t-60.5 9.5h-137v200h280v-55h-204v-91h77q81 0 108.5 -19.5t27.5 -58.5z" />
    <glyph glyph-name="threefifths" horiz-adv-x="956" 
d="M189 448h-77v49h77q37 0 55.5 6.5t18.5 25.5v40q0 20 -19.5 27.5t-63.5 7.5q-39 0 -119 -6v56q70 5 128 5q148 0 148 -73v-59q0 -39 -54 -51l1 -1q66 -13 66 -64v-53q0 -48 -39.5 -67.5t-121.5 -19.5q-68 0 -142 8v60q70 -14 142 -14q86 0 86 40v43q0 22 -20.5 31
t-65.5 9zM232 0l412 649h81l-412 -649h-81zM891 152v-67q0 -87 -167 -87q-36 0 -130 10v60q73 -15 129 -15q49 0 71 9.5t22 32.5v40q0 22 -16.5 31.5t-60.5 9.5h-137v200h280v-55h-204v-91h77q81 0 108.5 -19.5t27.5 -58.5z" />
    <glyph glyph-name="fourfifths" horiz-adv-x="956" 
d="M354 358h-48v-85h-72v85h-220v50l209 241h83v-240h48v-51zM234 409l-1 169l-145 -169h146zM232 0l412 649h81l-412 -649h-81zM891 152v-67q0 -87 -167 -87q-36 0 -130 10v60q73 -15 129 -15q49 0 71 9.5t22 32.5v40q0 22 -16.5 31.5t-60.5 9.5h-137v200h280v-55h-204v-91
h77q81 0 108.5 -19.5t27.5 -58.5z" />
    <glyph glyph-name="onesixth" horiz-adv-x="956" 
d="M329 273h-71v298l-111 -71v68l120 81h62v-376zM232 0l412 649h81l-412 -649h-81zM585 95v192q0 99 164 99q59 0 134 -6v-58q-63 9 -126 9q-51 0 -73.5 -12.5t-22.5 -49.5v-39h93q36 0 59 -2.5t44.5 -10t32 -24t10.5 -42.5v-61q0 -30 -13 -50t-38 -28.5t-48 -11t-57 -2.5
q-32 0 -56.5 3.5t-49.5 12.5t-39 29.5t-14 51.5zM661 99q0 -47 84 -47q45 0 62.5 8.5t17.5 31.5v47q0 23 -20.5 31t-60.5 8h-83v-79z" />
    <glyph glyph-name="fivesixths" horiz-adv-x="956" 
d="M337 425v-67q0 -87 -167 -87q-36 0 -130 10v60q73 -15 129 -15q49 0 71 9.5t22 32.5v40q0 22 -16.5 31.5t-60.5 9.5h-137v200h280v-55h-204v-91h77q81 0 108.5 -19.5t27.5 -58.5zM232 0l412 649h81l-412 -649h-81zM585 95v192q0 99 164 99q59 0 134 -6v-58q-63 9 -126 9
q-51 0 -73.5 -12.5t-22.5 -49.5v-39h93q36 0 59 -2.5t44.5 -10t32 -24t10.5 -42.5v-61q0 -30 -13 -50t-38 -28.5t-48 -11t-57 -2.5q-32 0 -56.5 3.5t-49.5 12.5t-39 29.5t-14 51.5zM661 99q0 -47 84 -47q45 0 62.5 8.5t17.5 31.5v47q0 23 -20.5 31t-60.5 8h-83v-79z" />
    <glyph glyph-name="oneseventh" horiz-adv-x="956" 
d="M329 273h-71v298l-111 -71v68l120 81h62v-376zM232 0l412 649h81l-412 -649h-81zM884 322l-147 -322h-83l152 319h-223v57h301v-54z" />
    <glyph glyph-name="twosevenths" horiz-adv-x="956" 
d="M338 273h-297v81q0 35 23 58.5t55 35.5t64.5 21.5t55.5 23.5t23 34v44q0 32 -93 32q-46 0 -117 -13v57q68 11 127 11q84 0 120.5 -18t36.5 -64v-60q0 -35 -35 -60t-77.5 -36t-77.5 -26.5t-35 -33.5v-29h227v-58zM232 0l412 649h81l-412 -649h-81zM884 322l-147 -322h-83
l152 319h-223v57h301v-54z" />
    <glyph glyph-name="threesevenths" horiz-adv-x="956" 
d="M189 448h-77v49h77q37 0 55.5 6.5t18.5 25.5v40q0 20 -19.5 27.5t-63.5 7.5q-39 0 -119 -6v56q70 5 128 5q148 0 148 -73v-59q0 -39 -54 -51l1 -1q66 -13 66 -64v-53q0 -48 -39.5 -67.5t-121.5 -19.5q-68 0 -142 8v60q70 -14 142 -14q86 0 86 40v43q0 22 -20.5 31
t-65.5 9zM232 0l412 649h81l-412 -649h-81zM884 322l-147 -322h-83l152 319h-223v57h301v-54z" />
    <glyph glyph-name="foursevenths" horiz-adv-x="956" 
d="M354 358h-48v-85h-72v85h-220v50l209 241h83v-240h48v-51zM234 409l-1 169l-145 -169h146zM232 0l412 649h81l-412 -649h-81zM884 322l-147 -322h-83l152 319h-223v57h301v-54z" />
    <glyph glyph-name="fivesevenths" horiz-adv-x="956" 
d="M337 425v-67q0 -87 -167 -87q-36 0 -130 10v60q73 -15 129 -15q49 0 71 9.5t22 32.5v40q0 22 -16.5 31.5t-60.5 9.5h-137v200h280v-55h-204v-91h77q81 0 108.5 -19.5t27.5 -58.5zM232 0l412 649h81l-412 -649h-81zM884 322l-147 -322h-83l152 319h-223v57h301v-54z" />
    <glyph glyph-name="sixsevenths" horiz-adv-x="956" 
d="M31 368v192q0 99 164 99q59 0 134 -6v-58q-63 9 -126 9q-51 0 -73.5 -12.5t-22.5 -49.5v-39h93q36 0 59 -2.5t44.5 -10t32 -24t10.5 -42.5v-61q0 -30 -13 -50t-38 -28.5t-48 -11t-57 -2.5q-32 0 -56.5 3.5t-49.5 12.5t-39 29.5t-14 51.5zM107 372q0 -47 84 -47
q45 0 62.5 8.5t17.5 31.5v47q0 23 -20.5 31t-60.5 8h-83v-79zM232 0l412 649h81l-412 -649h-81zM884 322l-147 -322h-83l152 319h-223v57h301v-54z" />
    <glyph glyph-name="oneninth" horiz-adv-x="956" 
d="M329 273h-71v298l-111 -71v68l120 81h62v-376zM232 0l412 649h81l-412 -649h-81zM900 293v-196q0 -98 -164 -98q-72 0 -134 5v58q63 -9 126 -9q52 0 74 12.5t22 50.5v37h-93q-36 0 -59 2.5t-44.5 10t-32 24t-10.5 42.5v61q0 30 13.5 50t39 28.5t48.5 11.5t55 3
q34 0 57 -2.5t49 -11.5t39.5 -28.5t13.5 -50.5zM824 284q0 47 -84 47q-44 0 -62 -8.5t-18 -31.5v-47q0 -23 20.5 -31t60.5 -8h83v79z" />
    <glyph glyph-name="twoninths" horiz-adv-x="956" 
d="M338 273h-297v81q0 35 23 58.5t55 35.5t64.5 21.5t55.5 23.5t23 34v44q0 32 -93 32q-46 0 -117 -13v57q68 11 127 11q84 0 120.5 -18t36.5 -64v-60q0 -35 -35 -60t-77.5 -36t-77.5 -26.5t-35 -33.5v-29h227v-58zM232 0l412 649h81l-412 -649h-81zM900 293v-196
q0 -98 -164 -98q-72 0 -134 5v58q63 -9 126 -9q52 0 74 12.5t22 50.5v37h-93q-36 0 -59 2.5t-44.5 10t-32 24t-10.5 42.5v61q0 30 13.5 50t39 28.5t48.5 11.5t55 3q34 0 57 -2.5t49 -11.5t39.5 -28.5t13.5 -50.5zM824 284q0 47 -84 47q-44 0 -62 -8.5t-18 -31.5v-47
q0 -23 20.5 -31t60.5 -8h83v79z" />
    <glyph glyph-name="fourninths" horiz-adv-x="956" 
d="M354 358h-48v-85h-72v85h-220v50l209 241h83v-240h48v-51zM234 409l-1 169l-145 -169h146zM232 0l412 649h81l-412 -649h-81zM900 293v-196q0 -98 -164 -98q-72 0 -134 5v58q63 -9 126 -9q52 0 74 12.5t22 50.5v37h-93q-36 0 -59 2.5t-44.5 10t-32 24t-10.5 42.5v61
q0 30 13.5 50t39 28.5t48.5 11.5t55 3q34 0 57 -2.5t49 -11.5t39.5 -28.5t13.5 -50.5zM824 284q0 47 -84 47q-44 0 -62 -8.5t-18 -31.5v-47q0 -23 20.5 -31t60.5 -8h83v79z" />
    <glyph glyph-name="fiveninths" horiz-adv-x="956" 
d="M337 425v-67q0 -87 -167 -87q-36 0 -130 10v60q73 -15 129 -15q49 0 71 9.5t22 32.5v40q0 22 -16.5 31.5t-60.5 9.5h-137v200h280v-55h-204v-91h77q81 0 108.5 -19.5t27.5 -58.5zM232 0l412 649h81l-412 -649h-81zM900 293v-196q0 -98 -164 -98q-72 0 -134 5v58
q63 -9 126 -9q52 0 74 12.5t22 50.5v37h-93q-36 0 -59 2.5t-44.5 10t-32 24t-10.5 42.5v61q0 30 13.5 50t39 28.5t48.5 11.5t55 3q34 0 57 -2.5t49 -11.5t39.5 -28.5t13.5 -50.5zM824 284q0 47 -84 47q-44 0 -62 -8.5t-18 -31.5v-47q0 -23 20.5 -31t60.5 -8h83v79z" />
    <glyph glyph-name="sevenninths" horiz-adv-x="956" 
d="M330 595l-147 -322h-83l152 319h-223v57h301v-54zM232 0l412 649h81l-412 -649h-81zM900 293v-196q0 -98 -164 -98q-72 0 -134 5v58q63 -9 126 -9q52 0 74 12.5t22 50.5v37h-93q-36 0 -59 2.5t-44.5 10t-32 24t-10.5 42.5v61q0 30 13.5 50t39 28.5t48.5 11.5t55 3
q34 0 57 -2.5t49 -11.5t39.5 -28.5t13.5 -50.5zM824 284q0 47 -84 47q-44 0 -62 -8.5t-18 -31.5v-47q0 -23 20.5 -31t60.5 -8h83v79z" />
    <glyph glyph-name="eightninths" horiz-adv-x="956" 
d="M189 271q-82 0 -121.5 19.5t-39.5 67.5v53q0 50 67 63l-1 1q-53 12 -53 52v59q0 73 148 73t148 -73v-59q0 -39 -54 -51l1 -1q66 -13 66 -64v-53q0 -48 -39.5 -67.5t-121.5 -19.5zM189 448q-45 0 -65.5 -9t-20.5 -31v-43q0 -40 86 -40t86 40v43q0 22 -20.5 31t-65.5 9z
M189 604q-38 0 -55.5 -7.5t-17.5 -27.5v-40q0 -19 18 -25.5t55 -6.5t55.5 6.5t18.5 25.5v40q0 35 -74 35zM232 0l412 649h81l-412 -649h-81zM900 293v-196q0 -98 -164 -98q-72 0 -134 5v58q63 -9 126 -9q52 0 74 12.5t22 50.5v37h-93q-36 0 -59 2.5t-44.5 10t-32 24
t-10.5 42.5v61q0 30 13.5 50t39 28.5t48.5 11.5t55 3q34 0 57 -2.5t49 -11.5t39.5 -28.5t13.5 -50.5zM824 284q0 47 -84 47q-44 0 -62 -8.5t-18 -31.5v-47q0 -23 20.5 -31t60.5 -8h83v79z" />
    <glyph glyph-name="uni2219.001" horiz-adv-x="256" 
d="M186 210h-116v108h116v-108z" />
    <glyph glyph-name="zero.alt" 
d="M519 485v-329q0 -43 -13.5 -74.5t-34 -49t-52.5 -27.5t-61 -12.5t-69 -2.5q-41 0 -69.5 2.5t-61 12t-52 27t-32.5 49t-13 75.5v328q0 47 13.5 80.5t33.5 52t53 28.5t60.5 12.5t67.5 2.5q41 0 69 -2.5t61 -12.5t53 -28t33.5 -51.5t13.5 -80.5zM428 151v340
q0 71 -31.5 90.5t-106.5 19.5q-77 0 -107.5 -19.5t-30.5 -90.5v-340q0 -65 32 -83.5t107 -18.5t106 18.5t31 83.5z" />
    <glyph glyph-name="one.alt" horiz-adv-x="392" 
d="M275 0h-87v559l-137 -89v82l138 97h86v-649z" />
    <glyph glyph-name="two.alt" horiz-adv-x="546" 
d="M482 0h-436v116q0 29 10 53.5t23.5 40.5t39.5 32.5t43.5 25.5t50.5 23l108 48q64 29 64 87v89q0 47 -29.5 62t-96.5 15q-69 0 -190 -21v70q105 19 209 19q107 0 155.5 -32t48.5 -109v-106q0 -54 -28 -82t-100 -61l-150 -69q-66 -30 -66 -88v-43h344v-70z" />
    <glyph glyph-name="three.alt" horiz-adv-x="519" 
d="M453 259v-130q0 -36 -15.5 -62.5t-37.5 -41t-56 -23t-62.5 -10.5t-65.5 -2q-81 0 -189 19v72q121 -25 199 -25q133 0 133 75v111q0 21 -11.5 34.5t-33 19t-38.5 7t-41 1.5h-125v62h108q24 0 40.5 1.5t38.5 7t34 19.5t12 36v116q0 51 -120 51q-77 0 -183 -16v69
q86 9 182 9q108 0 160 -23.5t52 -84.5v-125q0 -33 -26 -52.5t-63 -25.5v-4q23 -4 39 -8.5t33.5 -13.5t26.5 -25t9 -38z" />
    <glyph glyph-name="four.alt" horiz-adv-x="570" 
d="M518 142h-70v-142h-83v142h-323v79l294 428h112v-438h70v-69zM365 211v359l-243 -359h243z" />
    <glyph glyph-name="five.alt" horiz-adv-x="513" 
d="M453 277v-148q0 -36 -13 -62.5t-33 -41t-50.5 -23t-57 -10.5t-61.5 -2q-81 0 -191 18v72q116 -24 194 -24q59 0 88.5 17t29.5 58v129q0 21 -9 34.5t-27 19t-32.5 7t-36.5 1.5h-192v327h374v-68h-284v-197h150q37 0 68.5 -8.5t57 -33.5t25.5 -65z" />
    <glyph glyph-name="six.alt" horiz-adv-x="551" 
d="M499 251v-95q0 -54 -17 -89t-51 -51t-68 -21t-84 -5q-41 0 -68.5 2.5t-58.5 12t-49 27t-30 49t-12 75.5v328q0 47 15 80.5t37 52t57.5 28.5t64.5 12.5t69 2.5q60 0 164 -9v-68q-106 13 -177 13q-78 0 -109.5 -19.5t-31.5 -90.5v-102h147q47 0 73 -1.5t55 -8.5t42.5 -21
t22.5 -39t9 -63zM410 151v97q0 48 -24.5 63t-105.5 15h-130v-175q0 -65 28.5 -83.5t102.5 -18.5t101.5 18t27.5 84z" />
    <glyph glyph-name="seven.alt" horiz-adv-x="502" 
d="M472 584l-248 -584h-96l260 584h-372v65h456v-65z" />
    <glyph glyph-name="eight.alt" 
d="M520 119q0 -71 -54.5 -100t-176.5 -29q-121 0 -175.5 29t-54.5 98v121q0 41 32 67t80 37v4q-44 10 -67 31.5t-23 61.5v101q0 28 8.5 48t30.5 37.5t64 26t105 8.5t105 -8.5t64 -26t30.5 -37.5t8.5 -48v-101q0 -40 -22.5 -61.5t-66.5 -31.5v-4q48 -11 80 -37t32 -67v-119z
M406 430v105q0 37 -27 52t-90 15t-90 -15t-27 -52v-105q0 -39 26 -52.5t91 -13.5t91 13.5t26 52.5zM422 114v121q0 25 -10.5 41t-33 22.5t-40.5 8t-49 1.5t-49 -1.5t-40.5 -8t-33 -22.5t-10.5 -41v-121q0 -36 30 -51t103 -15t103 15t30 51z" />
    <glyph glyph-name="nine.alt" horiz-adv-x="551" 
d="M490 494v-328q0 -96 -56.5 -136t-181.5 -40q-85 0 -169 11v67q93 -17 166 -17q86 0 119 27.5t33 101.5v85h-147q-47 0 -73 1.5t-55 8.5t-42.5 21t-22.5 39t-9 63v96q0 54 17 89t51 51t68 21t84 5q41 0 68.5 -2.5t58.5 -12t49 -27t30 -49t12 -75.5zM401 499
q0 65 -28.5 83.5t-102.5 18.5t-101.5 -18t-27.5 -84v-98q0 -48 24.5 -63t105.5 -15h130v176z" />
    <glyph glyph-name="zero.sups" horiz-adv-x="378" 
d="M189 361q-78 0 -119 21.5t-41 81.5v181q0 60 41 82t119 22t119 -22t41 -82v-181q0 -60 -41 -81.5t-119 -21.5zM189 415q50 0 67 10.5t17 41.5v175q0 31 -17 41.5t-67 10.5t-67 -10.5t-17 -41.5v-175q0 -31 17 -41.5t67 -10.5z" />
    <glyph glyph-name="one.sups" horiz-adv-x="378" 
d="M257 363h-71v298l-111 -71v68l120 81h62v-376z" />
    <glyph glyph-name="two.sups" horiz-adv-x="378" 
d="M338 363h-297v81q0 35 23 58.5t55 35.5t64.5 21.5t55.5 23.5t23 34v44q0 32 -93 32q-46 0 -117 -13v57q68 11 127 11q84 0 120.5 -18t36.5 -64v-60q0 -35 -35 -60t-77.5 -36t-77.5 -26.5t-35 -33.5v-29h227v-58z" />
    <glyph glyph-name="three.sups" horiz-adv-x="378" 
d="M189 538h-77v49h77q37 0 55.5 6.5t18.5 25.5v40q0 20 -19.5 27.5t-63.5 7.5q-39 0 -119 -6v56q70 5 128 5q148 0 148 -73v-59q0 -39 -54 -51l1 -1q66 -13 66 -64v-53q0 -48 -39.5 -67.5t-121.5 -19.5q-68 0 -142 8v60q70 -14 142 -14q86 0 86 40v43q0 22 -20.5 31
t-65.5 9z" />
    <glyph glyph-name="four.sups" horiz-adv-x="378" 
d="M354 448h-48v-85h-72v85h-220v50l209 241h83v-240h48v-51zM234 499l-1 169l-145 -169h146z" />
    <glyph glyph-name="five.sups" horiz-adv-x="378" 
d="M337 515v-67q0 -87 -167 -87q-36 0 -130 10v60q73 -15 129 -15q49 0 71 9.5t22 32.5v40q0 22 -16.5 31.5t-60.5 9.5h-137v200h280v-55h-204v-91h77q81 0 108.5 -19.5t27.5 -58.5z" />
    <glyph glyph-name="six.sups" horiz-adv-x="378" 
d="M31 458v192q0 99 164 99q59 0 134 -6v-58q-63 9 -126 9q-51 0 -73.5 -12.5t-22.5 -49.5v-39h93q36 0 59 -2.5t44.5 -10t32 -24t10.5 -42.5v-61q0 -30 -13 -50t-38 -28.5t-48 -11t-57 -2.5q-32 0 -56.5 3.5t-49.5 12.5t-39 29.5t-14 51.5zM107 462q0 -47 84 -47
q45 0 62.5 8.5t17.5 31.5v47q0 23 -20.5 31t-60.5 8h-83v-79z" />
    <glyph glyph-name="seven.sups" horiz-adv-x="378" 
d="M330 685l-147 -322h-83l152 319h-223v57h301v-54z" />
    <glyph glyph-name="eight.sups" horiz-adv-x="378" 
d="M189 361q-82 0 -121.5 19.5t-39.5 67.5v53q0 50 67 63l-1 1q-53 12 -53 52v59q0 73 148 73t148 -73v-59q0 -39 -54 -51l1 -1q66 -13 66 -64v-53q0 -48 -39.5 -67.5t-121.5 -19.5zM189 538q-45 0 -65.5 -9t-20.5 -31v-43q0 -40 86 -40t86 40v43q0 22 -20.5 31t-65.5 9z
M189 694q-38 0 -55.5 -7.5t-17.5 -27.5v-40q0 -19 18 -25.5t55 -6.5t55.5 6.5t18.5 25.5v40q0 35 -74 35z" />
    </font>
</defs>
</svg>
